<svg xmlns="http://www.w3.org/2000/svg" xmlns:xlink="http://www.w3.org/1999/xlink" width="51" zoomAndPan="magnify" viewBox="0 0 38.25 38.249999" height="51" preserveAspectRatio="xMidYMid meet" version="1.0"><defs><clipPath id="id1"><path d="M 0 4.332031 L 37.515625 4.332031 L 37.515625 19 L 0 19 Z M 0 4.332031 " clip-rule="nonzero"/></clipPath><clipPath id="id2"><path d="M 0 10 L 37.515625 10 L 37.515625 33.019531 L 0 33.019531 Z M 0 10 " clip-rule="nonzero"/></clipPath></defs><g clip-path="url(#id1)"><path fill="#9e30ff" d="M 18.757812 18.4375 L 37.507812 7.25 L 37.507812 7.199219 C 37.507812 6.820312 37.433594 6.453125 37.289062 6.101562 C 37.144531 5.75 36.933594 5.441406 36.664062 5.171875 C 36.394531 4.902344 36.082031 4.695312 35.726562 4.550781 C 35.375 4.402344 35.007812 4.332031 34.625 4.332031 L 2.890625 4.332031 C 2.507812 4.332031 2.140625 4.402344 1.785156 4.550781 C 1.433594 4.695312 1.121094 4.902344 0.851562 5.171875 C 0.582031 5.441406 0.371094 5.75 0.226562 6.101562 C 0.078125 6.453125 0.00390625 6.820312 0.00390625 7.199219 L 0.00390625 7.25 Z M 18.757812 18.4375 " fill-opacity="1" fill-rule="nonzero"/></g><g clip-path="url(#id2)"><path fill="#9e30ff" d="M 19.5 21.339844 C 19.269531 21.476562 19.023438 21.542969 18.757812 21.542969 C 18.492188 21.542969 18.242188 21.476562 18.015625 21.339844 L 0.00390625 10.59375 L 0.00390625 30.148438 C 0.00390625 30.53125 0.078125 30.894531 0.226562 31.246094 C 0.371094 31.597656 0.582031 31.910156 0.851562 32.179688 C 1.121094 32.449219 1.433594 32.65625 1.785156 32.800781 C 2.140625 32.945312 2.507812 33.019531 2.890625 33.019531 L 34.625 33.019531 C 35.007812 33.019531 35.375 32.945312 35.726562 32.800781 C 36.082031 32.65625 36.394531 32.449219 36.664062 32.179688 C 36.933594 31.910156 37.144531 31.597656 37.289062 31.246094 C 37.433594 30.894531 37.507812 30.53125 37.507812 30.148438 L 37.507812 10.59375 Z M 19.5 21.339844 " fill-opacity="1" fill-rule="nonzero"/></g></svg>