<svg xmlns="http://www.w3.org/2000/svg" xmlns:xlink="http://www.w3.org/1999/xlink" width="46" zoomAndPan="magnify" viewBox="0 0 34.5 34.5" height="46" preserveAspectRatio="xMidYMid meet" version="1.0"><defs><clipPath id="id1"><path d="M 1.125 1.125 L 33.375 1.125 L 33.375 33 L 1.125 33 Z M 1.125 1.125 " clip-rule="nonzero"/></clipPath></defs><g clip-path="url(#id1)"><path fill="#9e30f0" d="M 17.25 1.425781 C 8.339844 1.425781 1.125 8.644531 1.125 17.550781 C 1.125 24.6875 5.742188 30.714844 12.152344 32.851562 C 12.957031 32.992188 13.257812 32.507812 13.257812 32.085938 C 13.257812 31.703125 13.238281 30.433594 13.238281 29.082031 C 9.1875 29.828125 8.140625 28.09375 7.816406 27.1875 C 7.636719 26.722656 6.847656 25.292969 6.164062 24.910156 C 5.601562 24.605469 4.792969 23.859375 6.144531 23.839844 C 7.414062 23.820312 8.320312 25.011719 8.625 25.492188 C 10.074219 27.933594 12.390625 27.246094 13.320312 26.824219 C 13.460938 25.777344 13.882812 25.070312 14.347656 24.667969 C 10.757812 24.265625 7.011719 22.875 7.011719 16.707031 C 7.011719 14.953125 7.636719 13.5 8.664062 12.371094 C 8.503906 11.96875 7.9375 10.316406 8.824219 8.097656 C 8.824219 8.097656 10.175781 7.675781 13.257812 9.75 C 14.550781 9.390625 15.917969 9.207031 17.289062 9.207031 C 18.660156 9.207031 20.03125 9.390625 21.320312 9.75 C 24.40625 7.65625 25.757812 8.097656 25.757812 8.097656 C 26.644531 10.316406 26.078125 11.96875 25.917969 12.371094 C 26.945312 13.5 27.570312 14.933594 27.570312 16.707031 C 27.570312 22.894531 23.800781 24.265625 20.214844 24.667969 C 20.796875 25.171875 21.300781 26.140625 21.300781 27.652344 C 21.300781 29.808594 21.28125 31.539062 21.28125 32.085938 C 21.28125 32.507812 21.582031 33.011719 22.390625 32.851562 C 23.183594 32.582031 23.957031 32.253906 24.699219 31.863281 C 25.445312 31.476562 26.152344 31.03125 26.828125 30.53125 C 27.503906 30.035156 28.136719 29.484375 28.726562 28.886719 C 29.316406 28.289062 29.855469 27.648438 30.34375 26.96875 C 30.835938 26.285156 31.269531 25.570312 31.644531 24.820312 C 32.023438 24.070312 32.339844 23.296875 32.597656 22.496094 C 32.855469 21.699219 33.050781 20.882812 33.179688 20.054688 C 33.308594 19.226562 33.375 18.390625 33.375 17.550781 C 33.375 8.644531 26.160156 1.425781 17.25 1.425781 Z M 17.25 1.425781 " fill-opacity="1" fill-rule="nonzero"/></g></svg>