<svg xmlns="http://www.w3.org/2000/svg" xmlns:xlink="http://www.w3.org/1999/xlink" width="46" zoomAndPan="magnify" viewBox="0 0 34.5 34.5" height="46" preserveAspectRatio="xMidYMid meet" version="1.0"><defs><clipPath id="id1"><path d="M 0.898438 0.898438 L 33.898438 0.898438 L 33.898438 33.898438 L 0.898438 33.898438 Z M 0.898438 0.898438 " clip-rule="nonzero"/></clipPath></defs><g clip-path="url(#id1)"><path fill="#9e30f0" d="M 17.394531 3.875 C 21.796875 3.875 22.316406 3.890625 24.058594 3.96875 C 25.664062 4.042969 26.539062 4.308594 27.125 4.539062 C 27.890625 4.835938 28.441406 5.199219 29.019531 5.777344 C 29.597656 6.355469 29.953125 6.90625 30.253906 7.671875 C 30.480469 8.25 30.746094 9.125 30.828125 10.738281 C 30.90625 12.480469 30.921875 13 30.921875 17.402344 C 30.921875 21.808594 30.90625 22.328125 30.828125 24.070312 C 30.753906 25.675781 30.488281 26.550781 30.253906 27.136719 C 29.960938 27.902344 29.597656 28.453125 29.019531 29.03125 C 28.441406 29.609375 27.890625 29.964844 27.125 30.265625 C 26.546875 30.492188 25.671875 30.757812 24.058594 30.835938 C 22.316406 30.917969 21.796875 30.933594 17.394531 30.933594 C 12.988281 30.933594 12.46875 30.917969 10.726562 30.835938 C 9.121094 30.765625 8.246094 30.5 7.660156 30.265625 C 6.894531 29.96875 6.34375 29.609375 5.765625 29.03125 C 5.1875 28.453125 4.832031 27.902344 4.53125 27.136719 C 4.304688 26.558594 4.039062 25.683594 3.957031 24.070312 C 3.878906 22.328125 3.863281 21.808594 3.863281 17.402344 C 3.863281 13 3.878906 12.480469 3.957031 10.738281 C 4.03125 9.132812 4.296875 8.257812 4.53125 7.671875 C 4.824219 6.90625 5.1875 6.355469 5.765625 5.777344 C 6.34375 5.199219 6.894531 4.84375 7.660156 4.539062 C 8.238281 4.316406 9.113281 4.050781 10.726562 3.96875 C 12.46875 3.890625 12.988281 3.875 17.394531 3.875 M 17.394531 0.902344 C 12.910156 0.902344 12.351562 0.925781 10.589844 1.003906 C 8.832031 1.085938 7.632812 1.367188 6.582031 1.769531 C 5.5 2.191406 4.582031 2.753906 3.660156 3.671875 C 2.75 4.589844 2.1875 5.507812 1.769531 6.59375 C 1.363281 7.640625 1.082031 8.84375 1 10.601562 C 0.921875 12.355469 0.898438 12.921875 0.898438 17.394531 C 0.898438 21.878906 0.921875 22.4375 1 24.199219 C 1.082031 25.957031 1.363281 27.15625 1.769531 28.207031 C 2.1875 29.289062 2.75 30.207031 3.667969 31.128906 C 4.585938 32.046875 5.503906 32.609375 6.589844 33.027344 C 7.640625 33.433594 8.839844 33.714844 10.597656 33.796875 C 12.351562 33.875 12.917969 33.894531 17.398438 33.894531 C 21.882812 33.894531 22.441406 33.875 24.203125 33.796875 C 25.960938 33.714844 27.160156 33.433594 28.210938 33.027344 C 29.292969 32.609375 30.210938 32.046875 31.128906 31.128906 C 32.050781 30.207031 32.613281 29.289062 33.03125 28.207031 C 33.4375 27.15625 33.71875 25.957031 33.796875 24.199219 C 33.878906 22.441406 33.898438 21.878906 33.898438 17.394531 C 33.898438 12.914062 33.878906 12.355469 33.796875 10.59375 C 33.71875 8.835938 33.4375 7.636719 33.03125 6.585938 C 32.613281 5.503906 32.050781 4.582031 31.128906 3.664062 C 30.210938 2.746094 29.292969 2.183594 28.210938 1.765625 C 27.160156 1.359375 25.960938 1.078125 24.203125 0.996094 C 22.441406 0.925781 21.875 0.902344 17.394531 0.902344 " fill-opacity="1" fill-rule="nonzero"/></g><path fill="#9e30f0" d="M 17.394531 8.929688 C 12.714844 8.929688 8.925781 12.71875 8.925781 17.394531 C 8.925781 22.074219 12.722656 25.871094 17.398438 25.871094 C 22.078125 25.871094 25.875 22.082031 25.875 17.394531 C 25.867188 12.71875 22.070312 8.929688 17.394531 8.929688 M 17.394531 22.898438 C 14.355469 22.898438 11.898438 20.441406 11.898438 17.402344 C 11.898438 14.367188 14.355469 11.910156 17.394531 11.910156 C 20.429688 11.910156 22.886719 14.367188 22.886719 17.402344 C 22.894531 20.433594 20.429688 22.898438 17.394531 22.898438 " fill-opacity="1" fill-rule="nonzero"/><path fill="#9e30f0" d="M 28.179688 8.597656 C 28.179688 9.6875 27.292969 10.578125 26.199219 10.578125 C 25.109375 10.578125 24.21875 9.6875 24.21875 8.597656 C 24.21875 7.503906 25.109375 6.617188 26.199219 6.617188 C 27.292969 6.617188 28.179688 7.496094 28.179688 8.597656 " fill-opacity="1" fill-rule="nonzero"/></svg>