<svg xmlns="http://www.w3.org/2000/svg" xmlns:xlink="http://www.w3.org/1999/xlink" width="46" zoomAndPan="magnify" viewBox="0 0 34.5 34.5" height="46" preserveAspectRatio="xMidYMid meet" version="1.0"><defs><clipPath id="id1"><path d="M 1.125 1.125 L 33.375 1.125 L 33.375 33.375 L 1.125 33.375 Z M 1.125 1.125 " clip-rule="nonzero"/></clipPath></defs><g clip-path="url(#id1)"><path fill="#9e30f0" d="M 5.960938 1.125 L 28.539062 1.125 C 28.855469 1.125 29.167969 1.15625 29.480469 1.21875 C 29.792969 1.28125 30.09375 1.371094 30.390625 1.492188 C 30.683594 1.613281 30.960938 1.765625 31.226562 1.941406 C 31.488281 2.117188 31.734375 2.316406 31.957031 2.542969 C 32.183594 2.765625 32.382812 3.011719 32.558594 3.273438 C 32.734375 3.539062 32.886719 3.816406 33.007812 4.109375 C 33.128906 4.40625 33.21875 4.707031 33.28125 5.019531 C 33.34375 5.332031 33.375 5.644531 33.375 5.960938 L 33.375 28.539062 C 33.375 28.855469 33.34375 29.167969 33.28125 29.480469 C 33.21875 29.792969 33.128906 30.09375 33.007812 30.390625 C 32.886719 30.683594 32.734375 30.960938 32.558594 31.226562 C 32.382812 31.488281 32.183594 31.734375 31.957031 31.957031 C 31.734375 32.183594 31.488281 32.382812 31.226562 32.558594 C 30.960938 32.734375 30.683594 32.886719 30.390625 33.007812 C 30.09375 33.128906 29.792969 33.21875 29.480469 33.28125 C 29.167969 33.34375 28.855469 33.375 28.539062 33.375 L 5.960938 33.375 C 5.644531 33.375 5.332031 33.34375 5.019531 33.28125 C 4.707031 33.21875 4.40625 33.128906 4.109375 33.007812 C 3.816406 32.886719 3.539062 32.734375 3.273438 32.558594 C 3.011719 32.382812 2.765625 32.183594 2.542969 31.957031 C 2.316406 31.734375 2.117188 31.488281 1.941406 31.226562 C 1.765625 30.960938 1.613281 30.683594 1.492188 30.390625 C 1.371094 30.09375 1.28125 29.792969 1.21875 29.480469 C 1.15625 29.167969 1.125 28.855469 1.125 28.539062 L 1.125 5.960938 C 1.125 5.644531 1.15625 5.332031 1.21875 5.019531 C 1.28125 4.707031 1.371094 4.40625 1.492188 4.109375 C 1.613281 3.816406 1.765625 3.539062 1.941406 3.273438 C 2.117188 3.011719 2.316406 2.765625 2.542969 2.542969 C 2.765625 2.316406 3.011719 2.117188 3.273438 1.941406 C 3.539062 1.765625 3.816406 1.613281 4.109375 1.492188 C 4.40625 1.371094 4.707031 1.28125 5.019531 1.21875 C 5.332031 1.15625 5.644531 1.125 5.960938 1.125 Z M 5.960938 1.125 " fill-opacity="1" fill-rule="nonzero"/></g><path fill="#ffffff" d="M 12.398438 9.816406 C 12.398438 10.125 12.339844 10.421875 12.222656 10.710938 C 12.105469 10.996094 11.9375 11.246094 11.71875 11.464844 C 11.5 11.683594 11.246094 11.851562 10.960938 11.96875 C 10.675781 12.089844 10.378906 12.148438 10.070312 12.148438 C 9.761719 12.148438 9.464844 12.089844 9.175781 11.96875 C 8.890625 11.851562 8.640625 11.683594 8.421875 11.464844 C 8.203125 11.246094 8.035156 10.996094 7.917969 10.710938 C 7.796875 10.421875 7.738281 10.125 7.738281 9.816406 C 7.738281 9.507812 7.796875 9.210938 7.917969 8.925781 C 8.035156 8.640625 8.203125 8.386719 8.421875 8.167969 C 8.640625 7.949219 8.890625 7.78125 9.175781 7.664062 C 9.464844 7.546875 9.761719 7.488281 10.070312 7.488281 C 10.378906 7.488281 10.675781 7.546875 10.960938 7.664062 C 11.246094 7.78125 11.5 7.949219 11.71875 8.167969 C 11.9375 8.386719 12.105469 8.640625 12.222656 8.925781 C 12.339844 9.210938 12.398438 9.507812 12.398438 9.816406 Z M 12.398438 9.816406 " fill-opacity="1" fill-rule="nonzero"/><path stroke-linecap="butt" transform="matrix(0.0629883, 0, 0, 0.0629883, 1.125, 1.125001)" fill-opacity="1" fill="#ffffff" fill-rule="nonzero" stroke-linejoin="miter" d="M 243.969006 193.984492 L 243.969006 392.000006 M 142.015513 193.984492 L 142.015513 392.000006 " stroke="#ffffff" stroke-width="66" stroke-opacity="1" stroke-miterlimit="4"/><path fill="#ffffff" d="M 18.507812 18.886719 C 18.507812 17.628906 19.328125 16.367188 20.777344 16.367188 C 22.289062 16.367188 22.855469 17.503906 22.855469 19.203125 L 22.855469 25.816406 L 27.011719 25.816406 L 27.011719 18.699219 C 27.011719 14.855469 24.996094 13.09375 22.226562 13.09375 C 20.085938 13.09375 19.011719 14.289062 18.507812 15.109375 " fill-opacity="1" fill-rule="nonzero"/></svg>