<svg xmlns="http://www.w3.org/2000/svg" xmlns:xlink="http://www.w3.org/1999/xlink" width="51" zoomAndPan="magnify" viewBox="0 0 38.25 38.249999" height="51" preserveAspectRatio="xMidYMid meet" version="1.0"><defs><clipPath id="id1"><path d="M 6.214844 0 L 31.222656 0 L 31.222656 37.515625 L 6.214844 37.515625 Z M 6.214844 0 " clip-rule="nonzero"/></clipPath></defs><g clip-path="url(#id1)"><path fill="#9e30ff" d="M 18.714844 0 C 11.828125 0 6.246094 5.597656 6.246094 12.503906 C 6.246094 14.847656 6.890625 17.042969 8.007812 18.917969 L 18.714844 37.515625 L 29.433594 18.902344 C 30.546875 17.03125 31.1875 14.84375 31.1875 12.503906 C 31.1875 5.597656 25.605469 0 18.714844 0 Z M 18.714844 16.691406 C 16.414062 16.691406 14.542969 14.816406 14.542969 12.503906 C 14.542969 10.195312 16.414062 8.320312 18.714844 8.320312 C 21.023438 8.320312 22.890625 10.195312 22.890625 12.503906 C 22.890625 14.816406 21.023438 16.691406 18.714844 16.691406 Z M 18.714844 16.691406 " fill-opacity="1" fill-rule="nonzero"/></g></svg>