<svg xmlns="http://www.w3.org/2000/svg" xmlns:xlink="http://www.w3.org/1999/xlink" width="51" zoomAndPan="magnify" viewBox="0 0 38.25 38.249999" height="51" preserveAspectRatio="xMidYMid meet" version="1.0"><defs><clipPath id="id1"><path d="M 0.734375 0.734375 L 36.777344 0.734375 L 36.777344 36.777344 L 0.734375 36.777344 Z M 0.734375 0.734375 " clip-rule="nonzero"/></clipPath></defs><g clip-path="url(#id1)"><path fill="#9e30ff" d="M 36.777344 18.757812 C 36.777344 19.347656 36.75 19.9375 36.691406 20.523438 C 36.632812 21.109375 36.546875 21.695312 36.433594 22.273438 C 36.316406 22.851562 36.175781 23.421875 36.003906 23.988281 C 35.832031 24.554688 35.632812 25.109375 35.40625 25.652344 C 35.179688 26.199219 34.929688 26.730469 34.652344 27.253906 C 34.371094 27.773438 34.070312 28.277344 33.742188 28.769531 C 33.414062 29.261719 33.0625 29.734375 32.6875 30.191406 C 32.3125 30.644531 31.917969 31.082031 31.5 31.5 C 31.082031 31.917969 30.644531 32.3125 30.191406 32.6875 C 29.734375 33.0625 29.261719 33.414062 28.769531 33.742188 C 28.277344 34.070312 27.773438 34.371094 27.253906 34.652344 C 26.730469 34.929688 26.199219 35.179688 25.652344 35.40625 C 25.109375 35.632812 24.554688 35.832031 23.988281 36.003906 C 23.421875 36.175781 22.851562 36.316406 22.273438 36.433594 C 21.695312 36.546875 21.109375 36.632812 20.523438 36.691406 C 19.9375 36.75 19.347656 36.777344 18.757812 36.777344 C 18.167969 36.777344 17.578125 36.75 16.992188 36.691406 C 16.402344 36.632812 15.820312 36.546875 15.242188 36.433594 C 14.664062 36.316406 14.089844 36.175781 13.527344 36.003906 C 12.960938 35.832031 12.40625 35.632812 11.859375 35.40625 C 11.316406 35.179688 10.78125 34.929688 10.261719 34.652344 C 9.742188 34.371094 9.234375 34.070312 8.746094 33.742188 C 8.253906 33.414062 7.78125 33.0625 7.324219 32.6875 C 6.867188 32.3125 6.429688 31.917969 6.015625 31.5 C 5.597656 31.082031 5.199219 30.644531 4.828125 30.191406 C 4.453125 29.734375 4.101562 29.261719 3.773438 28.769531 C 3.445312 28.277344 3.140625 27.773438 2.863281 27.253906 C 2.585938 26.730469 2.332031 26.199219 2.105469 25.652344 C 1.882812 25.109375 1.683594 24.554688 1.511719 23.988281 C 1.339844 23.421875 1.195312 22.851562 1.082031 22.273438 C 0.964844 21.695312 0.878906 21.109375 0.824219 20.523438 C 0.765625 19.9375 0.734375 19.347656 0.734375 18.757812 C 0.734375 18.167969 0.765625 17.578125 0.824219 16.992188 C 0.878906 16.402344 0.964844 15.820312 1.082031 15.242188 C 1.195312 14.664062 1.339844 14.089844 1.511719 13.527344 C 1.683594 12.960938 1.882812 12.40625 2.105469 11.859375 C 2.332031 11.316406 2.585938 10.78125 2.863281 10.261719 C 3.140625 9.742188 3.445312 9.234375 3.773438 8.746094 C 4.101562 8.253906 4.453125 7.78125 4.828125 7.324219 C 5.199219 6.867188 5.597656 6.429688 6.015625 6.015625 C 6.429688 5.597656 6.867188 5.199219 7.324219 4.828125 C 7.78125 4.453125 8.253906 4.101562 8.746094 3.773438 C 9.234375 3.445312 9.742188 3.140625 10.261719 2.863281 C 10.78125 2.585938 11.316406 2.332031 11.859375 2.105469 C 12.40625 1.882812 12.960938 1.683594 13.527344 1.511719 C 14.089844 1.339844 14.664062 1.195312 15.242188 1.082031 C 15.820312 0.964844 16.402344 0.878906 16.992188 0.824219 C 17.578125 0.765625 18.167969 0.734375 18.757812 0.734375 C 19.347656 0.734375 19.9375 0.765625 20.523438 0.824219 C 21.109375 0.878906 21.695312 0.964844 22.273438 1.082031 C 22.851562 1.195312 23.421875 1.339844 23.988281 1.511719 C 24.554688 1.683594 25.109375 1.882812 25.652344 2.105469 C 26.199219 2.332031 26.730469 2.585938 27.253906 2.863281 C 27.773438 3.140625 28.277344 3.445312 28.769531 3.773438 C 29.261719 4.101562 29.734375 4.453125 30.191406 4.828125 C 30.644531 5.199219 31.082031 5.597656 31.5 6.015625 C 31.917969 6.429688 32.3125 6.867188 32.6875 7.324219 C 33.0625 7.78125 33.414062 8.253906 33.742188 8.746094 C 34.070312 9.234375 34.371094 9.742188 34.652344 10.261719 C 34.929688 10.78125 35.179688 11.316406 35.40625 11.859375 C 35.632812 12.40625 35.832031 12.960938 36.003906 13.527344 C 36.175781 14.089844 36.316406 14.664062 36.433594 15.242188 C 36.546875 15.820312 36.632812 16.402344 36.691406 16.992188 C 36.75 17.578125 36.777344 18.167969 36.777344 18.757812 Z M 36.777344 18.757812 " fill-opacity="1" fill-rule="nonzero"/></g><path fill="#ffffff" d="M 17.5 19.890625 C 14.523438 17.039062 14.984375 15.699219 14.984375 15.699219 C 16.199219 14.523438 16.03125 12.972656 16.03125 12.972656 C 15.40625 12.136719 14.777344 11.296875 14.148438 10.457031 C 14.148438 10.457031 13.308594 9.074219 12.007812 9.832031 C 8.53125 11.882812 9.621094 15.40625 9.621094 15.40625 C 9.621094 15.445312 10.585938 18.421875 14.984375 22.527344 C 19.386719 26.679688 22.570312 27.769531 22.570312 27.769531 C 22.570312 27.769531 26.175781 28.941406 27.894531 25.628906 C 28.523438 24.375 27.097656 23.410156 27.097656 23.410156 C 26.21875 22.695312 25.335938 22.027344 24.457031 21.355469 C 24.457031 21.355469 22.863281 21.105469 21.773438 22.320312 C 21.773438 22.363281 20.433594 22.738281 17.5 19.890625 Z M 17.5 19.890625 " fill-opacity="1" fill-rule="nonzero"/></svg>