<svg xmlns="http://www.w3.org/2000/svg" xmlns:xlink="http://www.w3.org/1999/xlink" width="1440" zoomAndPan="magnify" viewBox="0 0 1080 607.499987" height="810" preserveAspectRatio="xMidYMid meet" version="1.0"><defs><filter x="0%" y="0%" width="100%" height="100%" id="id1"><feColorMatrix values="0 0 0 0 1 0 0 0 0 1 0 0 0 0 1 0 0 0 1 0" color-interpolation-filters="sRGB"/></filter><g/><clipPath id="id2"><path d="M 413 39 L 1079.554688 39 L 1079.554688 134 L 413 134 Z M 413 39 " clip-rule="nonzero"/></clipPath><mask id="id3"><g filter="url(#id1)"><rect x="-108" width="1296" fill="#000000" y="-60.749999" height="728.999984" fill-opacity="0.8784"/></g></mask><clipPath id="id4"><path d="M 0.523438 0.859375 L 666.554688 0.859375 L 666.554688 92.285156 L 0.523438 92.285156 Z M 0.523438 0.859375 " clip-rule="nonzero"/></clipPath><clipPath id="id5"><rect x="0" width="667" y="0" height="95"/></clipPath><mask id="id6"><g filter="url(#id1)"><rect x="-108" width="1296" fill="#000000" y="-60.749999" height="728.999984" fill-opacity="0.698"/></g></mask><clipPath id="id7"><path d="M 1.179688 1.730469 L 172.785156 1.730469 L 172.785156 169 L 1.179688 169 Z M 1.179688 1.730469 " clip-rule="nonzero"/></clipPath><clipPath id="id8"><rect x="0" width="173" y="0" height="170"/></clipPath><mask id="id9"><g filter="url(#id1)"><rect x="-108" width="1296" fill="#000000" y="-60.749999" height="728.999984" fill-opacity="0.9176"/></g></mask><clipPath id="id10"><path d="M 0.527344 0.453125 L 47.742188 0.453125 L 47.742188 81.386719 L 0.527344 81.386719 Z M 0.527344 0.453125 " clip-rule="nonzero"/></clipPath><clipPath id="id11"><rect x="0" width="48" y="0" height="82"/></clipPath><mask id="id12"><g filter="url(#id1)"><rect x="-108" width="1296" fill="#000000" y="-60.749999" height="728.999984" fill-opacity="0.9176"/></g></mask><clipPath id="id13"><rect x="0" width="409" y="0" height="108"/></clipPath></defs><g clip-path="url(#id2)"><g mask="url(#id3)"><g transform="matrix(1, 0, 0, 1, 413, 39)"><g clip-path="url(#id5)"><g clip-path="url(#id4)"><path fill="#000000" d="M 675.679688 92.285156 L 0.558594 92.285156 L 28.933594 46.574219 L 0.558594 0.859375 L 675.679688 0.859375 L 675.679688 92.285156 " fill-opacity="1" fill-rule="nonzero"/></g></g></g></g></g><g mask="url(#id6)"><g transform="matrix(1, 0, 0, 1, 799, 266)"><g clip-path="url(#id8)"><g clip-path="url(#id7)"><path fill="#9e30ff" d="M 86.984375 1.789062 C 39.601562 1.789062 1.179688 40.132812 1.179688 87.433594 C 1.179688 125.277344 25.765625 157.378906 59.855469 168.699219 C 64.144531 169.496094 65.71875 166.839844 65.71875 164.578125 C 65.71875 162.539062 65.640625 155.792969 65.601562 148.632812 C 41.730469 153.820312 36.695312 138.53125 36.695312 138.53125 C 32.792969 128.628906 27.167969 126 27.167969 126 C 19.382812 120.6875 27.753906 120.792969 27.753906 120.792969 C 36.371094 121.394531 40.90625 129.617188 40.90625 129.617188 C 48.5625 142.714844 60.980469 138.925781 65.878906 136.738281 C 66.648438 131.203125 68.871094 127.425781 71.324219 125.285156 C 52.265625 123.121094 32.230469 115.777344 32.230469 82.964844 C 32.230469 73.609375 35.582031 65.96875 41.074219 59.972656 C 40.183594 57.816406 37.246094 49.105469 41.902344 37.308594 C 41.902344 37.308594 49.109375 35.007812 65.507812 46.085938 C 72.347656 44.191406 79.6875 43.238281 86.984375 43.207031 C 94.277344 43.238281 101.621094 44.191406 108.480469 46.085938 C 124.855469 35.007812 132.050781 37.308594 132.050781 37.308594 C 136.722656 49.105469 133.785156 57.816406 132.894531 59.972656 C 138.390625 65.96875 141.722656 73.609375 141.722656 82.964844 C 141.722656 115.855469 121.652344 123.09375 102.542969 125.214844 C 105.617188 127.871094 108.367188 133.085938 108.367188 141.082031 C 108.367188 152.535156 108.265625 161.761719 108.265625 164.578125 C 108.265625 166.859375 109.808594 169.53125 114.160156 168.6875 C 148.230469 157.351562 172.785156 125.261719 172.785156 87.433594 C 172.785156 40.132812 134.371094 1.789062 86.984375 1.789062 Z M 33.316406 123.792969 C 33.125 124.21875 32.457031 124.347656 31.84375 124.050781 C 31.222656 123.769531 30.871094 123.195312 31.074219 122.769531 C 31.257812 122.324219 31.929688 122.207031 32.550781 122.5 C 33.175781 122.78125 33.53125 123.363281 33.316406 123.792969 Z M 37.535156 127.550781 C 37.125 127.925781 36.328125 127.753906 35.785156 127.15625 C 35.222656 126.554688 35.117188 125.757812 35.53125 125.378906 C 35.953125 124.996094 36.730469 125.175781 37.292969 125.773438 C 37.855469 126.375 37.964844 127.171875 37.535156 127.550781 Z M 40.429688 132.363281 C 39.90625 132.722656 39.046875 132.382812 38.515625 131.621094 C 37.988281 130.855469 37.988281 129.945312 38.527344 129.578125 C 39.058594 129.210938 39.90625 129.546875 40.445312 130.300781 C 40.96875 131.070312 40.96875 131.988281 40.429688 132.363281 Z M 45.328125 137.929688 C 44.859375 138.445312 43.855469 138.308594 43.125 137.601562 C 42.371094 136.910156 42.164062 135.929688 42.636719 135.414062 C 43.113281 134.898438 44.121094 135.039062 44.859375 135.742188 C 45.601562 136.429688 45.828125 137.421875 45.328125 137.929688 Z M 51.65625 139.808594 C 51.449219 140.476562 50.484375 140.785156 49.511719 140.5 C 48.542969 140.210938 47.90625 139.421875 48.101562 138.746094 C 48.304688 138.070312 49.273438 137.75 50.253906 138.054688 C 51.222656 138.351562 51.859375 139.125 51.65625 139.808594 Z M 58.859375 140.605469 C 58.882812 141.316406 58.058594 141.898438 57.039062 141.910156 C 56.011719 141.9375 55.183594 141.363281 55.171875 140.664062 C 55.171875 139.957031 55.976562 139.375 57.003906 139.359375 C 58.023438 139.339844 58.859375 139.902344 58.859375 140.605469 Z M 65.933594 140.335938 C 66.058594 141.027344 65.347656 141.734375 64.335938 141.921875 C 63.339844 142.105469 62.417969 141.675781 62.289062 140.992188 C 62.167969 140.289062 62.890625 139.582031 63.882812 139.402344 C 64.898438 139.21875 65.804688 139.636719 65.933594 140.335938 Z M 65.933594 140.335938 " fill-opacity="1" fill-rule="nonzero"/></g></g></g></g><g mask="url(#id9)"><g transform="matrix(1, 0, 0, 1, 964, 471)"><g clip-path="url(#id11)"><g clip-path="url(#id10)"><path fill="#9e30ff" d="M 44.726562 17.132812 L 44.289062 17.132812 C 42.535156 7.65625 34.171875 0.453125 24.144531 0.453125 C 14.113281 0.453125 5.75 7.65625 3.996094 17.132812 L 3.558594 17.132812 C 1.917969 17.132812 0.582031 18.460938 0.582031 20.09375 L 0.582031 25.015625 C 0.582031 26.648438 1.917969 27.976562 3.558594 27.976562 L 4.757812 27.976562 L 4.714844 45.34375 C 3.929688 47.449219 3.355469 49.703125 3.015625 51.957031 C 2.988281 52.039062 2.972656 52.117188 2.976562 52.203125 C 2.835938 53.1875 2.742188 54.164062 2.695312 55.128906 C 2.65625 55.246094 2.644531 55.363281 2.675781 55.476562 C 2.542969 58.734375 2.941406 61.800781 3.945312 64.152344 C 4.246094 64.855469 4.839844 65.363281 5.578125 65.550781 C 5.78125 65.601562 5.984375 65.628906 6.1875 65.628906 C 6.71875 65.628906 7.242188 65.453125 7.675781 65.113281 L 7.746094 65.058594 C 8.152344 65.304688 8.640625 65.433594 9.207031 65.433594 C 9.304688 65.433594 9.40625 65.421875 9.503906 65.417969 C 9.847656 71.078125 10.644531 74.75 10.992188 76.136719 C 10.289062 76.382812 9.65625 76.714844 9.105469 77.132812 C 8.289062 77.753906 7.972656 78.78125 8.304688 79.757812 C 8.640625 80.746094 9.535156 81.386719 10.578125 81.386719 L 20.582031 81.386719 C 21.355469 81.386719 22.089844 81.054688 22.59375 80.472656 C 23.105469 79.886719 23.332031 79.109375 23.214844 78.339844 C 22.539062 73.769531 22.601562 69.164062 23.402344 64.652344 C 23.460938 64.300781 23.773438 64.046875 24.144531 64.046875 C 24.511719 64.046875 24.824219 64.300781 24.886719 64.652344 C 25.6875 69.164062 25.75 73.769531 25.070312 78.339844 C 24.957031 79.109375 25.183594 79.886719 25.691406 80.472656 C 26.199219 81.054688 26.933594 81.386719 27.707031 81.386719 L 37.707031 81.386719 C 38.753906 81.386719 39.648438 80.746094 39.984375 79.757812 C 40.3125 78.78125 40 77.753906 39.183594 77.132812 C 38.628906 76.71875 38 76.382812 37.296875 76.136719 C 37.644531 74.75 38.4375 71.078125 38.78125 65.417969 C 38.882812 65.421875 38.984375 65.433594 39.078125 65.433594 C 39.648438 65.433594 40.136719 65.304688 40.542969 65.058594 L 40.613281 65.113281 C 41.046875 65.453125 41.566406 65.628906 42.101562 65.628906 C 42.304688 65.628906 42.507812 65.605469 42.707031 65.550781 C 43.449219 65.363281 44.042969 64.855469 44.339844 64.152344 C 45.347656 61.800781 45.742188 58.734375 45.613281 55.476562 C 45.640625 55.363281 45.628906 55.246094 45.59375 55.128906 C 45.542969 54.164062 45.449219 53.1875 45.308594 52.203125 C 45.3125 52.117188 45.300781 52.039062 45.269531 51.957031 C 44.929688 49.703125 44.359375 47.449219 43.570312 45.339844 L 43.53125 27.976562 L 44.726562 27.976562 C 46.367188 27.976562 47.703125 26.648438 47.703125 25.015625 L 47.703125 20.089844 C 47.703125 18.460938 46.367188 17.132812 44.726562 17.132812 Z M 42.328125 45.679688 C 42.332031 45.683594 42.332031 45.683594 42.332031 45.683594 C 43.078125 47.644531 43.628906 49.742188 43.964844 51.84375 C 42.222656 52.871094 40.4375 53.195312 38.535156 52.832031 C 38.109375 49.746094 37.375 47.125 36.578125 44.996094 C 38.375 44.929688 39.9375 43.886719 40.800781 42.359375 C 41.378906 43.394531 41.886719 44.515625 42.328125 45.679688 Z M 44.3125 54.949219 C 42.75 55.773438 40.914062 56.082031 38.839844 55.863281 C 38.804688 55.285156 38.757812 54.714844 38.699219 54.164062 C 39.136719 54.226562 39.570312 54.269531 39.996094 54.269531 C 41.425781 54.269531 42.816406 53.910156 44.15625 53.210938 C 44.226562 53.792969 44.277344 54.371094 44.3125 54.949219 Z M 4.128906 53.210938 C 5.46875 53.910156 6.859375 54.269531 8.289062 54.269531 C 8.71875 54.269531 9.152344 54.226562 9.585938 54.164062 C 9.527344 54.714844 9.480469 55.285156 9.445312 55.863281 C 7.375 56.082031 5.539062 55.773438 3.976562 54.945312 C 4.011719 54.371094 4.058594 53.792969 4.128906 53.210938 Z M 5.957031 45.683594 C 5.957031 45.683594 5.957031 45.683594 5.957031 45.679688 C 6.402344 44.515625 6.910156 43.394531 7.484375 42.359375 C 8.347656 43.886719 9.910156 44.929688 11.707031 44.996094 C 10.914062 47.125 10.179688 49.746094 9.75 52.832031 C 7.847656 53.195312 6.066406 52.871094 4.320312 51.84375 C 4.660156 49.742188 5.210938 47.644531 5.957031 45.683594 Z M 37.421875 54.382812 L 33.546875 54.382812 C 32.558594 54.382812 31.75 55.183594 31.75 56.171875 L 31.75 56.902344 L 29.265625 56.902344 C 31.972656 52.863281 33.277344 47.613281 33.242188 40.953125 C 34.613281 43.316406 36.742188 47.898438 37.421875 54.382812 Z M 20.601562 56.902344 C 17.707031 53.003906 16.304688 47.78125 16.335938 41 C 17.535156 42.414062 19.84375 44.011719 24.144531 44.011719 C 28.445312 44.011719 30.75 42.414062 31.953125 41 C 31.984375 47.78125 30.582031 53.003906 27.6875 56.902344 Z M 14.238281 53.664062 C 12.867188 53.664062 11.75 54.773438 11.75 56.136719 L 11.75 56.902344 L 10.6875 56.902344 C 11.003906 49.078125 13.503906 43.609375 15.042969 40.953125 C 15.007812 47.613281 16.316406 52.859375 19.019531 56.902344 L 16.722656 56.902344 L 16.722656 56.136719 C 16.722656 54.773438 15.609375 53.664062 14.238281 53.664062 Z M 25.035156 41.171875 C 27.164062 41.082031 29.210938 40.667969 31.125 39.976562 C 30.175781 41.191406 28.179688 42.730469 24.144531 42.730469 C 20.109375 42.730469 18.113281 41.191406 17.164062 39.976562 C 19.078125 40.667969 21.121094 41.082031 23.25 41.171875 C 23.546875 41.1875 23.84375 41.195312 24.144531 41.195312 C 24.445312 41.195312 24.742188 41.1875 25.035156 41.171875 Z M 24.144531 39.910156 C 15.273438 39.910156 8.0625 32.738281 8.0625 23.921875 C 8.0625 15.105469 15.273438 7.933594 24.144531 7.933594 C 33.011719 7.933594 40.226562 15.105469 40.226562 23.921875 C 40.226562 32.738281 33.011719 39.910156 24.144531 39.910156 Z M 10.367188 35.890625 C 11.6875 37.085938 13.171875 38.109375 14.777344 38.933594 C 14.210938 39.753906 13.214844 41.355469 12.226562 43.691406 C 12.117188 43.703125 12.003906 43.722656 11.894531 43.722656 C 9.78125 43.722656 8.0625 41.886719 8.0625 39.628906 C 8.0625 37.984375 8.976562 36.535156 10.367188 35.890625 Z M 10.648438 58.1875 L 11.75 58.1875 L 11.75 59.585938 L 10.632812 59.585938 C 10.636719 59.128906 10.640625 58.660156 10.648438 58.1875 Z M 13.042969 56.136719 C 13.042969 55.484375 13.578125 54.949219 14.238281 54.949219 C 14.894531 54.949219 15.433594 55.484375 15.433594 56.136719 L 15.433594 61.679688 C 15.433594 62.332031 14.894531 62.863281 14.238281 62.863281 C 13.578125 62.863281 13.042969 62.332031 13.042969 61.679688 Z M 16.722656 58.1875 L 31.75 58.1875 L 31.75 59.585938 L 16.722656 59.585938 Z M 33.042969 56.171875 C 33.042969 55.894531 33.269531 55.667969 33.546875 55.667969 L 34.632812 55.667969 L 34.632812 61.671875 L 33.546875 61.671875 C 33.269531 61.671875 33.042969 61.445312 33.042969 61.167969 Z M 35.925781 55.667969 L 37.53125 55.667969 C 37.574219 56.285156 37.609375 56.914062 37.625 57.558594 C 37.660156 59.007812 37.660156 60.378906 37.636719 61.671875 L 35.925781 61.671875 Z M 36.390625 43.722656 C 36.28125 43.722656 36.171875 43.699219 36.0625 43.691406 C 35.074219 41.355469 34.074219 39.753906 33.507812 38.933594 C 35.113281 38.109375 36.597656 37.085938 37.921875 35.890625 C 39.308594 36.535156 40.226562 37.984375 40.226562 39.628906 C 40.226562 41.886719 38.503906 43.722656 36.390625 43.722656 Z M 41.519531 23.921875 C 41.519531 14.398438 33.722656 6.648438 24.144531 6.648438 C 14.5625 6.648438 6.769531 14.398438 6.769531 23.921875 C 6.769531 27.25 7.722656 30.355469 9.367188 32.996094 C 8.398438 31.835938 7.566406 30.558594 6.890625 29.191406 C 6.304688 27.386719 6.007812 25.503906 6.007812 23.585938 C 6.007812 13.523438 14.242188 5.335938 24.367188 5.335938 C 34.492188 5.335938 42.726562 13.523438 42.726562 23.585938 C 42.726562 24.519531 42.652344 25.457031 42.511719 26.375 C 41.761719 28.824219 40.527344 31.070312 38.917969 32.996094 C 40.566406 30.355469 41.519531 27.25 41.519531 23.921875 Z M 24.144531 1.738281 C 33.601562 1.738281 41.480469 8.578125 43.050781 17.539062 C 40.484375 9.71875 33.082031 4.050781 24.367188 4.050781 C 14.566406 4.050781 6.417969 11.222656 4.953125 20.5625 C 5.09375 10.160156 13.644531 1.738281 24.144531 1.738281 Z M 1.875 25.015625 L 1.875 20.09375 C 1.875 19.167969 2.632812 18.417969 3.558594 18.417969 L 3.800781 18.417969 C 3.707031 19.207031 3.652344 20.011719 3.652344 20.824219 C 3.652344 22.863281 3.960938 24.832031 4.523438 26.691406 L 3.558594 26.691406 C 2.632812 26.691406 1.875 25.9375 1.875 25.015625 Z M 6.042969 30.359375 C 6.945312 32.042969 8.074219 33.582031 9.394531 34.945312 C 7.796875 35.882812 6.769531 37.652344 6.769531 39.628906 C 6.769531 40.039062 6.816406 40.433594 6.898438 40.816406 C 6.585938 41.320312 6.292969 41.84375 6.015625 42.386719 Z M 8.28125 63.871094 C 7.851562 63.503906 7.664062 62.691406 7.738281 61.515625 C 7.757812 61.160156 7.488281 60.855469 7.128906 60.835938 C 6.773438 60.808594 6.46875 61.082031 6.445312 61.4375 C 6.375 62.574219 6.515625 63.457031 6.863281 64.109375 C 6.589844 64.320312 6.238281 64.394531 5.898438 64.308594 C 5.554688 64.21875 5.273438 63.980469 5.132812 63.652344 C 4.28125 61.652344 3.898438 59.097656 3.925781 56.359375 C 5.210938 56.929688 6.628906 57.222656 8.175781 57.222656 C 8.566406 57.222656 8.972656 57.199219 9.382812 57.160156 C 9.378906 57.285156 9.371094 57.40625 9.367188 57.527344 C 9.34375 58.457031 9.339844 59.347656 9.34375 60.214844 C 9.34375 60.21875 9.339844 60.222656 9.339844 60.230469 C 9.339844 60.234375 9.34375 60.238281 9.34375 60.246094 C 9.347656 61.625 9.378906 62.925781 9.4375 64.140625 C 8.925781 64.179688 8.539062 64.089844 8.28125 63.871094 Z M 9.527344 79.347656 C 9.46875 79.175781 9.324219 78.582031 9.886719 78.15625 C 10.46875 77.714844 11.140625 77.398438 11.941406 77.1875 C 12.109375 77.144531 12.253906 77.035156 12.339844 76.882812 C 12.425781 76.730469 12.445312 76.550781 12.394531 76.386719 C 12.386719 76.355469 11.992188 75 11.578125 72.476562 C 13.335938 72.671875 15.027344 72.777344 16.664062 72.777344 C 18.3125 72.777344 19.90625 72.671875 21.46875 72.472656 C 21.476562 73.523438 21.527344 74.578125 21.613281 75.632812 C 19.328125 75.90625 17.871094 77.550781 17.664062 80.105469 L 10.578125 80.105469 C 9.992188 80.105469 9.652344 79.710938 9.527344 79.347656 Z M 21.617188 79.632812 C 21.351562 79.9375 20.984375 80.105469 20.578125 80.105469 L 18.960938 80.105469 C 19.085938 78.792969 19.667969 77.160156 21.730469 76.90625 C 21.789062 77.449219 21.855469 77.988281 21.9375 78.527344 C 21.996094 78.925781 21.878906 79.328125 21.617188 79.632812 Z M 24.144531 62.761719 C 23.144531 62.761719 22.296875 63.460938 22.128906 64.429688 C 21.730469 66.660156 21.515625 68.914062 21.472656 71.175781 C 18.3125 71.59375 15 71.589844 11.378906 71.160156 C 11.015625 68.59375 10.683594 65.132812 10.640625 60.871094 L 11.75 60.871094 L 11.75 61.679688 C 11.75 63.039062 12.867188 64.148438 14.238281 64.148438 C 15.609375 64.148438 16.726562 63.039062 16.726562 61.679688 L 16.726562 60.871094 L 31.753906 60.871094 L 31.753906 61.171875 C 31.753906 62.15625 32.558594 62.957031 33.550781 62.957031 L 37.601562 62.957031 C 37.488281 66.273438 37.210938 69.027344 36.90625 71.160156 C 33.285156 71.589844 29.972656 71.59375 26.816406 71.175781 C 26.773438 68.914062 26.554688 66.660156 26.160156 64.429688 C 25.988281 63.460938 25.140625 62.761719 24.144531 62.761719 Z M 26.671875 79.632812 C 26.40625 79.328125 26.289062 78.925781 26.351562 78.527344 C 26.429688 77.988281 26.496094 77.445312 26.558594 76.90625 C 28.617188 77.160156 29.199219 78.792969 29.324219 80.105469 L 27.707031 80.105469 C 27.304688 80.105469 26.933594 79.9375 26.671875 79.632812 Z M 38.398438 78.15625 C 38.960938 78.582031 38.816406 79.175781 38.757812 79.347656 C 38.632812 79.710938 38.292969 80.105469 37.707031 80.105469 L 30.621094 80.105469 C 30.414062 77.550781 28.957031 75.90625 26.675781 75.632812 C 26.761719 74.578125 26.808594 73.523438 26.820312 72.472656 C 28.378906 72.671875 29.972656 72.777344 31.621094 72.777344 C 33.257812 72.777344 34.949219 72.671875 36.707031 72.476562 C 36.292969 75 35.902344 76.355469 35.890625 76.386719 C 35.84375 76.550781 35.863281 76.730469 35.949219 76.882812 C 36.035156 77.035156 36.175781 77.144531 36.34375 77.1875 C 37.144531 77.398438 37.816406 77.71875 38.398438 78.15625 Z M 43.148438 63.652344 C 43.011719 63.980469 42.730469 64.21875 42.386719 64.308594 C 42.046875 64.394531 41.695312 64.320312 41.421875 64.109375 C 41.765625 63.457031 41.910156 62.574219 41.839844 61.4375 C 41.816406 61.082031 41.515625 60.808594 41.15625 60.835938 C 40.800781 60.855469 40.527344 61.160156 40.546875 61.515625 C 40.621094 62.691406 40.433594 63.503906 40.003906 63.871094 C 39.746094 64.09375 39.359375 64.179688 38.847656 64.140625 C 38.941406 62.152344 38.976562 59.949219 38.917969 57.53125 C 38.914062 57.40625 38.90625 57.285156 38.902344 57.164062 C 39.3125 57.199219 39.714844 57.226562 40.109375 57.226562 C 41.65625 57.226562 43.074219 56.933594 44.359375 56.359375 C 44.386719 59.101562 44.003906 61.652344 43.148438 63.652344 Z M 41.386719 40.816406 C 41.46875 40.433594 41.519531 40.039062 41.519531 39.628906 C 41.519531 37.65625 40.488281 35.882812 38.890625 34.945312 C 40.210938 33.582031 41.34375 32.042969 42.242188 30.359375 L 42.269531 42.386719 C 41.992188 41.84375 41.699219 41.316406 41.386719 40.816406 Z M 46.410156 25.015625 C 46.410156 25.9375 45.65625 26.691406 44.726562 26.691406 L 43.765625 26.691406 C 43.765625 26.683594 43.769531 26.671875 43.773438 26.664062 C 43.773438 26.65625 43.78125 26.648438 43.78125 26.640625 C 43.78125 26.636719 43.78125 26.628906 43.78125 26.625 C 44.332031 24.785156 44.632812 22.839844 44.632812 20.824219 C 44.632812 20.007812 44.582031 19.207031 44.484375 18.417969 L 44.726562 18.417969 C 45.65625 18.417969 46.410156 19.167969 46.410156 20.089844 Z M 46.410156 25.015625 " fill-opacity="1" fill-rule="nonzero"/></g><path fill="#9e30ff" d="M 24.144531 45.007812 C 22.414062 45.007812 21.007812 46.40625 21.007812 48.125 C 21.007812 49.84375 22.414062 51.238281 24.144531 51.238281 C 25.871094 51.238281 27.277344 49.839844 27.277344 48.125 C 27.277344 46.40625 25.871094 45.007812 24.144531 45.007812 Z M 24.144531 49.953125 C 23.128906 49.953125 22.300781 49.132812 22.300781 48.125 C 22.300781 47.113281 23.128906 46.292969 24.144531 46.292969 C 25.160156 46.292969 25.984375 47.113281 25.984375 48.125 C 25.984375 49.132812 25.160156 49.953125 24.144531 49.953125 Z M 24.144531 49.953125 " fill-opacity="1" fill-rule="nonzero"/><path fill="#9e30ff" d="M 18.886719 10.195312 C 17.660156 10.195312 16.664062 11.1875 16.664062 12.402344 C 16.664062 13.621094 17.660156 14.613281 18.886719 14.613281 C 20.113281 14.613281 21.109375 13.621094 21.109375 12.402344 C 21.109375 11.1875 20.113281 10.195312 18.886719 10.195312 Z M 18.886719 13.328125 C 18.371094 13.328125 17.953125 12.914062 17.953125 12.402344 C 17.953125 11.894531 18.371094 11.480469 18.886719 11.480469 C 19.398438 11.480469 19.816406 11.894531 19.816406 12.402344 C 19.816406 12.914062 19.398438 13.328125 18.886719 13.328125 Z M 18.886719 13.328125 " fill-opacity="1" fill-rule="nonzero"/><path fill="#9e30ff" d="M 14.386719 14.058594 C 14.199219 14.125 14.023438 14.214844 13.867188 14.332031 C 11.761719 15.886719 10.445312 18.117188 9.960938 20.953125 C 9.871094 21.460938 9.988281 21.972656 10.289062 22.390625 C 10.585938 22.8125 11.035156 23.089844 11.542969 23.175781 C 11.652344 23.195312 11.761719 23.203125 11.871094 23.203125 C 12.085938 23.203125 12.300781 23.167969 12.503906 23.097656 C 13.171875 22.867188 13.660156 22.296875 13.78125 21.601562 C 14.097656 19.75 14.882812 18.382812 16.179688 17.425781 C 17.035156 16.792969 17.214844 15.582031 16.582031 14.730469 C 16.074219 14.050781 15.191406 13.785156 14.386719 14.058594 Z M 15.410156 16.394531 C 13.832031 17.558594 12.882812 19.191406 12.507812 21.386719 C 12.46875 21.617188 12.304688 21.808594 12.082031 21.882812 C 12.082031 21.882812 12.082031 21.882812 12.082031 21.886719 C 11.976562 21.921875 11.871094 21.929688 11.761719 21.910156 C 11.589844 21.882812 11.445312 21.789062 11.34375 21.648438 C 11.242188 21.507812 11.203125 21.339844 11.234375 21.167969 C 11.664062 18.667969 12.808594 16.714844 14.640625 15.363281 C 14.691406 15.324219 14.75 15.292969 14.8125 15.273438 C 14.882812 15.246094 14.953125 15.234375 15.027344 15.234375 C 15.226562 15.234375 15.417969 15.328125 15.542969 15.496094 C 15.753906 15.78125 15.695312 16.183594 15.410156 16.394531 Z M 15.410156 16.394531 " fill-opacity="1" fill-rule="nonzero"/></g></g></g><g fill="#9e30ff" fill-opacity="1"><g transform="translate(1.53645, 39.061657)"><g><path d="M 4.125 0 L 1.984375 0 L 1.984375 -15.25 L 1.640625 -16.78125 L 6.65625 -16.78125 C 8.40625 -16.78125 9.785156 -16.367188 10.796875 -15.546875 C 11.804688 -14.722656 12.3125 -13.441406 12.3125 -11.703125 C 12.3125 -10.085938 11.78125 -8.835938 10.71875 -7.953125 C 9.65625 -7.078125 8.3125 -6.640625 6.6875 -6.640625 L 4.125 -6.640625 Z M 4.125 -8.203125 L 6.640625 -8.203125 C 7.703125 -8.203125 8.539062 -8.519531 9.15625 -9.15625 C 9.769531 -9.800781 10.078125 -10.648438 10.078125 -11.703125 C 10.078125 -12.796875 9.78125 -13.648438 9.1875 -14.265625 C 8.59375 -14.878906 7.75 -15.1875 6.65625 -15.1875 L 4.125 -15.1875 Z M 4.125 -8.203125 "/></g></g></g><g fill="#9e30ff" fill-opacity="1"><g transform="translate(15.250565, 39.061657)"><g><path d="M 6.171875 0.296875 C 4.554688 0.296875 3.289062 -0.289062 2.375 -1.46875 C 1.46875 -2.644531 1.015625 -4.0625 1.015625 -5.71875 C 1.015625 -7.363281 1.472656 -8.773438 2.390625 -9.953125 C 3.316406 -11.140625 4.578125 -11.734375 6.171875 -11.734375 C 7.804688 -11.734375 9.078125 -11.148438 9.984375 -9.984375 C 10.898438 -8.816406 11.359375 -7.394531 11.359375 -5.71875 C 11.359375 -4.039062 10.898438 -2.617188 9.984375 -1.453125 C 9.078125 -0.285156 7.804688 0.296875 6.171875 0.296875 Z M 6.171875 -1.15625 C 6.929688 -1.15625 7.554688 -1.40625 8.046875 -1.90625 C 8.546875 -2.414062 8.882812 -2.992188 9.0625 -3.640625 C 9.238281 -4.296875 9.328125 -4.984375 9.328125 -5.703125 C 9.328125 -6.429688 9.234375 -7.125 9.046875 -7.78125 C 8.867188 -8.4375 8.53125 -9.015625 8.03125 -9.515625 C 7.53125 -10.023438 6.910156 -10.28125 6.171875 -10.28125 C 5.441406 -10.28125 4.828125 -10.023438 4.328125 -9.515625 C 3.828125 -9.015625 3.488281 -8.4375 3.3125 -7.78125 C 3.132812 -7.125 3.046875 -6.4375 3.046875 -5.71875 C 3.046875 -5.039062 3.144531 -4.367188 3.34375 -3.703125 C 3.539062 -3.046875 3.890625 -2.457031 4.390625 -1.9375 C 4.890625 -1.414062 5.484375 -1.15625 6.171875 -1.15625 Z M 6.171875 -1.15625 "/></g></g></g><g fill="#9e30ff" fill-opacity="1"><g transform="translate(28.065787, 39.061657)"><g><path d="M 3.78125 0 L 1.859375 0 L 1.859375 -8.296875 C 1.859375 -9.648438 1.613281 -10.6875 1.125 -11.40625 L 3.203125 -11.65625 C 3.484375 -10.976562 3.660156 -10.265625 3.734375 -9.515625 C 4.148438 -10.160156 4.695312 -10.675781 5.375 -11.0625 C 6.050781 -11.457031 6.753906 -11.65625 7.484375 -11.65625 L 7.03125 -9.640625 C 5.78125 -9.640625 4.695312 -8.960938 3.78125 -7.609375 Z M 3.78125 0 "/></g></g></g><g fill="#9e30ff" fill-opacity="1"><g transform="translate(36.570914, 39.061657)"><g><path d="M 6.75 -1.453125 L 7.078125 -0.15625 C 6.171875 0.113281 5.410156 0.25 4.796875 0.25 C 3.859375 0.25 3.1875 0 2.78125 -0.5 C 2.375 -1 2.171875 -1.738281 2.171875 -2.71875 L 2.171875 -10 L 0.46875 -10 L 0.46875 -11.15625 C 1.800781 -11.1875 2.691406 -12.378906 3.140625 -14.734375 L 4.59375 -14.734375 C 4.25 -13.347656 4.078125 -12.253906 4.078125 -11.453125 L 7.078125 -11.453125 L 6.65625 -10 L 4.078125 -10 L 4.078125 -2.671875 C 4.078125 -2.179688 4.164062 -1.816406 4.34375 -1.578125 C 4.519531 -1.335938 4.835938 -1.21875 5.296875 -1.21875 C 5.648438 -1.21875 6.132812 -1.296875 6.75 -1.453125 Z M 6.75 -1.453125 "/></g></g></g><g fill="#9e30ff" fill-opacity="1"><g transform="translate(44.568961, 39.061657)"><g><path d="M 4.265625 -15.296875 C 4.265625 -14.898438 4.128906 -14.566406 3.859375 -14.296875 C 3.585938 -14.023438 3.253906 -13.890625 2.859375 -13.890625 C 2.472656 -13.890625 2.144531 -14.03125 1.875 -14.3125 C 1.601562 -14.59375 1.46875 -14.921875 1.46875 -15.296875 C 1.46875 -15.679688 1.601562 -16.007812 1.875 -16.28125 C 2.144531 -16.5625 2.472656 -16.703125 2.859375 -16.703125 C 3.242188 -16.703125 3.570312 -16.5625 3.84375 -16.28125 C 4.125 -16.007812 4.265625 -15.679688 4.265625 -15.296875 Z M 3.84375 0 L 1.9375 0 L 1.9375 -10.09375 C 1.9375 -10.113281 1.910156 -10.222656 1.859375 -10.421875 C 1.816406 -10.628906 1.769531 -10.84375 1.71875 -11.0625 C 1.675781 -11.289062 1.65625 -11.421875 1.65625 -11.453125 L 3.84375 -11.453125 Z M 3.84375 0 "/></g></g></g><g fill="#9e30ff" fill-opacity="1"><g transform="translate(50.815319, 39.061657)"><g><path d="M 4.078125 0 L 2.1875 0 L 2.1875 -10.03125 L 0.46875 -10.03125 L 0.46875 -11.21875 C 0.507812 -11.21875 0.640625 -11.226562 0.859375 -11.25 C 1.085938 -11.28125 1.25 -11.304688 1.34375 -11.328125 C 1.445312 -11.347656 1.546875 -11.378906 1.640625 -11.421875 C 1.742188 -11.460938 1.835938 -11.515625 1.921875 -11.578125 C 2.003906 -11.648438 2.066406 -11.734375 2.109375 -11.828125 C 2.160156 -11.921875 2.203125 -12.023438 2.234375 -12.140625 C 2.285156 -12.328125 2.367188 -12.8125 2.484375 -13.59375 C 2.710938 -14.84375 3.210938 -15.847656 3.984375 -16.609375 C 4.753906 -17.367188 5.753906 -17.75 6.984375 -17.75 C 7.796875 -17.75 8.539062 -17.554688 9.21875 -17.171875 L 8.6875 -15.734375 C 8.257812 -16.117188 7.707031 -16.3125 7.03125 -16.3125 C 6.394531 -16.3125 5.863281 -16.160156 5.4375 -15.859375 C 5.019531 -15.566406 4.71875 -15.148438 4.53125 -14.609375 C 4.351562 -14.078125 4.234375 -13.570312 4.171875 -13.09375 C 4.109375 -12.613281 4.078125 -12.066406 4.078125 -11.453125 L 7.375 -11.453125 L 6.953125 -10.03125 L 4.078125 -10.03125 Z M 4.078125 0 "/></g></g></g><g fill="#9e30ff" fill-opacity="1"><g transform="translate(57.914474, 39.061657)"><g><path d="M 7.515625 -13.15625 L 5.71875 -13.15625 L 7.921875 -16.65625 L 10.734375 -16.65625 Z M 6.171875 0.296875 C 4.554688 0.296875 3.289062 -0.289062 2.375 -1.46875 C 1.46875 -2.644531 1.015625 -4.0625 1.015625 -5.71875 C 1.015625 -7.363281 1.472656 -8.773438 2.390625 -9.953125 C 3.316406 -11.140625 4.578125 -11.734375 6.171875 -11.734375 C 7.804688 -11.734375 9.078125 -11.148438 9.984375 -9.984375 C 10.898438 -8.816406 11.359375 -7.394531 11.359375 -5.71875 C 11.359375 -4.039062 10.898438 -2.617188 9.984375 -1.453125 C 9.078125 -0.285156 7.804688 0.296875 6.171875 0.296875 Z M 6.171875 -1.15625 C 6.929688 -1.15625 7.554688 -1.40625 8.046875 -1.90625 C 8.546875 -2.414062 8.882812 -2.992188 9.0625 -3.640625 C 9.238281 -4.296875 9.328125 -4.984375 9.328125 -5.703125 C 9.328125 -6.429688 9.234375 -7.125 9.046875 -7.78125 C 8.867188 -8.4375 8.53125 -9.015625 8.03125 -9.515625 C 7.53125 -10.023438 6.910156 -10.28125 6.171875 -10.28125 C 5.441406 -10.28125 4.828125 -10.023438 4.328125 -9.515625 C 3.828125 -9.015625 3.488281 -8.4375 3.3125 -7.78125 C 3.132812 -7.125 3.046875 -6.4375 3.046875 -5.71875 C 3.046875 -5.039062 3.144531 -4.367188 3.34375 -3.703125 C 3.539062 -3.046875 3.890625 -2.457031 4.390625 -1.9375 C 4.890625 -1.414062 5.484375 -1.15625 6.171875 -1.15625 Z M 6.171875 -1.15625 "/></g></g></g><g fill="#9e30ff" fill-opacity="1"><g transform="translate(70.729695, 39.061657)"><g><path d="M 3.84375 0 L 1.9375 0 L 1.9375 -16.21875 C 1.9375 -16.238281 1.910156 -16.347656 1.859375 -16.546875 C 1.816406 -16.742188 1.769531 -16.953125 1.71875 -17.171875 C 1.664062 -17.398438 1.640625 -17.53125 1.640625 -17.5625 L 3.84375 -17.5625 Z M 3.84375 0 "/></g></g></g><g fill="#9e30ff" fill-opacity="1"><g transform="translate(76.97605, 39.061657)"><g><path d="M 4.265625 -15.296875 C 4.265625 -14.898438 4.128906 -14.566406 3.859375 -14.296875 C 3.585938 -14.023438 3.253906 -13.890625 2.859375 -13.890625 C 2.472656 -13.890625 2.144531 -14.03125 1.875 -14.3125 C 1.601562 -14.59375 1.46875 -14.921875 1.46875 -15.296875 C 1.46875 -15.679688 1.601562 -16.007812 1.875 -16.28125 C 2.144531 -16.5625 2.472656 -16.703125 2.859375 -16.703125 C 3.242188 -16.703125 3.570312 -16.5625 3.84375 -16.28125 C 4.125 -16.007812 4.265625 -15.679688 4.265625 -15.296875 Z M 3.84375 0 L 1.9375 0 L 1.9375 -10.09375 C 1.9375 -10.113281 1.910156 -10.222656 1.859375 -10.421875 C 1.816406 -10.628906 1.769531 -10.84375 1.71875 -11.0625 C 1.675781 -11.289062 1.65625 -11.421875 1.65625 -11.453125 L 3.84375 -11.453125 Z M 3.84375 0 "/></g></g></g><g fill="#9e30ff" fill-opacity="1"><g transform="translate(83.222405, 39.061657)"><g><path d="M 6.171875 0.296875 C 4.554688 0.296875 3.289062 -0.289062 2.375 -1.46875 C 1.46875 -2.644531 1.015625 -4.0625 1.015625 -5.71875 C 1.015625 -7.363281 1.472656 -8.773438 2.390625 -9.953125 C 3.316406 -11.140625 4.578125 -11.734375 6.171875 -11.734375 C 7.804688 -11.734375 9.078125 -11.148438 9.984375 -9.984375 C 10.898438 -8.816406 11.359375 -7.394531 11.359375 -5.71875 C 11.359375 -4.039062 10.898438 -2.617188 9.984375 -1.453125 C 9.078125 -0.285156 7.804688 0.296875 6.171875 0.296875 Z M 6.171875 -1.15625 C 6.929688 -1.15625 7.554688 -1.40625 8.046875 -1.90625 C 8.546875 -2.414062 8.882812 -2.992188 9.0625 -3.640625 C 9.238281 -4.296875 9.328125 -4.984375 9.328125 -5.703125 C 9.328125 -6.429688 9.234375 -7.125 9.046875 -7.78125 C 8.867188 -8.4375 8.53125 -9.015625 8.03125 -9.515625 C 7.53125 -10.023438 6.910156 -10.28125 6.171875 -10.28125 C 5.441406 -10.28125 4.828125 -10.023438 4.328125 -9.515625 C 3.828125 -9.015625 3.488281 -8.4375 3.3125 -7.78125 C 3.132812 -7.125 3.046875 -6.4375 3.046875 -5.71875 C 3.046875 -5.039062 3.144531 -4.367188 3.34375 -3.703125 C 3.539062 -3.046875 3.890625 -2.457031 4.390625 -1.9375 C 4.890625 -1.414062 5.484375 -1.15625 6.171875 -1.15625 Z M 6.171875 -1.15625 "/></g></g></g><g mask="url(#id12)"><g transform="matrix(1, 0, 0, 1, 1, 36)"><g clip-path="url(#id13)"><g fill="#9e30ff" fill-opacity="1"><g transform="translate(0.331518, 78.47475)"><g><path d="M 3.074219 -26.898438 C 3.074219 -11.144531 15.371094 1.152344 31.511719 1.152344 C 46.113281 1.152344 53.03125 -7.300781 53.03125 -7.300781 L 43.808594 -21.902344 C 43.808594 -21.902344 39.195312 -17.675781 33.816406 -17.675781 C 28.4375 -17.675781 24.59375 -21.519531 24.59375 -26.898438 C 24.59375 -32.277344 28.4375 -36.121094 33.816406 -36.121094 C 39.195312 -36.121094 43.808594 -31.894531 43.808594 -31.894531 L 53.03125 -46.496094 C 53.03125 -46.496094 46.113281 -54.953125 31.511719 -54.953125 C 15.371094 -54.953125 3.074219 -42.65625 3.074219 -26.898438 Z M 3.074219 -26.898438 "/></g></g></g><g fill="#9e30ff" fill-opacity="1"><g transform="translate(54.897633, 78.47475)"><g><path d="M 42.65625 -53.796875 L 16.523438 -53.796875 L 0.769531 0 L 23.054688 0 L 24.59375 -7.683594 L 34.585938 -7.683594 L 36.121094 0 L 58.410156 0 C 58.410156 0 42.730469 -53.492188 42.65625 -53.796875 Z M 26.898438 -19.980469 L 29.589844 -33.816406 L 32.277344 -19.980469 Z M 26.898438 -19.980469 "/></g></g></g><g fill="#9e30ff" fill-opacity="1"><g transform="translate(114.074975, 78.47475)"><g><path d="M 24.59375 -53.796875 L 4.609375 -53.796875 L 4.609375 0 L 24.59375 0 Z M 24.59375 -53.796875 "/></g></g></g><g fill="#9e30ff" fill-opacity="1"><g transform="translate(143.279382, 78.47475)"><g><path d="M 41.5 -26.898438 C 41.5 -21.519531 37.660156 -17.675781 33.046875 -17.675781 C 28.4375 -17.675781 24.59375 -21.519531 24.59375 -26.898438 C 24.59375 -32.277344 28.4375 -36.121094 33.046875 -36.121094 C 37.660156 -36.121094 41.5 -32.277344 41.5 -26.898438 Z M 63.019531 -26.898438 C 63.019531 -42.65625 50.722656 -54.953125 33.046875 -54.953125 C 15.371094 -54.953125 3.074219 -42.65625 3.074219 -26.898438 C 3.074219 -11.144531 15.371094 1.152344 33.046875 1.152344 C 50.722656 1.152344 63.019531 -11.144531 63.019531 -26.898438 Z M 63.019531 -26.898438 "/></g></g></g><g fill="#9e30ff" fill-opacity="1"><g transform="translate(209.373551, 78.47475)"><g/></g></g><g fill="#9e30ff" fill-opacity="1"><g transform="translate(224.74429, 78.47475)"><g><path d="M 57.640625 0 L 44.574219 -20.75 C 44.574219 -20.75 51.492188 -24.59375 51.492188 -35.738281 C 51.492188 -46.882812 43.808594 -54.566406 26.898438 -54.566406 C 15.371094 -54.566406 4.609375 -53.796875 4.609375 -53.796875 L 4.609375 0 L 24.59375 0 L 24.59375 -17.675781 L 25.363281 -17.675781 L 34.585938 0 Z M 24.59375 -31.511719 L 24.59375 -39.964844 L 26.898438 -39.964844 C 29.589844 -39.964844 31.511719 -38.042969 31.511719 -35.738281 C 31.511719 -33.433594 29.589844 -31.511719 26.898438 -31.511719 Z M 24.59375 -31.511719 "/></g></g></g><g fill="#9e30ff" fill-opacity="1"><g transform="translate(280.847477, 78.47475)"><g><path d="M 24.59375 -19.214844 L 44.574219 -19.214844 L 44.574219 -34.585938 L 24.59375 -34.585938 L 24.59375 -38.425781 L 46.113281 -38.425781 L 46.113281 -53.796875 L 4.609375 -53.796875 L 4.609375 0 L 47.648438 0 L 47.648438 -15.371094 L 24.59375 -15.371094 Z M 24.59375 -19.214844 "/></g></g></g><g fill="#9e30ff" fill-opacity="1"><g transform="translate(330.802378, 78.47475)"><g><path d="M 24.59375 -53.796875 L 4.609375 -53.796875 L 4.609375 0 L 24.59375 0 Z M 24.59375 -53.796875 "/></g></g></g><g fill="#9e30ff" fill-opacity="1"><g transform="translate(360.006797, 78.47475)"><g><path d="M 21.136719 -14.601562 C 13.449219 -14.601562 8.070312 -19.597656 8.070312 -19.597656 L 0.769531 -8.070312 C 0.769531 -8.070312 7.683594 1.152344 24.59375 1.152344 C 38.042969 1.152344 46.496094 -7.300781 46.496094 -16.140625 C 46.496094 -33.046875 25.746094 -33.046875 25.746094 -36.890625 C 25.746094 -38.042969 26.898438 -39.195312 28.820312 -39.195312 C 34.199219 -39.195312 38.8125 -34.96875 38.8125 -34.96875 L 46.113281 -46.496094 C 46.113281 -46.496094 39.195312 -54.953125 25.363281 -54.953125 C 11.914062 -54.953125 3.457031 -46.496094 3.457031 -37.660156 C 3.457031 -20.75 24.210938 -20.75 24.210938 -16.90625 C 24.210938 -15.753906 23.054688 -14.601562 21.136719 -14.601562 Z M 21.136719 -14.601562 "/></g></g></g></g></g></g></svg>