<svg xmlns="http://www.w3.org/2000/svg" xmlns:xlink="http://www.w3.org/1999/xlink" width="1920" zoomAndPan="magnify" viewBox="0 0 1440 809.999993" height="1080" preserveAspectRatio="xMidYMid meet" version="1.0"><defs><filter x="0%" y="0%" width="100%" height="100%" id="id1"><feColorMatrix values="0 0 0 0 1 0 0 0 0 1 0 0 0 0 1 0 0 0 1 0" color-interpolation-filters="sRGB"/></filter><clipPath id="id2"><path d="M 1335 491 L 1415.332031 491 L 1415.332031 519 L 1335 519 Z M 1335 491 " clip-rule="nonzero"/></clipPath><mask id="id3"><g filter="url(#id1)"><rect x="-144" width="1728" fill="#000000" y="-80.999999" height="971.999992" fill-opacity="0.3765"/></g></mask><clipPath id="id4"><path d="M 84 116 L 108.519531 116 L 108.519531 162 L 84 162 Z M 84 116 " clip-rule="nonzero"/></clipPath><clipPath id="id5"><path d="M 30 129 L 91 129 L 91 199.71875 L 30 199.71875 Z M 30 129 " clip-rule="nonzero"/></clipPath><clipPath id="id6"><rect x="0" width="109" y="0" height="200"/></clipPath><clipPath id="id7"><path d="M 696.082031 491 L 777 491 L 777 519 L 696.082031 519 Z M 696.082031 491 " clip-rule="nonzero"/></clipPath><clipPath id="id8"><path d="M 1335 596 L 1415.332031 596 L 1415.332031 623 L 1335 623 Z M 1335 596 " clip-rule="nonzero"/></clipPath><clipPath id="id9"><path d="M 950 787 L 1248 787 L 1248 789.4375 L 950 789.4375 Z M 950 787 " clip-rule="nonzero"/></clipPath><clipPath id="id10"><path d="M 853 265.9375 L 871 265.9375 L 871 284 L 853 284 Z M 853 265.9375 " clip-rule="nonzero"/></clipPath><clipPath id="id11"><path d="M 883 265.9375 L 901 265.9375 L 901 284 L 883 284 Z M 883 265.9375 " clip-rule="nonzero"/></clipPath><clipPath id="id12"><path d="M 912 265.9375 L 930 265.9375 L 930 284 L 912 284 Z M 912 265.9375 " clip-rule="nonzero"/></clipPath><mask id="id13"><g filter="url(#id1)"><rect x="-144" width="1728" fill="#000000" y="-80.999999" height="971.999992" fill-opacity="0.6275"/></g></mask><clipPath id="id14"><path d="M 4.246094 0.707031 L 1405.996094 0.707031 L 1405.996094 149.207031 L 4.246094 149.207031 Z M 4.246094 0.707031 " clip-rule="nonzero"/></clipPath><clipPath id="id15"><rect x="0" width="1406" y="0" height="153"/></clipPath></defs><path fill="#f2f2f2" d="M 1232.828125 606.820312 C 1233.96875 606.871094 1234.9375 605.988281 1234.988281 604.847656 C 1235.019531 604.238281 1234.777344 603.644531 1234.328125 603.230469 L 1234.1875 602.667969 L 1234.242188 602.53125 C 1235.4375 599.707031 1238.699219 598.386719 1241.527344 599.582031 C 1242.867188 600.148438 1243.933594 601.222656 1244.492188 602.570312 C 1246.167969 606.609375 1248.304688 610.652344 1248.828125 614.921875 C 1249.0625 616.8125 1248.964844 618.722656 1248.539062 620.578125 C 1252.476562 611.988281 1254.523438 602.652344 1254.535156 593.203125 C 1254.535156 590.828125 1254.40625 588.460938 1254.140625 586.105469 C 1253.921875 584.171875 1253.621094 582.253906 1253.234375 580.347656 C 1251.125 570.015625 1246.59375 560.332031 1240.011719 552.089844 C 1236.828125 550.351562 1234.253906 547.679688 1232.632812 544.433594 C 1232.046875 543.265625 1231.632812 542.019531 1231.402344 540.734375 C 1231.761719 540.78125 1232.125 540.808594 1232.484375 540.832031 C 1232.597656 540.839844 1232.714844 540.84375 1232.828125 540.851562 L 1232.871094 540.851562 C 1234 540.902344 1234.957031 540.027344 1235.007812 538.894531 C 1235.03125 538.394531 1234.871094 537.902344 1234.554688 537.511719 C 1234.398438 537.320312 1234.242188 537.128906 1234.085938 536.941406 C 1233.851562 536.644531 1233.609375 536.355469 1233.375 536.0625 C 1233.347656 536.035156 1233.324219 536.003906 1233.296875 535.972656 C 1233.027344 535.636719 1232.757812 535.308594 1232.484375 534.972656 C 1232.980469 534.207031 1233.644531 533.5625 1234.429688 533.09375 C 1237.144531 531.503906 1240.890625 532.605469 1242.851562 535.0625 C 1244.710938 537.65625 1245.320312 540.945312 1244.507812 544.03125 C 1243.835938 546.644531 1242.722656 549.121094 1241.21875 551.359375 C 1241.367188 551.546875 1241.519531 551.730469 1241.667969 551.917969 C 1244.359375 555.378906 1246.703125 559.097656 1248.671875 563.015625 C 1248.191406 558.625 1248.765625 554.183594 1250.335938 550.058594 C 1251.929688 546.210938 1254.917969 542.972656 1257.550781 539.648438 C 1259.492188 537.152344 1263.089844 536.707031 1265.585938 538.648438 C 1266.78125 539.582031 1267.558594 540.953125 1267.75 542.460938 L 1267.765625 542.605469 C 1267.375 542.828125 1266.992188 543.0625 1266.617188 543.308594 C 1265.328125 544.167969 1264.980469 545.914062 1265.839844 547.203125 C 1266.277344 547.855469 1266.96875 548.296875 1267.746094 548.417969 L 1267.804688 548.425781 C 1267.664062 549.835938 1267.417969 551.230469 1267.070312 552.601562 C 1265.015625 560.339844 1259.824219 566.871094 1252.75 570.625 C 1252.523438 570.742188 1252.296875 570.859375 1252.070312 570.972656 C 1254.042969 576.570312 1255.285156 582.40625 1255.753906 588.324219 C 1256.023438 591.816406 1256.007812 595.324219 1255.707031 598.816406 L 1255.726562 598.691406 C 1256.480469 594.808594 1258.550781 591.308594 1261.585938 588.777344 C 1266.09375 585.074219 1272.464844 583.707031 1277.332031 580.730469 C 1278.828125 579.769531 1280.820312 580.203125 1281.78125 581.703125 C 1282.195312 582.34375 1282.367188 583.109375 1282.265625 583.863281 L 1282.246094 583.996094 C 1281.519531 584.289062 1280.816406 584.632812 1280.132812 585.015625 C 1279.742188 585.234375 1279.359375 585.46875 1278.984375 585.714844 C 1277.695312 586.578125 1277.347656 588.320312 1278.210938 589.609375 C 1278.648438 590.265625 1279.339844 590.703125 1280.117188 590.824219 L 1280.171875 590.832031 C 1280.214844 590.839844 1280.25 590.84375 1280.289062 590.851562 C 1279.050781 593.808594 1277.3125 596.535156 1275.148438 598.902344 C 1269.75 604.699219 1262.199219 608.011719 1254.277344 608.0625 L 1254.269531 608.0625 C 1253.207031 612.683594 1251.664062 617.1875 1249.671875 621.492188 L 1233.238281 621.492188 C 1233.179688 621.308594 1233.128906 621.121094 1233.074219 620.9375 C 1234.59375 621.03125 1236.121094 620.941406 1237.621094 620.667969 C 1236.402344 619.171875 1235.183594 617.664062 1233.964844 616.167969 C 1233.9375 616.136719 1233.910156 616.109375 1233.886719 616.078125 C 1233.269531 615.3125 1232.644531 614.550781 1232.027344 613.785156 C 1231.992188 611.4375 1232.261719 609.097656 1232.828125 606.820312 Z M 1232.828125 606.820312 " fill-opacity="1" fill-rule="nonzero"/><path fill="#2f2e41" d="M 1183.117188 456.058594 C 1183.117188 465.105469 1187.644531 474.3125 1196.6875 474.3125 C 1205.734375 474.3125 1218.214844 467.757812 1215.40625 453.71875 C 1213.632812 444.851562 1208.542969 439.679688 1199.496094 439.679688 C 1190.453125 439.679688 1183.117188 447.015625 1183.117188 456.058594 Z M 1183.117188 456.058594 " fill-opacity="1" fill-rule="nonzero"/><path fill="#a0616a" d="M 1221.0625 585.300781 C 1219.199219 583.238281 1219.363281 580.050781 1221.429688 578.191406 C 1221.648438 577.992188 1221.886719 577.8125 1222.140625 577.65625 L 1218.179688 560.203125 L 1226.882812 563.480469 L 1229.308594 579.550781 C 1230.625 582.015625 1229.695312 585.082031 1227.230469 586.402344 C 1225.167969 587.503906 1222.617188 587.050781 1221.0625 585.300781 Z M 1221.0625 585.300781 " fill-opacity="1" fill-rule="nonzero"/><path fill="#e6e6e6" d="M 1202.589844 523.445312 L 1208.664062 524.0625 C 1208.664062 524.0625 1207.074219 533.0625 1209.558594 535.089844 C 1212.042969 537.117188 1211.042969 537.105469 1211.027344 538.609375 C 1211.179688 540.789062 1212.253906 542.800781 1213.980469 544.144531 C 1215.96875 545.667969 1220.101562 572.765625 1220.101562 572.765625 L 1229.117188 572.851562 C 1228.847656 570.519531 1228.871094 568.164062 1229.183594 565.839844 C 1229.71875 562.339844 1232.417969 553.523438 1231.433594 552.011719 C 1230.445312 550.5 1230.964844 547.71875 1230.992188 544.714844 C 1231.023438 541.710938 1226.722656 545.027344 1226.773438 540.019531 C 1226.820312 535.015625 1221.308594 503.589844 1221.851562 499.089844 C 1222.394531 494.585938 1216.925781 490.527344 1216.925781 490.527344 L 1211.917969 490.480469 Z M 1202.589844 523.445312 " fill-opacity="1" fill-rule="nonzero"/><path fill="#a0616a" d="M 1138.101562 481.183594 C 1137.53125 483.753906 1139.148438 486.304688 1141.722656 486.878906 C 1141.996094 486.9375 1142.277344 486.976562 1142.554688 486.988281 L 1147.429688 503.226562 L 1153.082031 496.46875 L 1147.585938 482.082031 C 1147.523438 479.433594 1145.324219 477.335938 1142.675781 477.398438 C 1140.460938 477.453125 1138.570312 479.015625 1138.101562 481.183594 Z M 1138.101562 481.183594 " fill-opacity="1" fill-rule="nonzero"/><path fill="#e6e6e6" d="M 1189.550781 486.472656 C 1189.550781 486.472656 1177.769531 482.054688 1171.382812 506.246094 L 1162.902344 515.027344 L 1155.78125 502.15625 L 1156.722656 499.101562 L 1151.21875 486.621094 L 1141.777344 492.039062 L 1144.101562 500.609375 L 1143.710938 504.84375 L 1145.964844 507.480469 L 1149.65625 521.097656 L 1151.964844 525.542969 C 1151.964844 525.542969 1154.878906 531.242188 1159.964844 532.179688 C 1161.320312 532.433594 1162.707031 532.472656 1164.074219 532.296875 C 1167.324219 531.785156 1170.339844 530.28125 1172.699219 527.988281 C 1178.988281 522.382812 1184.933594 516.402344 1190.503906 510.085938 Z M 1189.550781 486.472656 " fill-opacity="1" fill-rule="nonzero"/><path fill="#a0616a" d="M 1205.351562 526.980469 L 1206.183594 530.953125 L 1206.890625 545.601562 L 1178.425781 541.746094 L 1176.238281 524.785156 L 1179.261719 519.820312 Z M 1205.351562 526.980469 " fill-opacity="1" fill-rule="nonzero"/><path fill="#a0616a" d="M 1209.589844 460.601562 C 1209.589844 461.484375 1209.503906 462.359375 1209.332031 463.230469 C 1209.15625 464.097656 1208.902344 464.9375 1208.5625 465.757812 C 1208.226562 466.574219 1207.808594 467.351562 1207.320312 468.085938 C 1206.828125 468.820312 1206.269531 469.503906 1205.644531 470.128906 C 1205.019531 470.753906 1204.335938 471.3125 1203.601562 471.804688 C 1202.867188 472.292969 1202.089844 472.710938 1201.273438 473.046875 C 1200.457031 473.386719 1199.613281 473.640625 1198.746094 473.816406 C 1197.878906 473.988281 1197 474.074219 1196.117188 474.074219 C 1195.230469 474.074219 1194.355469 473.988281 1193.488281 473.816406 C 1192.621094 473.640625 1191.777344 473.386719 1190.960938 473.046875 C 1190.144531 472.710938 1189.367188 472.292969 1188.632812 471.804688 C 1187.894531 471.3125 1187.214844 470.753906 1186.589844 470.128906 C 1185.964844 469.503906 1185.40625 468.820312 1184.914062 468.085938 C 1184.421875 467.351562 1184.007812 466.574219 1183.667969 465.757812 C 1183.332031 464.9375 1183.074219 464.097656 1182.902344 463.230469 C 1182.730469 462.359375 1182.644531 461.484375 1182.644531 460.601562 C 1182.644531 459.714844 1182.730469 458.839844 1182.902344 457.972656 C 1183.074219 457.105469 1183.332031 456.261719 1183.667969 455.445312 C 1184.007812 454.625 1184.421875 453.851562 1184.914062 453.113281 C 1185.40625 452.378906 1185.964844 451.699219 1186.589844 451.074219 C 1187.214844 450.449219 1187.894531 449.890625 1188.632812 449.398438 C 1189.367188 448.90625 1190.144531 448.492188 1190.960938 448.152344 C 1191.777344 447.8125 1192.621094 447.558594 1193.488281 447.386719 C 1194.355469 447.214844 1195.230469 447.125 1196.117188 447.125 C 1197 447.125 1197.878906 447.214844 1198.746094 447.386719 C 1199.613281 447.558594 1200.457031 447.8125 1201.273438 448.152344 C 1202.089844 448.492188 1202.867188 448.90625 1203.601562 449.398438 C 1204.335938 449.890625 1205.019531 450.449219 1205.644531 451.074219 C 1206.269531 451.699219 1206.828125 452.378906 1207.320312 453.113281 C 1207.808594 453.851562 1208.226562 454.625 1208.5625 455.445312 C 1208.902344 456.261719 1209.15625 457.105469 1209.332031 457.972656 C 1209.503906 458.839844 1209.589844 459.714844 1209.589844 460.601562 Z M 1209.589844 460.601562 " fill-opacity="1" fill-rule="nonzero"/><path fill="#e6e6e6" d="M 1218.691406 492.109375 C 1216.46875 486.863281 1211.867188 483 1206.316406 481.71875 L 1206.265625 481.710938 L 1203.597656 478.117188 L 1192.773438 479.203125 L 1190.796875 483.261719 L 1185.664062 486.316406 L 1185.652344 486.316406 L 1185.644531 486.324219 L 1182.953125 487.929688 L 1174.039062 498.367188 L 1174.027344 498.375 C 1171.382812 500.144531 1169.585938 502.925781 1169.070312 506.066406 C 1168.933594 506.960938 1168.890625 507.871094 1168.9375 508.773438 C 1169.230469 514.324219 1172.699219 519.265625 1173.175781 519.921875 L 1174.34375 526.488281 L 1174.578125 527.835938 L 1176.675781 528.140625 L 1206.253906 532.371094 L 1207.074219 532.492188 L 1207.320312 532.523438 L 1208.171875 530.320312 L 1208.171875 530.300781 L 1216.417969 508.722656 L 1220.121094 499.097656 C 1220.128906 496.695312 1219.644531 494.3125 1218.691406 492.109375 Z M 1218.691406 492.109375 " fill-opacity="1" fill-rule="nonzero"/><path fill="#2f2e41" d="M 1210.214844 464.132812 C 1210.09375 464.113281 1209.972656 464.085938 1209.851562 464.066406 C 1207.75 463.695312 1205.648438 463.328125 1203.550781 462.949219 L 1203.359375 458.199219 L 1200.820312 462.453125 C 1195.03125 464.375 1189.613281 463.289062 1184.515625 460.894531 C 1182.835938 460.09375 1181.203125 459.195312 1179.632812 458.199219 C 1178.535156 451.511719 1181.300781 446.238281 1188.402344 445.5625 C 1188.625 445.542969 1188.78125 445.359375 1188.976562 445.261719 L 1188.980469 445.253906 C 1189.308594 445.101562 1189.644531 444.953125 1189.976562 444.820312 C 1195.320312 442.730469 1201.382812 443.90625 1205.558594 447.839844 C 1209.773438 452.128906 1211.527344 458.261719 1210.214844 464.132812 Z M 1210.214844 464.132812 " fill-opacity="1" fill-rule="nonzero"/><path fill="#cccccc" d="M 1223.488281 572.796875 C 1222.890625 568.816406 1221.914062 564.902344 1220.566406 561.109375 L 1220.566406 561.097656 C 1219.4375 557.890625 1218.035156 554.789062 1216.367188 551.828125 C 1216.363281 551.828125 1216.355469 551.824219 1216.355469 551.816406 C 1213.957031 547.351562 1210.828125 543.320312 1207.097656 539.886719 L 1206.699219 539.472656 L 1206.597656 539.472656 L 1178.035156 538.773438 L 1177.742188 538.773438 L 1177.417969 538.761719 C 1177.417969 538.761719 1177.292969 539.117188 1177.0625 539.785156 C 1177.050781 539.828125 1177.039062 539.867188 1177.019531 539.90625 C 1176.941406 540.171875 1176.839844 540.476562 1176.714844 540.808594 C 1176.644531 541.035156 1176.566406 541.265625 1176.484375 541.519531 C 1176.390625 541.792969 1176.289062 542.078125 1176.1875 542.382812 C 1175.398438 544.746094 1174.242188 548.175781 1172.820312 552.425781 C 1172.609375 553.074219 1172.386719 553.746094 1172.152344 554.445312 C 1166.734375 570.746094 1158.023438 597.386719 1150.414062 622.632812 L 1177.394531 622.632812 C 1180.011719 615.066406 1182.792969 604.273438 1182.792969 604.273438 C 1183.878906 602.984375 1183.816406 599.484375 1183.816406 599.484375 L 1192.296875 590.578125 L 1198.402344 622.632812 L 1224.027344 622.632812 L 1224.21875 586.957031 L 1224.21875 586.652344 C 1224.417969 582.019531 1224.171875 577.378906 1223.488281 572.796875 Z M 1223.488281 572.796875 " fill-opacity="1" fill-rule="nonzero"/><path fill="#2f2e41" d="M 1205.054688 444.921875 L 1205.054688 444.933594 C 1205.050781 445.636719 1205.144531 446.339844 1205.320312 447.023438 C 1205.351562 447.140625 1205.382812 447.265625 1205.425781 447.386719 L 1205.425781 447.390625 C 1206.199219 449.863281 1208.085938 451.824219 1210.519531 452.699219 C 1210.695312 452.765625 1210.878906 452.824219 1211.0625 452.875 C 1211.445312 452.988281 1211.835938 453.066406 1212.234375 453.113281 C 1212.589844 453.164062 1212.949219 453.191406 1213.308594 453.1875 C 1213.589844 453.191406 1213.871094 453.175781 1214.152344 453.148438 C 1214.808594 453.082031 1215.453125 452.933594 1216.070312 452.710938 C 1216.167969 452.683594 1216.261719 452.648438 1216.355469 452.609375 C 1216.402344 452.589844 1216.449219 452.574219 1216.492188 452.550781 C 1220.703125 450.789062 1222.6875 445.945312 1220.925781 441.734375 C 1220.871094 441.609375 1220.816406 441.484375 1220.757812 441.363281 L 1220.75 441.355469 C 1220.347656 440.507812 1219.796875 439.738281 1219.128906 439.078125 C 1217.636719 437.59375 1216.980469 433.867188 1214.714844 433.867188 C 1214.605469 433.867188 1214.496094 433.871094 1214.390625 433.878906 C 1212.867188 433.929688 1210.058594 437.210938 1208.863281 437.984375 C 1207.976562 438.546875 1207.207031 439.277344 1206.597656 440.132812 C 1205.960938 441.011719 1205.507812 442.011719 1205.265625 443.070312 C 1205.125 443.675781 1205.054688 444.296875 1205.054688 444.921875 Z M 1205.054688 444.921875 " fill-opacity="1" fill-rule="nonzero"/><path fill="#2f2e41" d="M 1215.140625 442.046875 C 1216.421875 443.539062 1218.429688 444.117188 1220.242188 444.894531 C 1226.730469 447.742188 1231.394531 453.609375 1232.707031 460.574219 C 1233.207031 463.367188 1233.144531 466.257812 1233.933594 468.980469 C 1234.71875 471.707031 1236.667969 474.378906 1239.460938 474.851562 C 1241.351562 475.171875 1243.246094 474.445312 1245.023438 473.722656 C 1246 473.328125 1246.980469 472.933594 1247.957031 472.539062 C 1246.9375 469.980469 1245.917969 467.417969 1244.902344 464.859375 C 1246.535156 467.273438 1248.4375 469.5 1250.570312 471.492188 C 1254.074219 470.078125 1257.582031 468.664062 1261.09375 467.25 C 1252.453125 467.285156 1253.929688 458.898438 1251.996094 450.484375 C 1250.933594 445.859375 1241.886719 442.730469 1240.113281 438.332031 C 1237.34375 431.433594 1229.507812 428.089844 1222.613281 430.859375 C 1219.640625 432.050781 1217.191406 434.265625 1215.707031 437.105469 C 1213.933594 437.8125 1213.882812 440.570312 1215.140625 442.046875 Z M 1215.140625 442.046875 " fill-opacity="1" fill-rule="nonzero"/><path fill="#cccccc" d="M 1178.453125 540.820312 C 1174.417969 541.875 1171.152344 544.832031 1169.710938 548.742188 C 1169.199219 549.847656 1169.210938 551.125 1169.746094 552.21875 C 1170.164062 553 1171.09375 553.351562 1171.925781 553.042969 C 1172.757812 552.59375 1173.425781 551.886719 1173.820312 551.023438 C 1174.402344 549.921875 1174.902344 548.773438 1175.316406 547.597656 C 1175.992188 545.820312 1177.4375 542.851562 1175.375 541.464844 C 1173.636719 540.292969 1171.339844 540.75 1169.386719 540.667969 C 1167.273438 540.582031 1164.929688 539.773438 1164.179688 537.585938 C 1163.449219 535.457031 1165.160156 533.457031 1167.003906 532.644531 C 1169.253906 531.714844 1171.820312 531.957031 1173.851562 533.296875 C 1175.832031 534.671875 1177.246094 536.714844 1177.832031 539.050781 C 1177.921875 539.429688 1177.6875 539.808594 1177.3125 539.898438 C 1176.953125 539.984375 1176.585938 539.777344 1176.476562 539.425781 C 1175.960938 537.257812 1174.59375 535.386719 1172.6875 534.234375 C 1170.792969 533.140625 1168.4375 533.234375 1166.636719 534.46875 C 1165.6875 535.058594 1165.25 536.207031 1165.558594 537.277344 C 1166.035156 538.226562 1166.929688 538.898438 1167.976562 539.085938 C 1170.203125 539.625 1172.53125 538.929688 1174.75 539.640625 C 1176.820312 540.167969 1178.136719 542.191406 1177.785156 544.296875 C 1177.550781 545.558594 1177.179688 546.792969 1176.667969 547.96875 C 1176.234375 549.179688 1175.730469 550.363281 1175.152344 551.515625 C 1174.269531 553.179688 1172.679688 554.984375 1170.582031 554.496094 C 1168.195312 553.9375 1167.625 551.148438 1168.136719 549.09375 C 1169.523438 544.359375 1173.300781 540.699219 1178.078125 539.46875 C 1178.457031 539.378906 1178.835938 539.609375 1178.925781 539.988281 C 1179.011719 540.347656 1178.804688 540.710938 1178.453125 540.820312 Z M 1178.453125 540.820312 " fill-opacity="1" fill-rule="nonzero"/><path fill="#3f3d56" d="M 1283.984375 623.648438 L 1117.632812 623.648438 C 1113.710938 623.644531 1110.535156 620.46875 1110.53125 616.546875 L 1110.53125 390.328125 C 1110.535156 386.410156 1113.710938 383.234375 1117.632812 383.230469 L 1283.984375 383.230469 C 1287.902344 383.234375 1291.078125 386.410156 1291.082031 390.328125 L 1291.082031 616.546875 C 1291.078125 620.46875 1287.902344 623.644531 1283.984375 623.648438 Z M 1117.632812 385.257812 C 1114.832031 385.261719 1112.5625 387.53125 1112.558594 390.328125 L 1112.558594 616.546875 C 1112.5625 619.347656 1114.832031 621.617188 1117.632812 621.621094 L 1283.984375 621.621094 C 1286.78125 621.617188 1289.050781 619.347656 1289.054688 616.546875 L 1289.054688 390.328125 C 1289.050781 387.53125 1286.78125 385.261719 1283.984375 385.257812 Z M 1117.632812 385.257812 " fill-opacity="1" fill-rule="nonzero"/><path fill="#cacaca" d="M 1310.421875 300.53125 L 838.453125 300.53125 C 837.441406 300.507812 836.636719 299.671875 836.660156 298.65625 C 836.679688 297.675781 837.472656 296.886719 838.453125 296.863281 L 1310.421875 296.863281 C 1311.433594 296.886719 1312.234375 297.722656 1312.214844 298.734375 C 1312.191406 299.71875 1311.402344 300.507812 1310.421875 300.53125 Z M 1310.421875 300.53125 " fill-opacity="1" fill-rule="nonzero"/><g clip-path="url(#id2)"><path fill="#9e30ff" d="M 1402.105469 518.148438 L 1348.347656 518.148438 C 1341.0625 518.148438 1335.160156 512.242188 1335.160156 504.960938 C 1335.160156 497.675781 1341.0625 491.773438 1348.347656 491.773438 L 1402.105469 491.773438 C 1409.390625 491.773438 1415.292969 497.675781 1415.292969 504.960938 C 1415.292969 512.242188 1409.390625 518.148438 1402.105469 518.148438 Z M 1402.105469 518.148438 " fill-opacity="1" fill-rule="nonzero"/></g><path fill="#f2f2f2" d="M 1016.636719 573.34375 C 1015.492188 573.394531 1014.527344 572.511719 1014.472656 571.371094 C 1014.445312 570.761719 1014.6875 570.167969 1015.136719 569.753906 L 1015.277344 569.191406 L 1015.222656 569.054688 C 1014.023438 566.230469 1010.761719 564.910156 1007.9375 566.105469 C 1006.59375 566.675781 1005.527344 567.746094 1004.96875 569.09375 C 1003.292969 573.132812 1001.160156 577.175781 1000.632812 581.449219 C 1000.402344 583.335938 1000.5 585.246094 1000.921875 587.101562 C 996.984375 578.511719 994.941406 569.175781 994.925781 559.726562 C 994.925781 557.355469 995.058594 554.984375 995.320312 552.628906 C 995.539062 550.695312 995.84375 548.777344 996.230469 546.871094 C 998.339844 536.539062 1002.871094 526.855469 1009.449219 518.613281 C 1012.636719 516.875 1015.210938 514.203125 1016.828125 510.957031 C 1017.417969 509.789062 1017.832031 508.542969 1018.0625 507.257812 C 1017.703125 507.304688 1017.335938 507.332031 1016.976562 507.355469 C 1016.867188 507.363281 1016.746094 507.367188 1016.636719 507.375 L 1016.59375 507.375 C 1015.460938 507.425781 1014.503906 506.550781 1014.453125 505.421875 C 1014.429688 504.917969 1014.59375 504.425781 1014.910156 504.035156 C 1015.066406 503.84375 1015.21875 503.65625 1015.375 503.464844 C 1015.609375 503.167969 1015.851562 502.878906 1016.089844 502.585938 C 1016.113281 502.558594 1016.140625 502.527344 1016.164062 502.496094 C 1016.433594 502.160156 1016.707031 501.832031 1016.976562 501.496094 C 1016.484375 500.730469 1015.816406 500.085938 1015.035156 499.617188 C 1012.320312 498.027344 1008.574219 499.128906 1006.613281 501.585938 C 1004.75 504.179688 1004.144531 507.46875 1004.957031 510.554688 C 1005.628906 513.167969 1006.738281 515.644531 1008.242188 517.882812 C 1008.097656 518.070312 1007.941406 518.253906 1007.796875 518.441406 C 1005.105469 521.902344 1002.757812 525.621094 1000.792969 529.539062 C 1001.269531 525.148438 1000.699219 520.707031 999.125 516.582031 C 997.53125 512.734375 994.542969 509.496094 991.914062 506.171875 C 989.96875 503.675781 986.371094 503.230469 983.878906 505.175781 C 982.679688 506.105469 981.902344 507.476562 981.714844 508.984375 L 981.699219 509.128906 C 982.089844 509.351562 982.472656 509.585938 982.847656 509.832031 C 984.136719 510.691406 984.484375 512.4375 983.621094 513.726562 C 983.183594 514.378906 982.492188 514.820312 981.714844 514.941406 L 981.65625 514.949219 C 981.796875 516.359375 982.042969 517.753906 982.394531 519.125 C 984.449219 526.863281 989.636719 533.394531 996.710938 537.148438 C 996.941406 537.265625 997.164062 537.382812 997.394531 537.496094 C 995.417969 543.097656 994.179688 548.929688 993.707031 554.847656 C 993.441406 558.339844 993.457031 561.847656 993.753906 565.339844 L 993.738281 565.214844 C 992.984375 561.332031 990.914062 557.832031 987.878906 555.300781 C 983.367188 551.597656 976.996094 550.234375 972.132812 547.253906 C 970.632812 546.292969 968.640625 546.726562 967.679688 548.226562 C 967.269531 548.867188 967.097656 549.632812 967.195312 550.390625 L 967.21875 550.519531 C 967.941406 550.8125 968.648438 551.15625 969.332031 551.539062 C 969.722656 551.757812 970.105469 551.992188 970.480469 552.238281 C 971.769531 553.101562 972.113281 554.84375 971.253906 556.132812 C 970.816406 556.789062 970.125 557.226562 969.347656 557.347656 L 969.289062 557.355469 C 969.25 557.363281 969.214844 557.367188 969.171875 557.375 C 970.410156 560.332031 972.152344 563.058594 974.3125 565.425781 C 979.714844 571.222656 987.265625 574.535156 995.1875 574.585938 L 995.191406 574.585938 C 996.257812 579.210938 997.796875 583.710938 999.792969 588.015625 L 1016.222656 588.015625 C 1016.28125 587.832031 1016.335938 587.644531 1016.386719 587.460938 C 1014.867188 587.554688 1013.339844 587.464844 1011.839844 587.191406 C 1013.0625 585.695312 1014.28125 584.1875 1015.5 582.691406 C 1015.527344 582.660156 1015.550781 582.632812 1015.574219 582.601562 C 1016.195312 581.835938 1016.816406 581.078125 1017.4375 580.308594 C 1017.46875 577.960938 1017.199219 575.621094 1016.636719 573.34375 Z M 1016.636719 573.34375 " fill-opacity="1" fill-rule="nonzero"/><g mask="url(#id3)"><g transform="matrix(1, 0, 0, 1, 887, 389)"><g clip-path="url(#id6)"><g clip-path="url(#id4)"><path fill="#ffb8b8" d="M 98.433594 160.46875 C 95.898438 158.390625 95.523438 154.648438 97.601562 152.109375 C 97.824219 151.839844 98.066406 151.585938 98.332031 151.359375 L 84.90625 116.25 L 95.636719 118.523438 L 107.03125 152.292969 C 109.007812 154.9375 108.464844 158.679688 105.824219 160.65625 C 103.613281 162.308594 100.558594 162.230469 98.433594 160.46875 Z M 98.433594 160.46875 " fill-opacity="1" fill-rule="nonzero"/></g><path fill="#2f2e41" d="M 103.960938 122.015625 L 91.910156 71.863281 L 86.726562 57.277344 C 86.722656 57.269531 86.71875 57.261719 86.714844 57.253906 C 85.871094 54.871094 84.105469 52.929688 81.816406 51.859375 C 79.527344 50.761719 76.886719 50.636719 74.503906 51.515625 C 74.300781 51.585938 74.101562 51.664062 73.90625 51.757812 C 73.488281 51.949219 73.085938 52.164062 72.699219 52.40625 C 70.460938 53.816406 68.90625 56.089844 68.40625 58.6875 L 67.496094 63.472656 L 67.109375 65.511719 L 81.339844 115.261719 L 81.339844 115.28125 L 86.289062 132.605469 L 88.582031 140.601562 L 88.582031 140.609375 L 91.238281 149.914062 L 91.300781 150.105469 L 97.679688 149.679688 L 97.691406 149.679688 L 98.65625 149.609375 L 105.957031 149.121094 L 107.011719 149.050781 Z M 103.960938 122.015625 " fill-opacity="1" fill-rule="nonzero"/><path fill="#2f2e41" d="M 55.039062 38.28125 L 81.878906 92.566406 L 98.859375 150.292969 C 63.085938 157.269531 18.199219 172.191406 14.96875 150.789062 C 16.957031 91.113281 23.230469 72.078125 36.179688 46.207031 Z M 55.039062 38.28125 " fill-opacity="1" fill-rule="nonzero"/><g clip-path="url(#id5)"><path fill="#2f2e41" d="M 90.925781 199.144531 L 68.882812 199.144531 L 59.949219 168.945312 L 53.660156 198.757812 C 53.636719 198.890625 53.628906 199.011719 53.609375 199.144531 L 30.117188 199.144531 C 30.875 189.8125 32.265625 173.582031 32.925781 171.277344 C 33.859375 168.011719 32.925781 168.011719 31.058594 166.144531 C 30.644531 165.730469 30.5 164.066406 30.542969 161.742188 C 30.652344 153.738281 32.835938 137.882812 32.835938 137.882812 L 35.421875 133.09375 L 36.3125 131.429688 L 82.386719 129.808594 L 82.78125 129.796875 L 83.632812 133.511719 L 84.675781 138.085938 L 86.511719 146.109375 L 88.207031 152.511719 L 88.296875 152.835938 L 88.296875 154.730469 C 88.011719 155.394531 87.878906 156.113281 87.914062 156.832031 C 87.914062 157.480469 89.375 177.707031 90.925781 199.144531 Z M 90.925781 199.144531 " fill-opacity="1" fill-rule="nonzero"/></g><path fill="#9e30ff" d="M 51.890625 46.332031 L 55.054688 38.761719 L 64.84375 38.933594 L 75.054688 53.375 L 85.769531 98.4375 C 85.769531 98.4375 89.617188 131.359375 85.769531 133.097656 C 81.917969 134.832031 35.320312 133.910156 35.320312 133.910156 C 37.476562 116.132812 39.085938 98.046875 40.78125 87.242188 C 46.382812 51.539062 49.023438 59.050781 51.890625 46.332031 Z M 51.890625 46.332031 " fill-opacity="1" fill-rule="nonzero"/><path fill="#2f2e41" d="M 64.84375 38.933594 C 64.84375 38.933594 85.933594 51.125 86.757812 57.488281 C 87.582031 63.855469 90.34375 141.746094 90.34375 141.746094 L 82.886719 136.925781 L 80.847656 108.539062 C 82.269531 83.3125 78.800781 64.507812 71.746094 50.414062 Z M 64.84375 38.933594 " fill-opacity="1" fill-rule="nonzero"/><path fill="#ffb8b8" d="M 62.167969 6.824219 C 63.101562 6.976562 64.007812 7.21875 64.894531 7.546875 C 65.777344 7.878906 66.621094 8.289062 67.421875 8.785156 C 68.226562 9.28125 68.972656 9.851562 69.664062 10.496094 C 70.351562 11.140625 70.976562 11.84375 71.527344 12.609375 C 72.078125 13.375 72.550781 14.1875 72.941406 15.046875 C 73.332031 15.902344 73.636719 16.792969 73.855469 17.710938 C 74.070312 18.628906 74.195312 19.5625 74.230469 20.503906 C 74.265625 21.445312 74.203125 22.382812 74.054688 23.316406 C 73.902344 24.246094 73.664062 25.15625 73.332031 26.039062 C 73.003906 26.925781 72.589844 27.765625 72.09375 28.570312 C 71.597656 29.375 71.027344 30.121094 70.382812 30.808594 C 69.742188 31.5 69.035156 32.121094 68.269531 32.675781 C 67.503906 33.226562 66.691406 33.699219 65.835938 34.089844 C 64.976562 34.480469 64.085938 34.785156 63.167969 35.003906 C 62.25 35.21875 61.320312 35.34375 60.378906 35.378906 C 59.433594 35.410156 58.496094 35.351562 57.566406 35.203125 C 56.632812 35.050781 55.726562 34.808594 54.839844 34.480469 C 53.957031 34.148438 53.113281 33.738281 52.3125 33.242188 C 51.507812 32.746094 50.761719 32.175781 50.070312 31.53125 C 49.378906 30.886719 48.757812 30.183594 48.207031 29.417969 C 47.65625 28.652344 47.183594 27.839844 46.792969 26.980469 C 46.402344 26.125 46.097656 25.234375 45.878906 24.316406 C 45.664062 23.398438 45.539062 22.46875 45.503906 21.523438 C 45.46875 20.582031 45.53125 19.644531 45.679688 18.710938 C 45.832031 17.78125 46.070312 16.871094 46.402344 15.988281 C 46.730469 15.105469 47.144531 14.261719 47.640625 13.457031 C 48.136719 12.65625 48.707031 11.90625 49.351562 11.21875 C 49.992188 10.527344 50.699219 9.90625 51.464844 9.351562 C 52.230469 8.800781 53.042969 8.328125 53.898438 7.9375 C 54.757812 7.546875 55.648438 7.242188 56.566406 7.023438 C 57.484375 6.808594 58.414062 6.683594 59.355469 6.648438 C 60.300781 6.617188 61.238281 6.675781 62.167969 6.824219 Z M 62.167969 6.824219 " fill-opacity="1" fill-rule="nonzero"/><path fill="#2f2e41" d="M 42.15625 20.160156 C 42.800781 23.074219 43.957031 25.847656 45.574219 28.351562 C 46.003906 29.207031 46.648438 29.933594 47.441406 30.46875 C 48.269531 31 49.359375 30.863281 50.03125 30.144531 L 50.378906 29.859375 C 49.695312 29.4375 49.082031 28.90625 48.566406 28.285156 C 48.050781 27.65625 47.871094 26.8125 48.082031 26.027344 C 48.339844 25.230469 49.179688 24.78125 49.984375 25.011719 C 50.828125 25.339844 51.339844 26.558594 52.21875 26.371094 C 52.929688 26.214844 53.078125 25.277344 53.078125 24.539062 C 53.054688 20.679688 54.917969 15.195312 56.363281 15.363281 C 57.820312 15.441406 59.28125 15.246094 60.667969 14.785156 C 62.054688 14.324219 63.519531 14.136719 64.980469 14.234375 C 65.082031 14.25 65.1875 14.269531 65.296875 14.289062 C 65.53125 13.554688 65.851562 12.851562 66.253906 12.195312 C 66.210938 12.988281 66.25 13.78125 66.371094 14.566406 C 67.53125 15.046875 68.734375 15.425781 69.957031 15.699219 C 71.292969 15.886719 74.226562 19.875 74.359375 19.46875 C 74.59375 18.734375 74.917969 18.03125 75.320312 17.375 C 75.273438 18.167969 75.3125 18.960938 75.433594 19.746094 C 75.441406 19.777344 75.441406 19.804688 75.449219 19.835938 C 76.097656 18.976562 76.492188 17.925781 76.269531 18.730469 C 78.441406 13.820312 77.597656 10.304688 74.1875 6.167969 C 73.519531 5.277344 72.640625 4.574219 71.628906 4.117188 C 70.597656 3.664062 69.40625 3.78125 68.480469 4.425781 C 65.648438 1.828125 61.628906 0.972656 57.980469 2.1875 C 54.425781 3.421875 51.6875 4.148438 51.144531 7.878906 C 48.117188 7.546875 45.167969 8.980469 43.5625 11.570312 C 42.03125 14.152344 41.527344 17.222656 42.15625 20.160156 Z M 42.15625 20.160156 " fill-opacity="1" fill-rule="nonzero"/><path fill="#ffb8b8" d="M 1.882812 156.921875 C 0.664062 153.875 2.140625 150.417969 5.1875 149.199219 C 5.511719 149.066406 5.847656 148.964844 6.191406 148.894531 L 11.371094 111.664062 L 19.675781 118.835938 L 13.355469 153.910156 C 13.8125 157.179688 11.53125 160.195312 8.265625 160.652344 C 5.53125 161.03125 2.894531 159.492188 1.882812 156.921875 Z M 1.882812 156.921875 " fill-opacity="1" fill-rule="nonzero"/><path fill="#2f2e41" d="M 47.625 57.539062 L 47.226562 53.929688 C 46.855469 50.59375 44.761719 47.699219 41.710938 46.300781 C 40.550781 45.761719 39.292969 45.46875 38.015625 45.4375 L 38.007812 45.4375 C 34.164062 45.347656 30.644531 47.570312 29.070312 51.078125 L 22.742188 65.230469 L 6.765625 114.277344 L 1.601562 140.957031 L 7.179688 141.777344 L 15.265625 142.964844 L 15.328125 142.976562 L 17.183594 143.25 L 43.121094 73.820312 L 43.128906 73.800781 L 47.976562 60.828125 Z M 47.625 57.539062 " fill-opacity="1" fill-rule="nonzero"/></g></g></g><path fill="#e6e6e6" d="M 1031.410156 589.160156 L 865.058594 589.160156 C 861.140625 589.152344 857.964844 585.976562 857.960938 582.058594 L 857.960938 355.839844 C 857.964844 351.917969 861.140625 348.742188 865.058594 348.738281 L 1031.410156 348.738281 C 1035.332031 348.742188 1038.507812 351.917969 1038.511719 355.839844 L 1038.511719 582.058594 C 1038.507812 585.976562 1035.332031 589.152344 1031.410156 589.160156 Z M 865.058594 350.765625 C 862.261719 350.769531 859.992188 353.039062 859.988281 355.839844 L 859.988281 582.058594 C 859.992188 584.855469 862.261719 587.125 865.058594 587.128906 L 1031.410156 587.128906 C 1034.210938 587.125 1036.480469 584.855469 1036.484375 582.058594 L 1036.484375 355.839844 C 1036.480469 353.039062 1034.210938 350.769531 1031.410156 350.765625 Z M 865.058594 350.765625 " fill-opacity="1" fill-rule="nonzero"/><g clip-path="url(#id7)"><path fill="#e6e6e6" d="M 763.070312 518.148438 L 709.308594 518.148438 C 702.027344 518.148438 696.125 512.242188 696.125 504.960938 C 696.125 497.675781 702.027344 491.773438 709.308594 491.773438 L 763.070312 491.773438 C 770.351562 491.773438 776.257812 497.675781 776.257812 504.960938 C 776.257812 512.242188 770.351562 518.148438 763.070312 518.148438 Z M 763.070312 518.148438 " fill-opacity="1" fill-rule="nonzero"/></g><path fill="#e6e6e6" d="M 789.441406 569.882812 L 735.683594 569.882812 C 728.398438 569.882812 722.496094 563.980469 722.496094 556.695312 C 722.496094 549.414062 728.398438 543.507812 735.683594 543.507812 L 789.441406 543.507812 C 796.726562 543.507812 802.628906 549.414062 802.628906 556.695312 C 802.628906 563.980469 796.726562 569.882812 789.441406 569.882812 Z M 789.441406 569.882812 " fill-opacity="1" fill-rule="nonzero"/><path fill="#e6e6e6" d="M 817.851562 562.238281 L 817.878906 560.210938 L 921.769531 561.710938 L 921.738281 563.742188 Z M 817.851562 562.238281 " fill-opacity="1" fill-rule="nonzero"/><path fill="#e6e6e6" d="M 926.113281 567.367188 C 924.167969 567.371094 922.398438 566.261719 921.542969 564.519531 C 920.316406 562 921.363281 558.964844 923.878906 557.738281 C 926.398438 556.507812 929.433594 557.554688 930.660156 560.074219 C 931.890625 562.589844 930.84375 565.628906 928.324219 566.855469 C 927.636719 567.191406 926.878906 567.367188 926.113281 567.367188 Z M 926.101562 559.25 C 924.421875 559.253906 923.058594 560.617188 923.058594 562.296875 C 923.0625 562.757812 923.164062 563.214844 923.367188 563.628906 C 924.105469 565.136719 925.925781 565.761719 927.4375 565.023438 C 928.945312 564.285156 929.570312 562.464844 928.832031 560.957031 C 928.320312 559.914062 927.261719 559.25 926.101562 559.25 Z M 926.101562 559.25 " fill-opacity="1" fill-rule="nonzero"/><path fill="#e6e6e6" d="M 795.535156 508.472656 L 795.566406 506.445312 L 899.453125 507.945312 L 899.421875 509.976562 Z M 795.535156 508.472656 " fill-opacity="1" fill-rule="nonzero"/><path fill="#e6e6e6" d="M 903.796875 513.601562 C 901.855469 513.605469 900.082031 512.5 899.230469 510.753906 C 898 508.234375 899.046875 505.199219 901.5625 503.96875 C 904.082031 502.738281 907.117188 503.785156 908.347656 506.304688 C 909.578125 508.820312 908.53125 511.859375 906.011719 513.089844 C 905.324219 513.425781 904.566406 513.601562 903.796875 513.601562 Z M 901.050781 509.863281 C 901.789062 511.375 903.609375 512 905.121094 511.265625 C 906.628906 510.527344 907.257812 508.707031 906.519531 507.195312 C 905.785156 505.6875 903.960938 505.058594 902.453125 505.796875 C 901.726562 506.148438 901.171875 506.777344 900.910156 507.539062 C 900.648438 508.304688 900.699219 509.140625 901.050781 509.863281 Z M 901.050781 509.863281 " fill-opacity="1" fill-rule="nonzero"/><path fill="#e6e6e6" d="M 803.644531 467.425781 L 749.882812 467.425781 C 742.601562 467.425781 736.695312 461.523438 736.695312 454.238281 C 736.695312 446.957031 742.601562 441.050781 749.882812 441.050781 L 803.644531 441.050781 C 810.925781 441.050781 816.832031 446.957031 816.832031 454.238281 C 816.832031 461.523438 810.925781 467.425781 803.644531 467.425781 Z M 803.644531 467.425781 " fill-opacity="1" fill-rule="nonzero"/><path fill="#e6e6e6" d="M 836.109375 457.753906 L 836.136719 455.722656 L 940.027344 457.226562 L 939.996094 459.253906 Z M 836.109375 457.753906 " fill-opacity="1" fill-rule="nonzero"/><path fill="#e6e6e6" d="M 944.371094 462.882812 C 942.429688 462.882812 940.65625 461.777344 939.800781 460.03125 C 938.574219 457.515625 939.617188 454.476562 942.136719 453.246094 C 944.65625 452.019531 947.691406 453.0625 948.921875 455.582031 C 950.152344 458.101562 949.105469 461.136719 946.585938 462.367188 C 945.898438 462.703125 945.136719 462.878906 944.371094 462.882812 Z M 941.625 459.144531 C 942.363281 460.652344 944.183594 461.28125 945.695312 460.542969 C 947.203125 459.808594 947.832031 457.984375 947.09375 456.476562 C 946.359375 454.964844 944.535156 454.339844 943.027344 455.074219 C 942.300781 455.429688 941.746094 456.054688 941.484375 456.816406 C 941.222656 457.582031 941.273438 458.417969 941.625 459.144531 Z M 941.625 459.144531 " fill-opacity="1" fill-rule="nonzero"/><path fill="#3f3d56" d="M 1218.390625 501.558594 L 1218.417969 499.527344 L 1322.308594 501.03125 L 1322.277344 503.058594 Z M 1218.390625 501.558594 " fill-opacity="1" fill-rule="nonzero"/><path fill="#3f3d56" d="M 1214.058594 506.046875 C 1211.25 506.054688 1208.972656 503.785156 1208.964844 500.976562 C 1208.957031 498.171875 1211.226562 495.890625 1214.035156 495.886719 C 1216.839844 495.878906 1219.121094 498.148438 1219.125 500.953125 C 1219.128906 502.902344 1218.023438 504.679688 1216.277344 505.53125 C 1215.585938 505.871094 1214.828125 506.046875 1214.058594 506.046875 Z M 1214.050781 497.929688 C 1212.367188 497.929688 1211.003906 499.292969 1211.003906 500.972656 C 1211.003906 502.65625 1212.367188 504.019531 1214.050781 504.019531 C 1215.730469 504.019531 1217.09375 502.65625 1217.09375 500.972656 C 1217.09375 500.511719 1216.992188 500.054688 1216.789062 499.640625 C 1216.277344 498.59375 1215.214844 497.929688 1214.050781 497.929688 Z M 1214.050781 497.929688 " fill-opacity="1" fill-rule="nonzero"/><g clip-path="url(#id8)"><path fill="#9e30ff" d="M 1402.105469 622.632812 L 1348.347656 622.632812 C 1341.0625 622.632812 1335.160156 616.730469 1335.160156 609.445312 C 1335.160156 602.164062 1341.0625 596.257812 1348.347656 596.257812 L 1402.105469 596.257812 C 1409.390625 596.257812 1415.292969 602.164062 1415.292969 609.445312 C 1415.292969 616.730469 1409.390625 622.632812 1402.105469 622.632812 Z M 1402.105469 622.632812 " fill-opacity="1" fill-rule="nonzero"/></g><path fill="#3f3d56" d="M 1218.390625 606.042969 L 1218.417969 604.015625 L 1322.308594 605.515625 L 1322.277344 607.546875 Z M 1218.390625 606.042969 " fill-opacity="1" fill-rule="nonzero"/><path fill="#3f3d56" d="M 1214.058594 610.535156 C 1211.253906 610.535156 1208.980469 608.265625 1208.980469 605.464844 C 1208.976562 602.664062 1211.246094 600.390625 1214.046875 600.386719 C 1215.988281 600.386719 1217.761719 601.492188 1218.613281 603.238281 C 1219.835938 605.757812 1218.789062 608.796875 1216.269531 610.023438 C 1215.578125 610.355469 1214.824219 610.53125 1214.058594 610.535156 Z M 1214.050781 602.414062 C 1212.367188 602.414062 1211.003906 603.777344 1211.003906 605.460938 C 1211.003906 607.140625 1212.367188 608.503906 1214.050781 608.503906 C 1215.730469 608.507812 1217.09375 607.140625 1217.09375 605.460938 C 1217.09375 605 1216.988281 604.542969 1216.789062 604.125 C 1216.277344 603.078125 1215.214844 602.414062 1214.050781 602.414062 Z M 1214.050781 602.414062 " fill-opacity="1" fill-rule="nonzero"/><path fill="#ffb6b6" d="M 1080.53125 622.511719 C 1083.097656 620.449219 1083.511719 616.691406 1081.449219 614.121094 C 1081.246094 613.871094 1081.027344 613.640625 1080.792969 613.425781 L 1090.453125 585.292969 L 1083.328125 580.707031 L 1072.097656 614.207031 C 1070.082031 616.804688 1070.554688 620.550781 1073.15625 622.566406 C 1075.332031 624.253906 1078.378906 624.230469 1080.53125 622.511719 Z M 1080.53125 622.511719 " fill-opacity="1" fill-rule="nonzero"/><path fill="#9e30ff" d="M 1088.773438 544.890625 C 1087.066406 552.109375 1084.519531 558.414062 1084.867188 561.441406 C 1085.207031 564.464844 1081.515625 567.363281 1082.691406 569.753906 C 1083.859375 572.144531 1080.257812 572.402344 1081.230469 576.253906 C 1082.210938 580.113281 1082.84375 580.9375 1082.019531 581.574219 C 1081.1875 582.207031 1076.796875 596.9375 1076.796875 596.9375 L 1079.371094 597.882812 L 1086.890625 600.625 L 1104.554688 571.566406 L 1104.5 535.902344 L 1100.113281 535.761719 C 1099.0625 536.15625 1097.894531 536.632812 1096.730469 537.203125 C 1093.179688 538.917969 1089.585938 541.453125 1088.773438 544.890625 Z M 1088.773438 544.890625 " fill-opacity="1" fill-rule="nonzero"/><path fill="#ffb6b6" d="M 1153.820312 771.1875 L 1163.003906 771.1875 L 1167.375 735.753906 L 1153.816406 735.753906 Z M 1153.820312 771.1875 " fill-opacity="1" fill-rule="nonzero"/><path fill="#2f2e41" d="M 1166.0625 772.015625 L 1166.0625 765.789062 L 1163.648438 765.933594 L 1153.816406 766.515625 L 1151.542969 766.65625 L 1149.800781 787.515625 L 1149.710938 788.632812 L 1156.230469 788.632812 L 1156.441406 787.523438 L 1157.386719 782.476562 L 1159.835938 787.523438 L 1160.371094 788.632812 L 1177.664062 788.632812 C 1179.804688 788.621094 1181.535156 786.882812 1181.542969 784.742188 C 1182.273438 781.332031 1167.894531 773.964844 1166.0625 772.015625 Z M 1166.0625 772.015625 " fill-opacity="1" fill-rule="nonzero"/><path fill="#ffb6b6" d="M 1046.203125 761.1875 L 1054.195312 765.722656 L 1075.480469 737.058594 L 1063.6875 730.371094 Z M 1046.203125 761.1875 " fill-opacity="1" fill-rule="nonzero"/><path fill="#2f2e41" d="M 1056.449219 767.945312 L 1059.515625 762.535156 L 1057.355469 761.46875 L 1048.511719 757.128906 L 1046.464844 756.121094 L 1036.394531 770.867188 L 1034.023438 774.328125 L 1036.703125 775.851562 L 1039.691406 777.550781 L 1043.746094 772.769531 L 1043.296875 779.59375 L 1057.417969 787.617188 L 1057.425781 787.617188 L 1058.335938 788.128906 C 1060.203125 789.183594 1062.574219 788.527344 1063.632812 786.660156 C 1065.945312 784.050781 1057.078125 770.554688 1056.449219 767.945312 Z M 1056.449219 767.945312 " fill-opacity="1" fill-rule="nonzero"/><path fill="#2f2e41" d="M 1108.234375 597.253906 C 1095.925781 605.410156 1083.738281 683.78125 1086.9375 682.503906 L 1057.925781 736.578125 L 1072.753906 746.605469 L 1126.375 660.800781 L 1144.195312 698.757812 L 1151.558594 757.019531 L 1170.019531 755.703125 C 1165.222656 690.066406 1153.246094 620.839844 1143.316406 594.0625 Z M 1108.234375 597.253906 " fill-opacity="1" fill-rule="nonzero"/><path fill="#9e30ff" d="M 1098.890625 603.074219 L 1098.753906 603.578125 C 1111.765625 610.820312 1147.386719 602.429688 1147.386719 602.429688 L 1141.644531 583.933594 L 1149.394531 542.835938 C 1149.355469 536.199219 1143.941406 530.855469 1137.308594 530.898438 C 1137.035156 530.898438 1136.761719 530.910156 1136.492188 530.929688 L 1127.140625 524.003906 L 1113.828125 524.460938 L 1104.921875 534.296875 L 1099.601562 536.199219 L 1095.46875 537.671875 C 1094.632812 538.425781 1093.722656 539.292969 1092.847656 540.25 L 1099.386719 579.164062 L 1102.167969 590.800781 Z M 1098.890625 603.074219 " fill-opacity="1" fill-rule="nonzero"/><path fill="#ffb6b6" d="M 1137.578125 505.375 C 1137.578125 505.9375 1137.550781 506.492188 1137.496094 507.050781 C 1137.441406 507.605469 1137.359375 508.160156 1137.25 508.707031 C 1137.140625 509.257812 1137.003906 509.800781 1136.84375 510.335938 C 1136.679688 510.871094 1136.492188 511.394531 1136.277344 511.914062 C 1136.0625 512.429688 1135.824219 512.933594 1135.5625 513.429688 C 1135.296875 513.921875 1135.011719 514.402344 1134.699219 514.867188 C 1134.386719 515.332031 1134.054688 515.78125 1133.699219 516.214844 C 1133.347656 516.644531 1132.972656 517.058594 1132.574219 517.457031 C 1132.179688 517.851562 1131.765625 518.226562 1131.332031 518.582031 C 1130.902344 518.9375 1130.453125 519.269531 1129.988281 519.578125 C 1129.523438 519.890625 1129.042969 520.175781 1128.550781 520.441406 C 1128.054688 520.703125 1127.550781 520.945312 1127.035156 521.15625 C 1126.515625 521.371094 1125.992188 521.558594 1125.457031 521.722656 C 1124.921875 521.886719 1124.378906 522.019531 1123.828125 522.128906 C 1123.28125 522.238281 1122.726562 522.320312 1122.171875 522.375 C 1121.613281 522.429688 1121.058594 522.457031 1120.496094 522.457031 C 1119.9375 522.457031 1119.378906 522.429688 1118.824219 522.375 C 1118.265625 522.320312 1117.714844 522.238281 1117.164062 522.128906 C 1116.617188 522.019531 1116.074219 521.886719 1115.539062 521.722656 C 1115.003906 521.558594 1114.476562 521.371094 1113.960938 521.15625 C 1113.445312 520.945312 1112.9375 520.703125 1112.445312 520.441406 C 1111.953125 520.175781 1111.472656 519.890625 1111.007812 519.578125 C 1110.542969 519.269531 1110.09375 518.9375 1109.660156 518.582031 C 1109.230469 518.226562 1108.816406 517.851562 1108.417969 517.457031 C 1108.023438 517.058594 1107.648438 516.644531 1107.292969 516.214844 C 1106.9375 515.78125 1106.605469 515.332031 1106.296875 514.867188 C 1105.984375 514.402344 1105.699219 513.921875 1105.433594 513.429688 C 1105.171875 512.933594 1104.929688 512.429688 1104.71875 511.914062 C 1104.503906 511.394531 1104.316406 510.871094 1104.152344 510.335938 C 1103.988281 509.800781 1103.855469 509.257812 1103.746094 508.707031 C 1103.636719 508.160156 1103.554688 507.605469 1103.5 507.050781 C 1103.445312 506.492188 1103.417969 505.9375 1103.417969 505.375 C 1103.417969 504.816406 1103.445312 504.257812 1103.5 503.703125 C 1103.554688 503.144531 1103.636719 502.59375 1103.746094 502.042969 C 1103.855469 501.496094 1103.988281 500.953125 1104.152344 500.417969 C 1104.316406 499.882812 1104.503906 499.355469 1104.71875 498.839844 C 1104.929688 498.324219 1105.171875 497.816406 1105.433594 497.324219 C 1105.699219 496.832031 1105.984375 496.351562 1106.296875 495.886719 C 1106.605469 495.421875 1106.9375 494.972656 1107.292969 494.539062 C 1107.648438 494.105469 1108.023438 493.691406 1108.417969 493.296875 C 1108.816406 492.902344 1109.230469 492.527344 1109.660156 492.171875 C 1110.09375 491.816406 1110.542969 491.484375 1111.007812 491.171875 C 1111.472656 490.863281 1111.953125 490.574219 1112.445312 490.3125 C 1112.9375 490.046875 1113.445312 489.808594 1113.960938 489.59375 C 1114.476562 489.378906 1115.003906 489.191406 1115.539062 489.03125 C 1116.074219 488.867188 1116.617188 488.730469 1117.164062 488.621094 C 1117.714844 488.511719 1118.265625 488.429688 1118.824219 488.375 C 1119.378906 488.320312 1119.9375 488.292969 1120.496094 488.292969 C 1121.058594 488.292969 1121.613281 488.320312 1122.171875 488.375 C 1122.726562 488.429688 1123.28125 488.511719 1123.828125 488.621094 C 1124.378906 488.730469 1124.921875 488.867188 1125.457031 489.03125 C 1125.992188 489.191406 1126.515625 489.378906 1127.035156 489.59375 C 1127.550781 489.808594 1128.054688 490.046875 1128.550781 490.3125 C 1129.042969 490.574219 1129.523438 490.863281 1129.988281 491.171875 C 1130.453125 491.484375 1130.902344 491.816406 1131.332031 492.171875 C 1131.765625 492.527344 1132.179688 492.902344 1132.574219 493.296875 C 1132.972656 493.691406 1133.347656 494.105469 1133.699219 494.539062 C 1134.054688 494.972656 1134.386719 495.421875 1134.699219 495.886719 C 1135.011719 496.351562 1135.296875 496.832031 1135.5625 497.324219 C 1135.824219 497.816406 1136.0625 498.324219 1136.277344 498.839844 C 1136.492188 499.355469 1136.679688 499.882812 1136.84375 500.417969 C 1137.003906 500.953125 1137.140625 501.496094 1137.25 502.042969 C 1137.359375 502.59375 1137.441406 503.144531 1137.496094 503.703125 C 1137.550781 504.257812 1137.578125 504.816406 1137.578125 505.375 Z M 1137.578125 505.375 " fill-opacity="1" fill-rule="nonzero"/><path fill="#2f2e41" d="M 1098.039062 499.425781 C 1098.089844 499.445312 1098.132812 499.464844 1098.183594 499.484375 C 1098.28125 499.527344 1098.382812 499.5625 1098.484375 499.59375 C 1099.136719 499.832031 1099.8125 499.988281 1100.503906 500.058594 C 1100.800781 500.089844 1101.09375 500.105469 1101.390625 500.105469 C 1101.769531 500.105469 1102.152344 500.082031 1102.527344 500.03125 C 1102.945312 499.980469 1103.359375 499.894531 1103.765625 499.777344 C 1103.957031 499.726562 1104.148438 499.664062 1104.332031 499.59375 C 1106.902344 498.679688 1108.898438 496.617188 1109.71875 494.011719 L 1109.71875 494.007812 C 1109.761719 493.882812 1109.796875 493.753906 1109.828125 493.625 C 1110.015625 492.90625 1110.113281 492.167969 1110.113281 491.425781 L 1110.113281 491.410156 C 1110.117188 489.601562 1109.554688 487.835938 1108.5 486.363281 C 1107.863281 485.460938 1107.128906 485.308594 1107.542969 484.28125 C 1108.855469 480.992188 1103.480469 478.304688 1100.308594 479.75 C 1100.191406 479.738281 1100.078125 479.734375 1099.964844 479.738281 C 1097.824219 479.730469 1097.035156 482.886719 1095.757812 484.664062 L 1095.796875 484.675781 C 1096.652344 484.976562 1097.101562 485.910156 1096.800781 486.765625 C 1096.636719 487.242188 1096.257812 487.617188 1095.777344 487.777344 C 1094.925781 488.054688 1094.070312 488.300781 1093.203125 488.511719 C 1090.347656 491.882812 1093.621094 501.75 1098.039062 499.425781 Z M 1098.039062 499.425781 " fill-opacity="1" fill-rule="nonzero"/><path fill="#2f2e41" d="M 1099.609375 508.46875 C 1100.421875 512.121094 1102.371094 515.425781 1105.171875 517.90625 C 1108.0625 520.242188 1121.65625 525.773438 1122.804688 521.039062 C 1122.035156 524.347656 1122.5 525.609375 1123.734375 526.792969 C 1123.945312 526.507812 1124.167969 526.234375 1124.398438 525.964844 C 1125.246094 524.988281 1126.265625 524.171875 1127.402344 523.554688 C 1127.433594 525.554688 1127.289062 527.550781 1126.972656 529.527344 C 1127.480469 529.996094 1127.964844 530.492188 1128.421875 531.011719 C 1130.621094 524.457031 1135.441406 516.609375 1131.949219 510.644531 C 1130.566406 508.277344 1131.722656 507.949219 1132.949219 507.679688 C 1135.089844 507.203125 1136.269531 498.417969 1136.777344 496.28125 C 1137.410156 493.605469 1137.660156 490.523438 1136 488.324219 C 1134.339844 486.128906 1130.144531 486.035156 1129.296875 488.652344 L 1127.527344 486.25 C 1125.246094 481.222656 1119.183594 482.230469 1113.703125 482.878906 C 1108.144531 483.722656 1103.359375 487.25 1100.914062 492.3125 C 1098.558594 497.371094 1098.097656 503.101562 1099.609375 508.46875 Z M 1099.609375 508.46875 " fill-opacity="1" fill-rule="nonzero"/><path fill="#9e30ff" d="M 1108.25 485.507812 C 1108.488281 491.703125 1105.003906 497.445312 1099.398438 500.09375 C 1098.285156 500.597656 1097.316406 498.945312 1098.4375 498.4375 C 1103.449219 496.128906 1106.570312 491.019531 1106.335938 485.503906 C 1106.273438 484.273438 1108.1875 484.28125 1108.25 485.507812 Z M 1108.25 485.507812 " fill-opacity="1" fill-rule="nonzero"/><path fill="#ffb6b6" d="M 1185.398438 494.960938 C 1182.222656 495.839844 1180.363281 499.128906 1181.242188 502.304688 C 1181.328125 502.613281 1181.4375 502.914062 1181.570312 503.203125 L 1161.59375 525.242188 L 1166.328125 532.265625 L 1189.867188 505.917969 C 1192.746094 504.324219 1193.789062 500.699219 1192.195312 497.820312 C 1190.863281 495.410156 1188.050781 494.226562 1185.398438 494.960938 Z M 1185.398438 494.960938 " fill-opacity="1" fill-rule="nonzero"/><path fill="#9e30ff" d="M 1128.609375 566.449219 C 1128.609375 566.449219 1142.777344 568.996094 1147.195312 563.03125 C 1151.609375 557.0625 1156.4375 552.28125 1157.316406 549.363281 C 1158.195312 546.449219 1162.726562 545.242188 1162.59375 542.582031 C 1162.460938 539.925781 1165.875 541.113281 1166.496094 537.183594 C 1167.121094 533.257812 1166.863281 532.242188 1167.875 531.988281 C 1168.886719 531.730469 1178.730469 519.933594 1178.730469 519.933594 L 1170.914062 512.558594 L 1143.222656 532.289062 Z M 1128.609375 566.449219 " fill-opacity="1" fill-rule="nonzero"/><path fill="#f2f2f2" d="M 1022.039062 781.195312 C 1010.921875 779.871094 1000.992188 773.597656 995.023438 764.125 C 991.191406 757.90625 989.210938 750.523438 987.300781 743.382812 C 986.742188 741.304688 986.167969 739.15625 985.558594 737.082031 C 984.148438 732.453125 985.695312 727.429688 989.46875 724.398438 C 993.117188 721.339844 998.257812 720.808594 1002.453125 723.058594 L 1002.902344 723.292969 L 1003.683594 740.925781 C 1004.847656 738.5625 1007.398438 733.226562 1009.417969 727.898438 L 1009.585938 727.453125 L 1009.976562 727.734375 C 1014.035156 730.652344 1017.714844 734.070312 1020.921875 737.910156 C 1032.390625 751.847656 1037.144531 770.125 1033.921875 787.886719 L 1033.824219 788.410156 Z M 1022.039062 781.195312 " fill-opacity="1" fill-rule="nonzero"/><g clip-path="url(#id9)"><path fill="#cccccc" d="M 950.152344 788.230469 C 950.152344 788.894531 950.6875 789.4375 951.355469 789.4375 L 1245.816406 789.4375 C 1246.480469 789.4375 1247.023438 788.898438 1247.023438 788.230469 C 1247.023438 787.5625 1246.480469 787.023438 1245.816406 787.023438 L 951.359375 787.023438 C 950.695312 787.023438 950.15625 787.558594 950.152344 788.222656 Z M 950.152344 788.230469 " fill-opacity="1" fill-rule="nonzero"/></g><g clip-path="url(#id10)"><path fill="#3f3d56" d="M 870.632812 274.707031 C 870.632812 275.285156 870.578125 275.855469 870.46875 276.417969 C 870.359375 276.984375 870.195312 277.53125 869.980469 278.0625 C 869.765625 278.597656 869.5 279.101562 869.1875 279.582031 C 868.875 280.058594 868.519531 280.503906 868.121094 280.910156 C 867.722656 281.316406 867.289062 281.679688 866.820312 282 C 866.351562 282.320312 865.859375 282.589844 865.339844 282.808594 C 864.816406 283.03125 864.28125 283.195312 863.730469 283.308594 C 863.175781 283.421875 862.617188 283.476562 862.054688 283.476562 C 861.492188 283.476562 860.933594 283.421875 860.382812 283.308594 C 859.828125 283.195312 859.292969 283.03125 858.773438 282.808594 C 858.253906 282.589844 857.757812 282.320312 857.289062 282 C 856.820312 281.679688 856.386719 281.316406 855.988281 280.910156 C 855.59375 280.503906 855.234375 280.058594 854.921875 279.582031 C 854.609375 279.101562 854.347656 278.597656 854.128906 278.0625 C 853.914062 277.53125 853.753906 276.984375 853.640625 276.417969 C 853.53125 275.855469 853.476562 275.285156 853.476562 274.707031 C 853.476562 274.132812 853.53125 273.5625 853.640625 272.996094 C 853.753906 272.433594 853.914062 271.882812 854.128906 271.351562 C 854.347656 270.820312 854.609375 270.316406 854.921875 269.835938 C 855.234375 269.355469 855.59375 268.914062 855.988281 268.507812 C 856.386719 268.101562 856.820312 267.734375 857.289062 267.417969 C 857.757812 267.097656 858.253906 266.824219 858.773438 266.605469 C 859.292969 266.386719 859.828125 266.21875 860.382812 266.105469 C 860.933594 265.996094 861.492188 265.9375 862.054688 265.9375 C 862.617188 265.9375 863.175781 265.996094 863.730469 266.105469 C 864.28125 266.21875 864.816406 266.386719 865.339844 266.605469 C 865.859375 266.824219 866.351562 267.097656 866.820312 267.417969 C 867.289062 267.734375 867.722656 268.101562 868.121094 268.507812 C 868.519531 268.914062 868.875 269.355469 869.1875 269.835938 C 869.5 270.316406 869.765625 270.820312 869.980469 271.351562 C 870.195312 271.882812 870.359375 272.433594 870.46875 272.996094 C 870.578125 273.5625 870.632812 274.132812 870.632812 274.707031 Z M 870.632812 274.707031 " fill-opacity="1" fill-rule="nonzero"/></g><g clip-path="url(#id11)"><path fill="#3f3d56" d="M 900.265625 274.707031 C 900.265625 275.285156 900.210938 275.855469 900.101562 276.417969 C 899.992188 276.984375 899.828125 277.53125 899.613281 278.0625 C 899.398438 278.597656 899.132812 279.101562 898.820312 279.582031 C 898.507812 280.058594 898.152344 280.503906 897.753906 280.910156 C 897.355469 281.316406 896.921875 281.679688 896.453125 282 C 895.984375 282.320312 895.492188 282.589844 894.96875 282.808594 C 894.449219 283.03125 893.914062 283.195312 893.363281 283.308594 C 892.808594 283.421875 892.25 283.476562 891.6875 283.476562 C 891.125 283.476562 890.566406 283.421875 890.015625 283.308594 C 889.460938 283.195312 888.925781 283.03125 888.40625 282.808594 C 887.882812 282.589844 887.390625 282.320312 886.921875 282 C 886.453125 281.679688 886.019531 281.316406 885.621094 280.910156 C 885.222656 280.503906 884.867188 280.058594 884.554688 279.582031 C 884.242188 279.101562 883.976562 278.597656 883.761719 278.0625 C 883.546875 277.53125 883.382812 276.984375 883.273438 276.417969 C 883.164062 275.855469 883.109375 275.285156 883.109375 274.707031 C 883.109375 274.132812 883.164062 273.5625 883.273438 272.996094 C 883.382812 272.433594 883.546875 271.882812 883.761719 271.351562 C 883.976562 270.820312 884.242188 270.316406 884.554688 269.835938 C 884.867188 269.355469 885.222656 268.914062 885.621094 268.507812 C 886.019531 268.101562 886.453125 267.734375 886.921875 267.417969 C 887.390625 267.097656 887.882812 266.824219 888.40625 266.605469 C 888.925781 266.386719 889.460938 266.21875 890.015625 266.105469 C 890.566406 265.996094 891.125 265.9375 891.6875 265.9375 C 892.25 265.9375 892.808594 265.996094 893.363281 266.105469 C 893.914062 266.21875 894.449219 266.386719 894.96875 266.605469 C 895.492188 266.824219 895.984375 267.097656 896.453125 267.417969 C 896.921875 267.734375 897.355469 268.101562 897.753906 268.507812 C 898.152344 268.914062 898.507812 269.355469 898.820312 269.835938 C 899.132812 270.316406 899.398438 270.820312 899.613281 271.351562 C 899.828125 271.882812 899.992188 272.433594 900.101562 272.996094 C 900.210938 273.5625 900.265625 274.132812 900.265625 274.707031 Z M 900.265625 274.707031 " fill-opacity="1" fill-rule="nonzero"/></g><g clip-path="url(#id12)"><path fill="#3f3d56" d="M 929.898438 274.707031 C 929.898438 275.285156 929.84375 275.855469 929.734375 276.417969 C 929.625 276.984375 929.460938 277.53125 929.246094 278.0625 C 929.03125 278.597656 928.765625 279.101562 928.453125 279.582031 C 928.140625 280.058594 927.785156 280.503906 927.386719 280.910156 C 926.988281 281.316406 926.554688 281.679688 926.085938 282 C 925.617188 282.320312 925.125 282.589844 924.605469 282.808594 C 924.082031 283.03125 923.546875 283.195312 922.996094 283.308594 C 922.441406 283.421875 921.882812 283.476562 921.320312 283.476562 C 920.757812 283.476562 920.199219 283.421875 919.648438 283.308594 C 919.09375 283.195312 918.558594 283.03125 918.039062 282.808594 C 917.519531 282.589844 917.023438 282.320312 916.554688 282 C 916.085938 281.679688 915.652344 281.316406 915.253906 280.910156 C 914.855469 280.503906 914.5 280.058594 914.1875 279.582031 C 913.875 279.101562 913.609375 278.597656 913.394531 278.0625 C 913.179688 277.53125 913.015625 276.984375 912.90625 276.417969 C 912.796875 275.855469 912.742188 275.285156 912.742188 274.707031 C 912.742188 274.132812 912.796875 273.5625 912.90625 272.996094 C 913.015625 272.433594 913.179688 271.882812 913.394531 271.351562 C 913.609375 270.820312 913.875 270.316406 914.1875 269.835938 C 914.5 269.355469 914.855469 268.914062 915.253906 268.507812 C 915.652344 268.101562 916.085938 267.734375 916.554688 267.417969 C 917.023438 267.097656 917.519531 266.824219 918.039062 266.605469 C 918.558594 266.386719 919.09375 266.21875 919.648438 266.105469 C 920.199219 265.996094 920.757812 265.9375 921.320312 265.9375 C 921.882812 265.9375 922.441406 265.996094 922.996094 266.105469 C 923.546875 266.21875 924.082031 266.386719 924.605469 266.605469 C 925.125 266.824219 925.617188 267.097656 926.085938 267.417969 C 926.554688 267.734375 926.988281 268.101562 927.386719 268.507812 C 927.785156 268.914062 928.140625 269.355469 928.453125 269.835938 C 928.765625 270.316406 929.03125 270.820312 929.246094 271.351562 C 929.460938 271.882812 929.625 272.433594 929.734375 272.996094 C 929.84375 273.5625 929.898438 274.132812 929.898438 274.707031 Z M 929.898438 274.707031 " fill-opacity="1" fill-rule="nonzero"/></g><path fill="#3f3d56" d="M 955.109375 281.640625 C 954.847656 281.640625 954.582031 281.539062 954.386719 281.335938 L 948.597656 275.417969 C 948.210938 275.023438 948.210938 274.394531 948.597656 274 L 954.386719 268.082031 C 954.777344 267.679688 955.421875 267.675781 955.820312 268.066406 C 956.21875 268.457031 956.226562 269.101562 955.835938 269.5 L 950.742188 274.707031 L 955.835938 279.914062 C 956.226562 280.316406 956.21875 280.957031 955.820312 281.351562 C 955.621094 281.542969 955.367188 281.640625 955.109375 281.640625 Z M 955.109375 281.640625 " fill-opacity="1" fill-rule="nonzero"/><path fill="#3f3d56" d="M 964.835938 281.640625 C 964.582031 281.640625 964.324219 281.542969 964.128906 281.351562 C 963.726562 280.957031 963.71875 280.316406 964.109375 279.914062 L 969.203125 274.707031 L 964.109375 269.5 C 963.71875 269.101562 963.726562 268.457031 964.128906 268.066406 C 964.527344 267.671875 965.167969 267.679688 965.5625 268.082031 L 971.347656 274 C 971.734375 274.394531 971.734375 275.023438 971.347656 275.417969 L 965.5625 281.335938 C 965.363281 281.539062 965.101562 281.640625 964.835938 281.640625 Z M 964.835938 281.640625 " fill-opacity="1" fill-rule="nonzero"/><path fill="#3f3d56" d="M 1267.628906 266.953125 L 1256.867188 266.953125 C 1255.636719 266.953125 1254.644531 267.949219 1254.644531 269.175781 L 1254.644531 279.949219 C 1254.644531 281.175781 1255.636719 282.171875 1256.867188 282.171875 L 1267.628906 282.171875 C 1268.855469 282.171875 1269.859375 281.175781 1269.859375 279.949219 L 1269.859375 269.175781 C 1269.859375 267.949219 1268.855469 266.953125 1267.628906 266.953125 Z M 1267.628906 266.953125 " fill-opacity="1" fill-rule="nonzero"/><path fill="#3f3d56" d="M 1241.253906 266.953125 L 1230.492188 266.953125 C 1229.265625 266.953125 1228.269531 267.949219 1228.269531 269.175781 L 1228.269531 279.949219 C 1228.269531 281.175781 1229.265625 282.171875 1230.492188 282.171875 L 1241.253906 282.171875 C 1242.480469 282.171875 1243.488281 281.175781 1243.488281 279.949219 L 1243.488281 269.175781 C 1243.488281 267.949219 1242.480469 266.953125 1241.253906 266.953125 Z M 1241.253906 266.953125 " fill-opacity="1" fill-rule="nonzero"/><path fill="#3f3d56" d="M 1292.480469 267.460938 L 1281.71875 267.460938 C 1280.488281 267.460938 1279.496094 268.453125 1279.496094 269.683594 L 1279.496094 280.457031 C 1279.496094 281.683594 1280.488281 282.675781 1281.71875 282.675781 L 1292.480469 282.675781 C 1293.707031 282.675781 1294.710938 281.683594 1294.710938 280.457031 L 1294.710938 269.683594 C 1294.710938 268.453125 1293.707031 267.460938 1292.480469 267.460938 Z M 1292.480469 267.460938 " fill-opacity="1" fill-rule="nonzero"/><path fill="#3f3d56" d="M 1130.265625 271.558594 L 1044.238281 271.558594 C 1042.734375 271.558594 1041.527344 272.777344 1041.527344 274.269531 C 1041.527344 275.757812 1042.734375 276.976562 1044.238281 276.976562 L 1130.265625 276.976562 C 1131.753906 276.976562 1132.972656 275.757812 1132.972656 274.269531 C 1132.972656 272.777344 1131.753906 271.558594 1130.265625 271.558594 Z M 1130.265625 271.558594 " fill-opacity="1" fill-rule="nonzero"/><g mask="url(#id13)"><g transform="matrix(1, 0, 0, 1, 34, 38)"><g clip-path="url(#id15)"><g clip-path="url(#id14)"><path fill="#1e1a1e" d="M 1405.992188 149.207031 L 4.253906 149.207031 L 42.230469 74.957031 L 4.253906 0.707031 L 1405.992188 0.707031 L 1405.992188 149.207031 " fill-opacity="1" fill-rule="nonzero"/></g></g></g></g></svg>