<svg xmlns="http://www.w3.org/2000/svg" xmlns:xlink="http://www.w3.org/1999/xlink" width="428" zoomAndPan="magnify" viewBox="0 0 321 207.75" height="277" preserveAspectRatio="xMidYMid meet" version="1.0"><defs><clipPath id="id1"><path d="M 17.753906 157 L 303.160156 157 L 303.160156 169 L 17.753906 169 Z M 17.753906 157 " clip-rule="nonzero"/></clipPath><clipPath id="id2"><path d="M 123 116 L 188 116 L 188 207.5 L 123 207.5 Z M 123 116 " clip-rule="nonzero"/></clipPath><clipPath id="id3"><path d="M 108 144 L 216 144 L 216 207.5 L 108 207.5 Z M 108 144 " clip-rule="nonzero"/></clipPath></defs><path fill="#f2f2f2" d="M 193.664062 26.898438 C 193.664062 27.535156 193.601562 28.164062 193.480469 28.789062 C 193.355469 29.410156 193.171875 30.015625 192.929688 30.601562 C 192.683594 31.191406 192.386719 31.75 192.035156 32.277344 C 191.679688 32.804688 191.28125 33.292969 190.832031 33.746094 C 190.378906 34.195312 189.890625 34.59375 189.363281 34.949219 C 188.835938 35.300781 188.277344 35.601562 187.691406 35.84375 C 187.101562 36.085938 186.496094 36.269531 185.875 36.394531 C 185.25 36.519531 184.621094 36.582031 183.984375 36.582031 C 183.351562 36.582031 182.722656 36.519531 182.097656 36.394531 C 181.472656 36.269531 180.871094 36.085938 180.28125 35.84375 C 179.695312 35.601562 179.136719 35.300781 178.609375 34.949219 C 178.082031 34.59375 177.589844 34.195312 177.140625 33.746094 C 176.691406 33.292969 176.292969 32.804688 175.9375 32.277344 C 175.585938 31.75 175.285156 31.191406 175.042969 30.601562 C 174.800781 30.015625 174.617188 29.410156 174.492188 28.789062 C 174.367188 28.164062 174.308594 27.535156 174.308594 26.898438 C 174.308594 26.261719 174.367188 25.632812 174.492188 25.007812 C 174.617188 24.386719 174.800781 23.78125 175.042969 23.191406 C 175.285156 22.605469 175.585938 22.046875 175.9375 21.519531 C 176.292969 20.992188 176.691406 20.5 177.140625 20.050781 C 177.589844 19.601562 178.082031 19.203125 178.609375 18.847656 C 179.136719 18.496094 179.695312 18.195312 180.28125 17.953125 C 180.871094 17.710938 181.472656 17.527344 182.097656 17.402344 C 182.722656 17.277344 183.351562 17.214844 183.984375 17.214844 C 184.621094 17.214844 185.25 17.277344 185.875 17.402344 C 186.496094 17.527344 187.101562 17.710938 187.691406 17.953125 C 188.277344 18.195312 188.835938 18.496094 189.363281 18.847656 C 189.890625 19.203125 190.378906 19.601562 190.832031 20.050781 C 191.28125 20.5 191.679688 20.992188 192.035156 21.519531 C 192.386719 22.046875 192.683594 22.605469 192.929688 23.191406 C 193.171875 23.78125 193.355469 24.386719 193.480469 25.007812 C 193.601562 25.632812 193.664062 26.261719 193.664062 26.898438 Z M 193.664062 26.898438 " fill-opacity="1" fill-rule="nonzero"/><path fill="#f2f2f2" d="M 259.070312 180.265625 C 273.453125 169.304688 280.328125 150.886719 276.023438 133.316406 C 275.917969 132.878906 275.804688 132.445312 275.6875 132.011719 C 272.835938 121.582031 265.777344 111.667969 255.496094 108.335938 C 246.859375 105.539062 237.4375 107.6875 228.429688 106.578125 C 210.746094 104.390625 197.035156 90.082031 187.390625 75.09375 C 177.742188 60.109375 170.328125 43.339844 157.511719 30.957031 C 136.382812 10.554688 101.917969 6.160156 75.722656 19.441406 C 49.527344 32.726562 32.839844 62.191406 33.554688 91.5625 C 34.265625 120.929688 51.695312 149.007812 77.007812 163.90625 C 86.304688 169.378906 97.0625 173.257812 107.765625 171.898438 C 117.050781 170.722656 125.488281 165.730469 134.734375 164.25 C 149.265625 161.917969 163.707031 168.492188 176.277344 176.152344 C 188.847656 183.808594 200.988281 192.886719 215.269531 196.4375 C 229.140625 199.886719 246.324219 189.976562 259.070312 180.265625 Z M 259.070312 180.265625 " fill-opacity="1" fill-rule="nonzero"/><path fill="#3f3d56" d="M 238.398438 20.058594 C 238.082031 19.847656 237.765625 19.648438 237.449219 19.445312 C 228.300781 13.59375 218.597656 8.886719 208.335938 5.332031 L 205.964844 38.042969 L 190.9375 38.042969 L 190.9375 0.554688 C 189.992188 0.359375 189.039062 0.175781 188.085938 0 L 188.085938 38.042969 L 170.222656 38.042969 C 169.007812 38.042969 167.796875 37.984375 166.589844 37.867188 C 165.382812 37.746094 164.183594 37.566406 162.992188 37.332031 C 161.800781 37.09375 160.625 36.800781 159.460938 36.445312 C 158.300781 36.09375 157.160156 35.6875 156.035156 35.222656 C 154.914062 34.757812 153.820312 34.238281 152.75 33.664062 C 151.675781 33.09375 150.636719 32.46875 149.628906 31.792969 C 148.617188 31.121094 147.644531 30.398438 146.707031 29.625 C 145.765625 28.855469 144.867188 28.042969 144.007812 27.183594 C 143.152344 26.324219 142.335938 25.425781 141.566406 24.484375 C 140.796875 23.546875 140.074219 22.574219 139.398438 21.5625 C 138.726562 20.554688 138.101562 19.511719 137.527344 18.441406 C 136.957031 17.371094 136.4375 16.273438 135.972656 15.152344 C 135.507812 14.03125 135.101562 12.886719 134.746094 11.726562 C 134.394531 10.5625 134.101562 9.386719 133.863281 8.195312 C 133.628906 7.003906 133.449219 5.804688 133.328125 4.597656 C 133.210938 3.386719 133.152344 2.175781 133.152344 0.960938 C 132.195312 1.167969 131.246094 1.390625 130.296875 1.625 L 130.296875 38.042969 L 115.75 38.042969 L 113.488281 6.847656 C 102.941406 10.894531 93.042969 16.15625 83.785156 22.632812 C 83.628906 22.742188 83.46875 22.855469 83.3125 22.964844 C 82.511719 23.527344 81.71875 24.097656 80.933594 24.679688 L 80.933594 149.480469 L 123.804688 149.480469 L 123.046875 138.984375 L 118.878906 81.347656 L 202.832031 81.347656 L 198.660156 138.984375 L 197.902344 149.480469 L 240.300781 149.480469 L 240.300781 21.320312 C 239.671875 20.894531 239.035156 20.472656 238.398438 20.058594 Z M 130.296875 71.832031 L 118.191406 71.832031 L 115.953125 40.902344 L 130.296875 40.902344 Z M 188.085938 71.832031 L 167.753906 71.832031 L 167.753906 71.21875 C 167.753906 70.921875 167.699219 70.632812 167.585938 70.359375 C 167.46875 70.085938 167.308594 69.84375 167.097656 69.632812 C 166.886719 69.421875 166.644531 69.261719 166.371094 69.148438 C 166.09375 69.035156 165.808594 68.976562 165.511719 68.976562 L 156.671875 68.976562 C 156.375 68.976562 156.089844 69.035156 155.816406 69.148438 C 155.542969 69.261719 155.300781 69.421875 155.089844 69.632812 C 154.878906 69.84375 154.71875 70.085938 154.605469 70.359375 C 154.492188 70.636719 154.433594 70.921875 154.433594 71.21875 L 154.433594 71.832031 L 133.152344 71.832031 L 133.152344 40.902344 L 188.085938 40.902344 Z M 190.9375 71.832031 L 190.9375 40.902344 L 205.757812 40.902344 L 203.523438 71.832031 Z M 190.9375 71.832031 " fill-opacity="1" fill-rule="nonzero"/><g clip-path="url(#id1)"><path fill="#3f3d56" d="M 17.847656 157.472656 C 21 161.210938 24.398438 164.710938 28.039062 167.972656 L 292.871094 168.332031 C 296.515625 165.070312 299.914062 161.574219 303.066406 157.835938 Z M 17.847656 157.472656 " fill-opacity="1" fill-rule="nonzero"/></g><path fill="#3f3d56" d="M 197.4375 123.859375 L 197.4375 154.9375 C 197.4375 155.136719 197.476562 155.324219 197.550781 155.507812 C 197.628906 155.691406 197.734375 155.851562 197.875 155.992188 C 198.015625 156.132812 198.175781 156.242188 198.359375 156.316406 C 198.542969 156.390625 198.734375 156.429688 198.929688 156.429688 L 244.96875 156.429688 C 245.167969 156.429688 245.359375 156.390625 245.539062 156.316406 C 245.722656 156.242188 245.886719 156.132812 246.023438 155.992188 C 246.164062 155.851562 246.273438 155.691406 246.347656 155.507812 C 246.425781 155.324219 246.460938 155.136719 246.460938 154.9375 L 246.460938 123.859375 C 246.460938 123.664062 246.425781 123.472656 246.347656 123.289062 C 246.273438 123.105469 246.164062 122.945312 246.023438 122.804688 C 245.882812 122.667969 245.722656 122.558594 245.539062 122.484375 C 245.359375 122.40625 245.167969 122.367188 244.96875 122.367188 L 198.929688 122.367188 C 198.734375 122.367188 198.542969 122.40625 198.359375 122.484375 C 198.175781 122.558594 198.015625 122.667969 197.875 122.804688 C 197.738281 122.945312 197.628906 123.105469 197.550781 123.289062 C 197.476562 123.472656 197.4375 123.664062 197.4375 123.859375 Z M 197.4375 123.859375 " fill-opacity="1" fill-rule="nonzero"/><path fill="#9e30ff" d="M 198.519531 124.246094 L 198.519531 154.554688 C 198.519531 154.773438 198.597656 154.960938 198.753906 155.117188 C 198.90625 155.273438 199.09375 155.351562 199.316406 155.351562 L 244.585938 155.351562 C 244.804688 155.351562 244.996094 155.273438 245.148438 155.117188 C 245.304688 154.960938 245.382812 154.773438 245.382812 154.554688 L 245.382812 124.246094 C 245.382812 124.027344 245.304688 123.839844 245.152344 123.683594 C 244.996094 123.527344 244.808594 123.449219 244.585938 123.449219 L 199.316406 123.449219 C 199.09375 123.449219 198.90625 123.527344 198.75 123.683594 C 198.597656 123.839844 198.519531 124.027344 198.519531 124.246094 Z M 198.519531 124.246094 " fill-opacity="1" fill-rule="nonzero"/><path fill="#2f2e41" d="M 196.476562 160.996094 C 196.65625 161.222656 196.890625 161.335938 197.179688 161.335938 L 246.476562 161.335938 C 246.613281 161.335938 246.742188 161.304688 246.867188 161.246094 C 246.988281 161.1875 247.09375 161.105469 247.179688 161 C 247.265625 160.894531 247.324219 160.773438 247.355469 160.640625 C 247.386719 160.507812 247.390625 160.375 247.363281 160.242188 L 246.597656 156.605469 C 246.527344 156.285156 246.339844 156.0625 246.03125 155.945312 C 245.929688 155.90625 245.820312 155.886719 245.710938 155.886719 L 197.941406 155.886719 C 197.832031 155.886719 197.722656 155.90625 197.621094 155.945312 C 197.3125 156.0625 197.125 156.285156 197.054688 156.605469 L 196.289062 160.242188 C 196.230469 160.523438 196.292969 160.773438 196.476562 160.996094 Z M 196.476562 160.996094 " fill-opacity="1" fill-rule="nonzero"/><path fill="#3f3d56" d="M 245.183594 157.453125 L 244.019531 157.453125 C 243.902344 157.453125 243.84375 157.394531 243.84375 157.273438 L 243.84375 156.71875 C 243.84375 156.601562 243.902344 156.539062 244.019531 156.539062 L 245.183594 156.539062 C 245.300781 156.539062 245.359375 156.601562 245.359375 156.71875 L 245.359375 157.273438 C 245.359375 157.394531 245.300781 157.453125 245.183594 157.453125 Z M 245.183594 157.453125 " fill-opacity="1" fill-rule="nonzero"/><path fill="#3f3d56" d="M 242.148438 157.453125 L 240.984375 157.453125 C 240.863281 157.453125 240.804688 157.394531 240.804688 157.273438 L 240.804688 156.71875 C 240.804688 156.601562 240.863281 156.539062 240.984375 156.539062 L 242.148438 156.539062 C 242.265625 156.539062 242.324219 156.601562 242.324219 156.71875 L 242.324219 157.273438 C 242.324219 157.394531 242.265625 157.453125 242.148438 157.453125 Z M 242.148438 157.453125 " fill-opacity="1" fill-rule="nonzero"/><path fill="#3f3d56" d="M 239.109375 157.453125 L 237.945312 157.453125 C 237.828125 157.453125 237.769531 157.394531 237.769531 157.273438 L 237.769531 156.71875 C 237.769531 156.601562 237.828125 156.539062 237.945312 156.539062 L 239.109375 156.539062 C 239.230469 156.539062 239.289062 156.601562 239.289062 156.71875 L 239.289062 157.273438 C 239.289062 157.394531 239.230469 157.453125 239.109375 157.453125 Z M 239.109375 157.453125 " fill-opacity="1" fill-rule="nonzero"/><path fill="#3f3d56" d="M 236.074219 157.453125 L 234.910156 157.453125 C 234.792969 157.453125 234.734375 157.394531 234.734375 157.273438 L 234.734375 156.71875 C 234.734375 156.601562 234.792969 156.539062 234.910156 156.539062 L 236.074219 156.539062 C 236.191406 156.539062 236.25 156.601562 236.25 156.71875 L 236.25 157.273438 C 236.25 157.394531 236.191406 157.453125 236.074219 157.453125 Z M 236.074219 157.453125 " fill-opacity="1" fill-rule="nonzero"/><path fill="#3f3d56" d="M 233.039062 157.453125 L 231.871094 157.453125 C 231.753906 157.453125 231.695312 157.394531 231.695312 157.273438 L 231.695312 156.71875 C 231.695312 156.601562 231.753906 156.539062 231.871094 156.539062 L 233.039062 156.539062 C 233.15625 156.539062 233.214844 156.601562 233.214844 156.71875 L 233.214844 157.273438 C 233.214844 157.394531 233.15625 157.453125 233.039062 157.453125 Z M 233.039062 157.453125 " fill-opacity="1" fill-rule="nonzero"/><path fill="#3f3d56" d="M 230 157.453125 L 228.835938 157.453125 C 228.71875 157.453125 228.660156 157.394531 228.660156 157.273438 L 228.660156 156.71875 C 228.660156 156.601562 228.71875 156.539062 228.835938 156.539062 L 230 156.539062 C 230.117188 156.539062 230.175781 156.601562 230.175781 156.71875 L 230.175781 157.273438 C 230.175781 157.394531 230.117188 157.453125 230 157.453125 Z M 230 157.453125 " fill-opacity="1" fill-rule="nonzero"/><path fill="#3f3d56" d="M 226.964844 157.453125 L 225.800781 157.453125 C 225.679688 157.453125 225.621094 157.394531 225.621094 157.273438 L 225.621094 156.71875 C 225.621094 156.601562 225.679688 156.539062 225.800781 156.539062 L 226.964844 156.539062 C 227.082031 156.539062 227.140625 156.601562 227.140625 156.71875 L 227.140625 157.273438 C 227.140625 157.394531 227.082031 157.453125 226.964844 157.453125 Z M 226.964844 157.453125 " fill-opacity="1" fill-rule="nonzero"/><path fill="#3f3d56" d="M 223.925781 157.453125 L 222.761719 157.453125 C 222.644531 157.453125 222.585938 157.394531 222.585938 157.273438 L 222.585938 156.71875 C 222.585938 156.601562 222.644531 156.539062 222.761719 156.539062 L 223.925781 156.539062 C 224.046875 156.539062 224.105469 156.601562 224.105469 156.71875 L 224.105469 157.273438 C 224.105469 157.394531 224.046875 157.453125 223.925781 157.453125 Z M 223.925781 157.453125 " fill-opacity="1" fill-rule="nonzero"/><path fill="#3f3d56" d="M 220.890625 157.453125 L 219.726562 157.453125 C 219.609375 157.453125 219.550781 157.394531 219.550781 157.273438 L 219.550781 156.71875 C 219.550781 156.601562 219.609375 156.539062 219.726562 156.539062 L 220.890625 156.539062 C 221.007812 156.539062 221.066406 156.601562 221.066406 156.71875 L 221.066406 157.273438 C 221.066406 157.394531 221.007812 157.453125 220.890625 157.453125 Z M 220.890625 157.453125 " fill-opacity="1" fill-rule="nonzero"/><path fill="#3f3d56" d="M 217.855469 157.453125 L 216.691406 157.453125 C 216.570312 157.453125 216.511719 157.394531 216.511719 157.273438 L 216.511719 156.71875 C 216.511719 156.601562 216.570312 156.539062 216.691406 156.539062 L 217.855469 156.539062 C 217.972656 156.539062 218.03125 156.601562 218.03125 156.71875 L 218.03125 157.273438 C 218.03125 157.394531 217.972656 157.453125 217.855469 157.453125 Z M 217.855469 157.453125 " fill-opacity="1" fill-rule="nonzero"/><path fill="#3f3d56" d="M 214.816406 157.453125 L 213.652344 157.453125 C 213.535156 157.453125 213.476562 157.394531 213.476562 157.273438 L 213.476562 156.71875 C 213.476562 156.601562 213.535156 156.539062 213.652344 156.539062 L 214.816406 156.539062 C 214.933594 156.539062 214.996094 156.601562 214.996094 156.71875 L 214.996094 157.273438 C 214.996094 157.394531 214.933594 157.453125 214.816406 157.453125 Z M 214.816406 157.453125 " fill-opacity="1" fill-rule="nonzero"/><path fill="#3f3d56" d="M 211.78125 157.453125 L 210.617188 157.453125 C 210.5 157.453125 210.441406 157.394531 210.441406 157.273438 L 210.441406 156.71875 C 210.441406 156.601562 210.5 156.539062 210.617188 156.539062 L 211.78125 156.539062 C 211.898438 156.539062 211.957031 156.601562 211.957031 156.71875 L 211.957031 157.273438 C 211.957031 157.394531 211.898438 157.453125 211.78125 157.453125 Z M 211.78125 157.453125 " fill-opacity="1" fill-rule="nonzero"/><path fill="#3f3d56" d="M 208.746094 157.453125 L 207.582031 157.453125 C 207.460938 157.453125 207.402344 157.394531 207.402344 157.273438 L 207.402344 156.71875 C 207.402344 156.601562 207.460938 156.539062 207.582031 156.539062 L 208.746094 156.539062 C 208.863281 156.539062 208.921875 156.601562 208.921875 156.71875 L 208.921875 157.273438 C 208.921875 157.394531 208.863281 157.453125 208.746094 157.453125 Z M 208.746094 157.453125 " fill-opacity="1" fill-rule="nonzero"/><path fill="#3f3d56" d="M 205.707031 157.453125 L 204.542969 157.453125 C 204.425781 157.453125 204.367188 157.394531 204.367188 157.273438 L 204.367188 156.71875 C 204.367188 156.601562 204.425781 156.539062 204.542969 156.539062 L 205.707031 156.539062 C 205.824219 156.539062 205.882812 156.601562 205.882812 156.71875 L 205.882812 157.273438 C 205.882812 157.394531 205.824219 157.453125 205.707031 157.453125 Z M 205.707031 157.453125 " fill-opacity="1" fill-rule="nonzero"/><path fill="#3f3d56" d="M 202.671875 157.453125 L 201.507812 157.453125 C 201.386719 157.453125 201.328125 157.394531 201.328125 157.273438 L 201.328125 156.71875 C 201.328125 156.601562 201.386719 156.539062 201.507812 156.539062 L 202.671875 156.539062 C 202.789062 156.539062 202.847656 156.601562 202.847656 156.71875 L 202.847656 157.273438 C 202.847656 157.394531 202.789062 157.453125 202.671875 157.453125 Z M 202.671875 157.453125 " fill-opacity="1" fill-rule="nonzero"/><path fill="#3f3d56" d="M 199.632812 157.453125 L 198.46875 157.453125 C 198.351562 157.453125 198.292969 157.394531 198.292969 157.273438 L 198.292969 156.71875 C 198.292969 156.601562 198.351562 156.539062 198.46875 156.539062 L 199.632812 156.539062 C 199.753906 156.539062 199.8125 156.601562 199.8125 156.71875 L 199.8125 157.273438 C 199.8125 157.394531 199.753906 157.453125 199.632812 157.453125 Z M 199.632812 157.453125 " fill-opacity="1" fill-rule="nonzero"/><path fill="#3f3d56" d="M 245.21875 158.96875 L 244.054688 158.96875 C 243.9375 158.96875 243.878906 158.910156 243.878906 158.792969 L 243.878906 158.234375 C 243.878906 158.117188 243.9375 158.058594 244.054688 158.058594 L 245.21875 158.058594 C 245.335938 158.058594 245.394531 158.117188 245.394531 158.234375 L 245.394531 158.792969 C 245.394531 158.910156 245.335938 158.96875 245.21875 158.96875 Z M 245.21875 158.96875 " fill-opacity="1" fill-rule="nonzero"/><path fill="#3f3d56" d="M 242.183594 158.96875 L 241.019531 158.96875 C 240.902344 158.96875 240.839844 158.910156 240.839844 158.792969 L 240.839844 158.234375 C 240.839844 158.117188 240.902344 158.058594 241.019531 158.058594 L 242.183594 158.058594 C 242.300781 158.058594 242.359375 158.117188 242.359375 158.234375 L 242.359375 158.792969 C 242.359375 158.910156 242.300781 158.96875 242.183594 158.96875 Z M 242.183594 158.96875 " fill-opacity="1" fill-rule="nonzero"/><path fill="#3f3d56" d="M 239.144531 158.96875 L 237.980469 158.96875 C 237.863281 158.96875 237.804688 158.910156 237.804688 158.792969 L 237.804688 158.234375 C 237.804688 158.117188 237.863281 158.058594 237.980469 158.058594 L 239.144531 158.058594 C 239.265625 158.058594 239.324219 158.117188 239.324219 158.234375 L 239.324219 158.792969 C 239.324219 158.910156 239.265625 158.96875 239.144531 158.96875 Z M 239.144531 158.96875 " fill-opacity="1" fill-rule="nonzero"/><path fill="#3f3d56" d="M 236.109375 158.96875 L 234.945312 158.96875 C 234.828125 158.96875 234.769531 158.910156 234.769531 158.792969 L 234.769531 158.234375 C 234.769531 158.117188 234.828125 158.058594 234.945312 158.058594 L 236.109375 158.058594 C 236.226562 158.058594 236.285156 158.117188 236.285156 158.234375 L 236.285156 158.792969 C 236.285156 158.910156 236.226562 158.96875 236.109375 158.96875 Z M 236.109375 158.96875 " fill-opacity="1" fill-rule="nonzero"/><path fill="#3f3d56" d="M 233.074219 158.96875 L 231.910156 158.96875 C 231.789062 158.96875 231.730469 158.910156 231.730469 158.792969 L 231.730469 158.234375 C 231.730469 158.117188 231.789062 158.058594 231.910156 158.058594 L 233.074219 158.058594 C 233.191406 158.058594 233.25 158.117188 233.25 158.234375 L 233.25 158.792969 C 233.25 158.910156 233.191406 158.96875 233.074219 158.96875 Z M 233.074219 158.96875 " fill-opacity="1" fill-rule="nonzero"/><path fill="#3f3d56" d="M 230.035156 158.96875 L 228.871094 158.96875 C 228.753906 158.96875 228.695312 158.910156 228.695312 158.792969 L 228.695312 158.234375 C 228.695312 158.117188 228.753906 158.058594 228.871094 158.058594 L 230.035156 158.058594 C 230.152344 158.058594 230.214844 158.117188 230.214844 158.234375 L 230.214844 158.792969 C 230.214844 158.910156 230.152344 158.96875 230.035156 158.96875 Z M 230.035156 158.96875 " fill-opacity="1" fill-rule="nonzero"/><path fill="#3f3d56" d="M 227 158.96875 L 225.835938 158.96875 C 225.71875 158.96875 225.660156 158.910156 225.660156 158.792969 L 225.660156 158.234375 C 225.660156 158.117188 225.71875 158.058594 225.835938 158.058594 L 227 158.058594 C 227.117188 158.058594 227.175781 158.117188 227.175781 158.234375 L 227.175781 158.792969 C 227.175781 158.910156 227.117188 158.96875 227 158.96875 Z M 227 158.96875 " fill-opacity="1" fill-rule="nonzero"/><path fill="#3f3d56" d="M 223.964844 158.96875 L 222.796875 158.96875 C 222.679688 158.96875 222.621094 158.910156 222.621094 158.792969 L 222.621094 158.234375 C 222.621094 158.117188 222.679688 158.058594 222.796875 158.058594 L 223.964844 158.058594 C 224.082031 158.058594 224.140625 158.117188 224.140625 158.234375 L 224.140625 158.792969 C 224.140625 158.910156 224.082031 158.96875 223.964844 158.96875 Z M 223.964844 158.96875 " fill-opacity="1" fill-rule="nonzero"/><path fill="#3f3d56" d="M 220.925781 158.96875 L 219.761719 158.96875 C 219.644531 158.96875 219.585938 158.910156 219.585938 158.792969 L 219.585938 158.234375 C 219.585938 158.117188 219.644531 158.058594 219.761719 158.058594 L 220.925781 158.058594 C 221.042969 158.058594 221.101562 158.117188 221.101562 158.234375 L 221.101562 158.792969 C 221.101562 158.910156 221.042969 158.96875 220.925781 158.96875 Z M 220.925781 158.96875 " fill-opacity="1" fill-rule="nonzero"/><path fill="#3f3d56" d="M 217.890625 158.96875 L 216.726562 158.96875 C 216.609375 158.96875 216.550781 158.910156 216.550781 158.792969 L 216.550781 158.234375 C 216.550781 158.117188 216.609375 158.058594 216.726562 158.058594 L 217.890625 158.058594 C 218.007812 158.058594 218.066406 158.117188 218.066406 158.234375 L 218.066406 158.792969 C 218.066406 158.910156 218.007812 158.96875 217.890625 158.96875 Z M 217.890625 158.96875 " fill-opacity="1" fill-rule="nonzero"/><path fill="#3f3d56" d="M 214.851562 158.96875 L 213.6875 158.96875 C 213.570312 158.96875 213.511719 158.910156 213.511719 158.792969 L 213.511719 158.234375 C 213.511719 158.117188 213.570312 158.058594 213.6875 158.058594 L 214.851562 158.058594 C 214.972656 158.058594 215.03125 158.117188 215.03125 158.234375 L 215.03125 158.792969 C 215.03125 158.910156 214.972656 158.96875 214.851562 158.96875 Z M 214.851562 158.96875 " fill-opacity="1" fill-rule="nonzero"/><path fill="#3f3d56" d="M 211.816406 158.96875 L 210.652344 158.96875 C 210.535156 158.96875 210.476562 158.910156 210.476562 158.792969 L 210.476562 158.234375 C 210.476562 158.117188 210.535156 158.058594 210.652344 158.058594 L 211.816406 158.058594 C 211.933594 158.058594 211.992188 158.117188 211.992188 158.234375 L 211.992188 158.792969 C 211.992188 158.910156 211.933594 158.96875 211.816406 158.96875 Z M 211.816406 158.96875 " fill-opacity="1" fill-rule="nonzero"/><path fill="#3f3d56" d="M 208.78125 158.96875 L 207.617188 158.96875 C 207.496094 158.96875 207.4375 158.910156 207.4375 158.792969 L 207.4375 158.234375 C 207.4375 158.117188 207.496094 158.058594 207.617188 158.058594 L 208.78125 158.058594 C 208.898438 158.058594 208.957031 158.117188 208.957031 158.234375 L 208.957031 158.792969 C 208.957031 158.910156 208.898438 158.96875 208.78125 158.96875 Z M 208.78125 158.96875 " fill-opacity="1" fill-rule="nonzero"/><path fill="#3f3d56" d="M 205.742188 158.96875 L 204.578125 158.96875 C 204.460938 158.96875 204.402344 158.910156 204.402344 158.792969 L 204.402344 158.234375 C 204.402344 158.117188 204.460938 158.058594 204.578125 158.058594 L 205.742188 158.058594 C 205.859375 158.058594 205.921875 158.117188 205.921875 158.234375 L 205.921875 158.792969 C 205.921875 158.910156 205.859375 158.96875 205.742188 158.96875 Z M 205.742188 158.96875 " fill-opacity="1" fill-rule="nonzero"/><path fill="#3f3d56" d="M 202.707031 158.96875 L 201.542969 158.96875 C 201.425781 158.96875 201.367188 158.910156 201.367188 158.792969 L 201.367188 158.234375 C 201.367188 158.117188 201.425781 158.058594 201.542969 158.058594 L 202.707031 158.058594 C 202.824219 158.058594 202.882812 158.117188 202.882812 158.234375 L 202.882812 158.792969 C 202.882812 158.910156 202.824219 158.96875 202.707031 158.96875 Z M 202.707031 158.96875 " fill-opacity="1" fill-rule="nonzero"/><path fill="#3f3d56" d="M 199.671875 158.96875 L 198.503906 158.96875 C 198.386719 158.96875 198.328125 158.910156 198.328125 158.792969 L 198.328125 158.234375 C 198.328125 158.117188 198.386719 158.058594 198.503906 158.058594 L 199.671875 158.058594 C 199.789062 158.058594 199.847656 158.117188 199.847656 158.234375 L 199.847656 158.792969 C 199.847656 158.910156 199.789062 158.96875 199.671875 158.96875 Z M 199.671875 158.96875 " fill-opacity="1" fill-rule="nonzero"/><path fill="#3f3d56" d="M 230.644531 160.792969 L 218.851562 160.792969 C 218.734375 160.792969 218.675781 160.734375 218.675781 160.617188 L 218.675781 160.058594 C 218.675781 159.941406 218.734375 159.882812 218.851562 159.882812 L 230.644531 159.882812 C 230.761719 159.882812 230.820312 159.941406 230.820312 160.058594 L 230.820312 160.617188 C 230.820312 160.734375 230.761719 160.792969 230.644531 160.792969 Z M 230.644531 160.792969 " fill-opacity="1" fill-rule="nonzero"/><path fill="#ffffff" d="M 205.328125 130.078125 L 206.359375 130.078125 C 206.511719 130.078125 206.648438 130.132812 206.757812 130.242188 C 206.867188 130.355469 206.921875 130.488281 206.921875 130.644531 C 206.921875 130.800781 206.867188 130.933594 206.757812 131.042969 C 206.648438 131.15625 206.511719 131.210938 206.359375 131.210938 L 205.328125 131.210938 C 205.171875 131.210938 205.035156 131.15625 204.925781 131.042969 C 204.816406 130.933594 204.761719 130.800781 204.761719 130.644531 C 204.761719 130.488281 204.816406 130.355469 204.925781 130.242188 C 205.035156 130.132812 205.171875 130.078125 205.328125 130.078125 Z M 205.328125 130.078125 " fill-opacity="1" fill-rule="nonzero"/><path fill="#ffffff" d="M 217.117188 130.078125 L 218.148438 130.078125 C 218.304688 130.078125 218.4375 130.132812 218.546875 130.242188 C 218.65625 130.355469 218.710938 130.488281 218.710938 130.644531 C 218.710938 130.800781 218.65625 130.933594 218.546875 131.042969 C 218.4375 131.15625 218.304688 131.210938 218.148438 131.210938 L 217.117188 131.210938 C 216.960938 131.210938 216.828125 131.15625 216.714844 131.042969 C 216.605469 130.933594 216.550781 130.800781 216.550781 130.644531 C 216.550781 130.488281 216.605469 130.355469 216.714844 130.242188 C 216.828125 130.132812 216.960938 130.078125 217.117188 130.078125 Z M 217.117188 130.078125 " fill-opacity="1" fill-rule="nonzero"/><path fill="#ffffff" d="M 220.457031 130.078125 L 221.488281 130.078125 C 221.644531 130.078125 221.777344 130.132812 221.886719 130.242188 C 221.996094 130.355469 222.054688 130.488281 222.054688 130.644531 C 222.054688 130.800781 221.996094 130.933594 221.886719 131.042969 C 221.777344 131.15625 221.644531 131.210938 221.488281 131.210938 L 220.457031 131.210938 C 220.300781 131.210938 220.167969 131.15625 220.054688 131.042969 C 219.945312 130.933594 219.890625 130.800781 219.890625 130.644531 C 219.890625 130.488281 219.945312 130.355469 220.054688 130.242188 C 220.167969 130.132812 220.300781 130.078125 220.457031 130.078125 Z M 220.457031 130.078125 " fill-opacity="1" fill-rule="nonzero"/><path fill="#ffffff" d="M 208.53125 129.984375 L 214.941406 129.984375 C 215.097656 129.984375 215.230469 130.039062 215.339844 130.148438 C 215.449219 130.261719 215.503906 130.394531 215.503906 130.550781 C 215.503906 130.707031 215.449219 130.839844 215.339844 130.949219 C 215.230469 131.058594 215.097656 131.117188 214.941406 131.117188 L 208.53125 131.117188 C 208.375 131.117188 208.242188 131.058594 208.132812 130.949219 C 208.023438 130.839844 207.96875 130.707031 207.96875 130.550781 C 207.96875 130.394531 208.023438 130.261719 208.132812 130.148438 C 208.242188 130.039062 208.375 129.984375 208.53125 129.984375 Z M 208.53125 129.984375 " fill-opacity="1" fill-rule="nonzero"/><path fill="#ffffff" d="M 224.253906 129.984375 L 230.660156 129.984375 C 230.816406 129.984375 230.949219 130.039062 231.058594 130.148438 C 231.167969 130.261719 231.226562 130.394531 231.226562 130.550781 C 231.226562 130.707031 231.167969 130.839844 231.058594 130.949219 C 230.949219 131.058594 230.816406 131.117188 230.660156 131.117188 L 224.253906 131.117188 C 224.097656 131.117188 223.960938 131.058594 223.851562 130.949219 C 223.742188 130.839844 223.6875 130.707031 223.6875 130.550781 C 223.6875 130.394531 223.742188 130.261719 223.851562 130.148438 C 223.960938 130.039062 224.097656 129.984375 224.253906 129.984375 Z M 224.253906 129.984375 " fill-opacity="1" fill-rule="nonzero"/><path fill="#ffffff" d="M 208.46875 132.632812 L 209.5 132.632812 C 209.65625 132.632812 209.789062 132.6875 209.902344 132.796875 C 210.011719 132.910156 210.066406 133.042969 210.066406 133.199219 C 210.066406 133.355469 210.011719 133.488281 209.902344 133.597656 C 209.789062 133.710938 209.65625 133.765625 209.5 133.765625 L 208.46875 133.765625 C 208.3125 133.765625 208.179688 133.710938 208.070312 133.597656 C 207.960938 133.488281 207.90625 133.355469 207.90625 133.199219 C 207.90625 133.042969 207.960938 132.910156 208.070312 132.796875 C 208.179688 132.6875 208.3125 132.632812 208.46875 132.632812 Z M 208.46875 132.632812 " fill-opacity="1" fill-rule="nonzero"/><path fill="#ffffff" d="M 220.261719 132.632812 L 221.289062 132.632812 C 221.445312 132.632812 221.582031 132.6875 221.691406 132.796875 C 221.800781 132.910156 221.855469 133.042969 221.855469 133.199219 C 221.855469 133.355469 221.800781 133.488281 221.691406 133.597656 C 221.582031 133.710938 221.445312 133.765625 221.289062 133.765625 L 220.261719 133.765625 C 220.105469 133.765625 219.96875 133.710938 219.859375 133.597656 C 219.75 133.488281 219.695312 133.355469 219.695312 133.199219 C 219.695312 133.042969 219.75 132.910156 219.859375 132.796875 C 219.96875 132.6875 220.105469 132.632812 220.261719 132.632812 Z M 220.261719 132.632812 " fill-opacity="1" fill-rule="nonzero"/><path fill="#ffffff" d="M 223.601562 132.632812 L 224.632812 132.632812 C 224.789062 132.632812 224.921875 132.6875 225.03125 132.796875 C 225.140625 132.910156 225.195312 133.042969 225.195312 133.199219 C 225.195312 133.355469 225.140625 133.488281 225.03125 133.597656 C 224.921875 133.710938 224.789062 133.765625 224.632812 133.765625 L 223.601562 133.765625 C 223.445312 133.765625 223.3125 133.710938 223.199219 133.597656 C 223.089844 133.488281 223.035156 133.355469 223.035156 133.199219 C 223.035156 133.042969 223.089844 132.910156 223.199219 132.796875 C 223.3125 132.6875 223.445312 132.632812 223.601562 132.632812 Z M 223.601562 132.632812 " fill-opacity="1" fill-rule="nonzero"/><path fill="#ffffff" d="M 211.675781 132.539062 L 218.082031 132.539062 C 218.238281 132.539062 218.375 132.59375 218.484375 132.703125 C 218.59375 132.816406 218.648438 132.949219 218.648438 133.105469 C 218.648438 133.261719 218.59375 133.394531 218.484375 133.503906 C 218.375 133.613281 218.238281 133.671875 218.082031 133.671875 L 211.675781 133.671875 C 211.519531 133.671875 211.386719 133.613281 211.277344 133.503906 C 211.167969 133.394531 211.109375 133.261719 211.109375 133.105469 C 211.109375 132.949219 211.167969 132.816406 211.277344 132.703125 C 211.386719 132.59375 211.519531 132.539062 211.675781 132.539062 Z M 211.675781 132.539062 " fill-opacity="1" fill-rule="nonzero"/><path fill="#ffffff" d="M 227.394531 132.539062 L 233.804688 132.539062 C 233.960938 132.539062 234.09375 132.59375 234.203125 132.703125 C 234.3125 132.816406 234.367188 132.949219 234.367188 133.105469 C 234.367188 133.261719 234.3125 133.394531 234.203125 133.503906 C 234.09375 133.613281 233.960938 133.671875 233.804688 133.671875 L 227.394531 133.671875 C 227.238281 133.671875 227.105469 133.613281 226.996094 133.503906 C 226.886719 133.394531 226.832031 133.261719 226.832031 133.105469 C 226.832031 132.949219 226.886719 132.816406 226.996094 132.703125 C 227.105469 132.59375 227.238281 132.539062 227.394531 132.539062 Z M 227.394531 132.539062 " fill-opacity="1" fill-rule="nonzero"/><path fill="#ffffff" d="M 211.613281 135.1875 L 212.644531 135.1875 C 212.800781 135.1875 212.933594 135.242188 213.046875 135.355469 C 213.15625 135.464844 213.210938 135.597656 213.210938 135.753906 C 213.210938 135.910156 213.15625 136.042969 213.046875 136.152344 C 212.933594 136.265625 212.800781 136.320312 212.644531 136.320312 L 211.613281 136.320312 C 211.457031 136.320312 211.324219 136.265625 211.214844 136.152344 C 211.105469 136.042969 211.046875 135.910156 211.046875 135.753906 C 211.046875 135.597656 211.105469 135.464844 211.214844 135.355469 C 211.324219 135.242188 211.457031 135.1875 211.613281 135.1875 Z M 211.613281 135.1875 " fill-opacity="1" fill-rule="nonzero"/><path fill="#ffffff" d="M 223.402344 135.1875 L 224.433594 135.1875 C 224.589844 135.1875 224.722656 135.242188 224.835938 135.355469 C 224.945312 135.464844 225 135.597656 225 135.753906 C 225 135.910156 224.945312 136.042969 224.835938 136.152344 C 224.722656 136.265625 224.589844 136.320312 224.433594 136.320312 L 223.402344 136.320312 C 223.246094 136.320312 223.113281 136.265625 223.003906 136.152344 C 222.894531 136.042969 222.839844 135.910156 222.839844 135.753906 C 222.839844 135.597656 222.894531 135.464844 223.003906 135.355469 C 223.113281 135.242188 223.246094 135.1875 223.402344 135.1875 Z M 223.402344 135.1875 " fill-opacity="1" fill-rule="nonzero"/><path fill="#ffffff" d="M 226.746094 135.1875 L 227.773438 135.1875 C 227.929688 135.1875 228.066406 135.242188 228.175781 135.355469 C 228.285156 135.464844 228.339844 135.597656 228.339844 135.753906 C 228.339844 135.910156 228.285156 136.042969 228.175781 136.152344 C 228.066406 136.265625 227.929688 136.320312 227.773438 136.320312 L 226.746094 136.320312 C 226.585938 136.320312 226.453125 136.265625 226.34375 136.152344 C 226.234375 136.042969 226.179688 135.910156 226.179688 135.753906 C 226.179688 135.597656 226.234375 135.464844 226.34375 135.355469 C 226.453125 135.242188 226.585938 135.1875 226.746094 135.1875 Z M 226.746094 135.1875 " fill-opacity="1" fill-rule="nonzero"/><path fill="#ffffff" d="M 214.820312 135.09375 L 221.226562 135.09375 C 221.382812 135.09375 221.515625 135.148438 221.628906 135.257812 C 221.738281 135.371094 221.792969 135.503906 221.792969 135.660156 C 221.792969 135.816406 221.738281 135.949219 221.628906 136.058594 C 221.515625 136.171875 221.382812 136.226562 221.226562 136.226562 L 214.820312 136.226562 C 214.664062 136.226562 214.53125 136.171875 214.421875 136.058594 C 214.308594 135.949219 214.253906 135.816406 214.253906 135.660156 C 214.253906 135.503906 214.308594 135.371094 214.421875 135.257812 C 214.53125 135.148438 214.664062 135.09375 214.820312 135.09375 Z M 214.820312 135.09375 " fill-opacity="1" fill-rule="nonzero"/><path fill="#ffffff" d="M 230.539062 135.09375 L 236.945312 135.09375 C 237.101562 135.09375 237.238281 135.148438 237.347656 135.257812 C 237.457031 135.371094 237.511719 135.503906 237.511719 135.660156 C 237.511719 135.816406 237.457031 135.949219 237.347656 136.058594 C 237.238281 136.171875 237.101562 136.226562 236.945312 136.226562 L 230.539062 136.226562 C 230.382812 136.226562 230.25 136.171875 230.140625 136.058594 C 230.03125 135.949219 229.972656 135.816406 229.972656 135.660156 C 229.972656 135.503906 230.03125 135.371094 230.140625 135.257812 C 230.25 135.148438 230.382812 135.09375 230.539062 135.09375 Z M 230.539062 135.09375 " fill-opacity="1" fill-rule="nonzero"/><path fill="#ffffff" d="M 214.757812 137.742188 L 215.789062 137.742188 C 215.945312 137.742188 216.078125 137.796875 216.1875 137.910156 C 216.300781 138.019531 216.355469 138.152344 216.355469 138.308594 C 216.355469 138.464844 216.300781 138.597656 216.1875 138.710938 C 216.078125 138.820312 215.945312 138.875 215.789062 138.875 L 214.757812 138.875 C 214.601562 138.875 214.46875 138.820312 214.359375 138.710938 C 214.246094 138.597656 214.191406 138.464844 214.191406 138.308594 C 214.191406 138.152344 214.246094 138.019531 214.359375 137.910156 C 214.46875 137.796875 214.601562 137.742188 214.757812 137.742188 Z M 214.757812 137.742188 " fill-opacity="1" fill-rule="nonzero"/><path fill="#ffffff" d="M 226.546875 137.742188 L 227.578125 137.742188 C 227.734375 137.742188 227.867188 137.796875 227.976562 137.910156 C 228.089844 138.019531 228.144531 138.152344 228.144531 138.308594 C 228.144531 138.464844 228.089844 138.597656 227.976562 138.710938 C 227.867188 138.820312 227.734375 138.875 227.578125 138.875 L 226.546875 138.875 C 226.390625 138.875 226.257812 138.820312 226.148438 138.710938 C 226.035156 138.597656 225.980469 138.464844 225.980469 138.308594 C 225.980469 138.152344 226.035156 138.019531 226.148438 137.910156 C 226.257812 137.796875 226.390625 137.742188 226.546875 137.742188 Z M 226.546875 137.742188 " fill-opacity="1" fill-rule="nonzero"/><path fill="#ffffff" d="M 229.886719 137.742188 L 230.917969 137.742188 C 231.074219 137.742188 231.207031 137.796875 231.320312 137.910156 C 231.429688 138.019531 231.484375 138.152344 231.484375 138.308594 C 231.484375 138.464844 231.429688 138.597656 231.320312 138.710938 C 231.207031 138.820312 231.074219 138.875 230.917969 138.875 L 229.886719 138.875 C 229.730469 138.875 229.597656 138.820312 229.488281 138.710938 C 229.378906 138.597656 229.320312 138.464844 229.320312 138.308594 C 229.320312 138.152344 229.378906 138.019531 229.488281 137.910156 C 229.597656 137.796875 229.730469 137.742188 229.886719 137.742188 Z M 229.886719 137.742188 " fill-opacity="1" fill-rule="nonzero"/><path fill="#ffffff" d="M 217.964844 137.648438 L 224.371094 137.648438 C 224.527344 137.648438 224.660156 137.703125 224.773438 137.816406 C 224.882812 137.925781 224.9375 138.058594 224.9375 138.214844 C 224.9375 138.371094 224.882812 138.503906 224.773438 138.613281 C 224.660156 138.726562 224.527344 138.78125 224.371094 138.78125 L 217.964844 138.78125 C 217.808594 138.78125 217.675781 138.726562 217.566406 138.613281 C 217.453125 138.503906 217.398438 138.371094 217.398438 138.214844 C 217.398438 138.058594 217.453125 137.925781 217.566406 137.816406 C 217.675781 137.703125 217.808594 137.648438 217.964844 137.648438 Z M 217.964844 137.648438 " fill-opacity="1" fill-rule="nonzero"/><path fill="#ffffff" d="M 217.117188 147.902344 L 218.148438 147.902344 C 218.304688 147.902344 218.4375 147.957031 218.546875 148.070312 C 218.65625 148.179688 218.710938 148.3125 218.710938 148.46875 C 218.710938 148.625 218.65625 148.757812 218.546875 148.871094 C 218.4375 148.980469 218.304688 149.035156 218.148438 149.035156 L 217.117188 149.035156 C 216.960938 149.035156 216.828125 148.980469 216.714844 148.871094 C 216.605469 148.757812 216.550781 148.625 216.550781 148.46875 C 216.550781 148.3125 216.605469 148.179688 216.714844 148.070312 C 216.828125 147.957031 216.960938 147.902344 217.117188 147.902344 Z M 217.117188 147.902344 " fill-opacity="1" fill-rule="nonzero"/><path fill="#ffffff" d="M 220.457031 147.902344 L 221.488281 147.902344 C 221.644531 147.902344 221.777344 147.957031 221.886719 148.070312 C 221.996094 148.179688 222.054688 148.3125 222.054688 148.46875 C 222.054688 148.625 221.996094 148.757812 221.886719 148.871094 C 221.777344 148.980469 221.644531 149.035156 221.488281 149.035156 L 220.457031 149.035156 C 220.300781 149.035156 220.167969 148.980469 220.054688 148.871094 C 219.945312 148.757812 219.890625 148.625 219.890625 148.46875 C 219.890625 148.3125 219.945312 148.179688 220.054688 148.070312 C 220.167969 147.957031 220.300781 147.902344 220.457031 147.902344 Z M 220.457031 147.902344 " fill-opacity="1" fill-rule="nonzero"/><path fill="#ffffff" d="M 224.253906 147.996094 L 230.660156 147.996094 C 230.816406 147.996094 230.949219 148.054688 231.058594 148.164062 C 231.167969 148.273438 231.226562 148.40625 231.226562 148.5625 C 231.226562 148.71875 231.167969 148.851562 231.058594 148.964844 C 230.949219 149.074219 230.816406 149.128906 230.660156 149.128906 L 224.253906 149.128906 C 224.097656 149.128906 223.960938 149.074219 223.851562 148.964844 C 223.742188 148.851562 223.6875 148.71875 223.6875 148.5625 C 223.6875 148.40625 223.742188 148.273438 223.851562 148.164062 C 223.960938 148.054688 224.097656 147.996094 224.253906 147.996094 Z M 224.253906 147.996094 " fill-opacity="1" fill-rule="nonzero"/><path fill="#ffffff" d="M 205.328125 147.902344 L 206.359375 147.902344 C 206.511719 147.902344 206.648438 147.957031 206.757812 148.070312 C 206.867188 148.179688 206.921875 148.3125 206.921875 148.46875 C 206.921875 148.625 206.867188 148.757812 206.757812 148.871094 C 206.648438 148.980469 206.511719 149.035156 206.359375 149.035156 L 205.328125 149.035156 C 205.171875 149.035156 205.035156 148.980469 204.925781 148.871094 C 204.816406 148.757812 204.761719 148.625 204.761719 148.46875 C 204.761719 148.3125 204.816406 148.179688 204.925781 148.070312 C 205.035156 147.957031 205.171875 147.902344 205.328125 147.902344 Z M 205.328125 147.902344 " fill-opacity="1" fill-rule="nonzero"/><path fill="#ffffff" d="M 208.53125 147.996094 L 214.941406 147.996094 C 215.097656 147.996094 215.230469 148.054688 215.339844 148.164062 C 215.449219 148.273438 215.503906 148.40625 215.503906 148.5625 C 215.503906 148.71875 215.449219 148.851562 215.339844 148.964844 C 215.230469 149.074219 215.097656 149.128906 214.941406 149.128906 L 208.53125 149.128906 C 208.375 149.128906 208.242188 149.074219 208.132812 148.964844 C 208.023438 148.851562 207.96875 148.71875 207.96875 148.5625 C 207.96875 148.40625 208.023438 148.273438 208.132812 148.164062 C 208.242188 148.054688 208.375 147.996094 208.53125 147.996094 Z M 208.53125 147.996094 " fill-opacity="1" fill-rule="nonzero"/><path fill="#ffffff" d="M 208.46875 145.347656 L 209.5 145.347656 C 209.65625 145.347656 209.789062 145.402344 209.902344 145.515625 C 210.011719 145.625 210.066406 145.757812 210.066406 145.914062 C 210.066406 146.070312 210.011719 146.203125 209.902344 146.316406 C 209.789062 146.425781 209.65625 146.480469 209.5 146.480469 L 208.46875 146.480469 C 208.3125 146.480469 208.179688 146.425781 208.070312 146.316406 C 207.960938 146.203125 207.90625 146.070312 207.90625 145.914062 C 207.90625 145.757812 207.960938 145.625 208.070312 145.515625 C 208.179688 145.402344 208.3125 145.347656 208.46875 145.347656 Z M 208.46875 145.347656 " fill-opacity="1" fill-rule="nonzero"/><path fill="#ffffff" d="M 220.261719 145.347656 L 221.289062 145.347656 C 221.445312 145.347656 221.582031 145.402344 221.691406 145.515625 C 221.800781 145.625 221.855469 145.757812 221.855469 145.914062 C 221.855469 146.070312 221.800781 146.203125 221.691406 146.316406 C 221.582031 146.425781 221.445312 146.480469 221.289062 146.480469 L 220.261719 146.480469 C 220.105469 146.480469 219.96875 146.425781 219.859375 146.316406 C 219.75 146.203125 219.695312 146.070312 219.695312 145.914062 C 219.695312 145.757812 219.75 145.625 219.859375 145.515625 C 219.96875 145.402344 220.105469 145.347656 220.261719 145.347656 Z M 220.261719 145.347656 " fill-opacity="1" fill-rule="nonzero"/><path fill="#ffffff" d="M 223.601562 145.347656 L 224.632812 145.347656 C 224.789062 145.347656 224.921875 145.402344 225.03125 145.515625 C 225.140625 145.625 225.195312 145.757812 225.195312 145.914062 C 225.195312 146.070312 225.140625 146.203125 225.03125 146.316406 C 224.921875 146.425781 224.789062 146.480469 224.632812 146.480469 L 223.601562 146.480469 C 223.445312 146.480469 223.3125 146.425781 223.199219 146.316406 C 223.089844 146.203125 223.035156 146.070312 223.035156 145.914062 C 223.035156 145.757812 223.089844 145.625 223.199219 145.515625 C 223.3125 145.402344 223.445312 145.347656 223.601562 145.347656 Z M 223.601562 145.347656 " fill-opacity="1" fill-rule="nonzero"/><path fill="#ffffff" d="M 211.675781 145.441406 L 218.082031 145.441406 C 218.238281 145.441406 218.375 145.496094 218.484375 145.609375 C 218.59375 145.71875 218.648438 145.851562 218.648438 146.007812 C 218.648438 146.164062 218.59375 146.296875 218.484375 146.410156 C 218.375 146.519531 218.238281 146.574219 218.082031 146.574219 L 211.675781 146.574219 C 211.519531 146.574219 211.386719 146.519531 211.277344 146.410156 C 211.167969 146.296875 211.109375 146.164062 211.109375 146.007812 C 211.109375 145.851562 211.167969 145.71875 211.277344 145.609375 C 211.386719 145.496094 211.519531 145.441406 211.675781 145.441406 Z M 211.675781 145.441406 " fill-opacity="1" fill-rule="nonzero"/><path fill="#ffffff" d="M 211.613281 142.792969 L 212.644531 142.792969 C 212.800781 142.792969 212.933594 142.847656 213.046875 142.957031 C 213.15625 143.070312 213.210938 143.203125 213.210938 143.359375 C 213.210938 143.515625 213.15625 143.648438 213.046875 143.757812 C 212.933594 143.871094 212.800781 143.925781 212.644531 143.925781 L 211.613281 143.925781 C 211.457031 143.925781 211.324219 143.871094 211.214844 143.757812 C 211.105469 143.648438 211.046875 143.515625 211.046875 143.359375 C 211.046875 143.203125 211.105469 143.070312 211.214844 142.957031 C 211.324219 142.847656 211.457031 142.792969 211.613281 142.792969 Z M 211.613281 142.792969 " fill-opacity="1" fill-rule="nonzero"/><path fill="#ffffff" d="M 223.402344 142.792969 L 224.433594 142.792969 C 224.589844 142.792969 224.722656 142.847656 224.835938 142.957031 C 224.945312 143.070312 225 143.203125 225 143.359375 C 225 143.515625 224.945312 143.648438 224.835938 143.757812 C 224.722656 143.871094 224.589844 143.925781 224.433594 143.925781 L 223.402344 143.925781 C 223.246094 143.925781 223.113281 143.871094 223.003906 143.757812 C 222.894531 143.648438 222.839844 143.515625 222.839844 143.359375 C 222.839844 143.203125 222.894531 143.070312 223.003906 142.957031 C 223.113281 142.847656 223.246094 142.792969 223.402344 142.792969 Z M 223.402344 142.792969 " fill-opacity="1" fill-rule="nonzero"/><path fill="#ffffff" d="M 226.746094 142.792969 L 227.773438 142.792969 C 227.929688 142.792969 228.066406 142.847656 228.175781 142.957031 C 228.285156 143.070312 228.339844 143.203125 228.339844 143.359375 C 228.339844 143.515625 228.285156 143.648438 228.175781 143.757812 C 228.066406 143.871094 227.929688 143.925781 227.773438 143.925781 L 226.746094 143.925781 C 226.585938 143.925781 226.453125 143.871094 226.34375 143.757812 C 226.234375 143.648438 226.179688 143.515625 226.179688 143.359375 C 226.179688 143.203125 226.234375 143.070312 226.34375 142.957031 C 226.453125 142.847656 226.585938 142.792969 226.746094 142.792969 Z M 226.746094 142.792969 " fill-opacity="1" fill-rule="nonzero"/><path fill="#ffffff" d="M 214.820312 142.886719 L 221.226562 142.886719 C 221.382812 142.886719 221.515625 142.941406 221.628906 143.054688 C 221.738281 143.164062 221.792969 143.296875 221.792969 143.453125 C 221.792969 143.609375 221.738281 143.742188 221.628906 143.855469 C 221.515625 143.964844 221.382812 144.019531 221.226562 144.019531 L 214.820312 144.019531 C 214.664062 144.019531 214.53125 143.964844 214.421875 143.855469 C 214.308594 143.742188 214.253906 143.609375 214.253906 143.453125 C 214.253906 143.296875 214.308594 143.164062 214.421875 143.054688 C 214.53125 142.941406 214.664062 142.886719 214.820312 142.886719 Z M 214.820312 142.886719 " fill-opacity="1" fill-rule="nonzero"/><path fill="#ffffff" d="M 214.757812 140.238281 L 215.789062 140.238281 C 215.945312 140.238281 216.078125 140.292969 216.1875 140.402344 C 216.300781 140.515625 216.355469 140.648438 216.355469 140.804688 C 216.355469 140.960938 216.300781 141.09375 216.1875 141.203125 C 216.078125 141.316406 215.945312 141.371094 215.789062 141.371094 L 214.757812 141.371094 C 214.601562 141.371094 214.46875 141.316406 214.359375 141.203125 C 214.246094 141.09375 214.191406 140.960938 214.191406 140.804688 C 214.191406 140.648438 214.246094 140.515625 214.359375 140.402344 C 214.46875 140.292969 214.601562 140.238281 214.757812 140.238281 Z M 214.757812 140.238281 " fill-opacity="1" fill-rule="nonzero"/><path fill="#ffffff" d="M 226.546875 140.238281 L 227.578125 140.238281 C 227.734375 140.238281 227.867188 140.292969 227.976562 140.402344 C 228.089844 140.515625 228.144531 140.648438 228.144531 140.804688 C 228.144531 140.960938 228.089844 141.09375 227.976562 141.203125 C 227.867188 141.316406 227.734375 141.371094 227.578125 141.371094 L 226.546875 141.371094 C 226.390625 141.371094 226.257812 141.316406 226.148438 141.203125 C 226.035156 141.09375 225.980469 140.960938 225.980469 140.804688 C 225.980469 140.648438 226.035156 140.515625 226.148438 140.402344 C 226.257812 140.292969 226.390625 140.238281 226.546875 140.238281 Z M 226.546875 140.238281 " fill-opacity="1" fill-rule="nonzero"/><path fill="#ffffff" d="M 229.886719 140.238281 L 230.917969 140.238281 C 231.074219 140.238281 231.207031 140.292969 231.320312 140.402344 C 231.429688 140.515625 231.484375 140.648438 231.484375 140.804688 C 231.484375 140.960938 231.429688 141.09375 231.320312 141.203125 C 231.207031 141.316406 231.074219 141.371094 230.917969 141.371094 L 229.886719 141.371094 C 229.730469 141.371094 229.597656 141.316406 229.488281 141.203125 C 229.378906 141.09375 229.320312 140.960938 229.320312 140.804688 C 229.320312 140.648438 229.378906 140.515625 229.488281 140.402344 C 229.597656 140.292969 229.730469 140.238281 229.886719 140.238281 Z M 229.886719 140.238281 " fill-opacity="1" fill-rule="nonzero"/><path fill="#ffffff" d="M 217.964844 140.332031 L 224.371094 140.332031 C 224.527344 140.332031 224.660156 140.386719 224.773438 140.5 C 224.882812 140.609375 224.9375 140.742188 224.9375 140.898438 C 224.9375 141.054688 224.882812 141.1875 224.773438 141.296875 C 224.660156 141.410156 224.527344 141.464844 224.371094 141.464844 L 217.964844 141.464844 C 217.808594 141.464844 217.675781 141.410156 217.566406 141.296875 C 217.453125 141.1875 217.398438 141.054688 217.398438 140.898438 C 217.398438 140.742188 217.453125 140.609375 217.566406 140.5 C 217.675781 140.386719 217.808594 140.332031 217.964844 140.332031 Z M 217.964844 140.332031 " fill-opacity="1" fill-rule="nonzero"/><path fill="#ffb6b6" d="M 200.875 177.847656 L 196.039062 170.195312 L 211.226562 158.085938 L 217.496094 151.136719 C 217.699219 150.914062 217.914062 150.703125 218.144531 150.503906 C 218.375 150.308594 218.617188 150.128906 218.871094 149.964844 C 219.125 149.800781 219.390625 149.652344 219.664062 149.519531 C 219.9375 149.390625 220.214844 149.277344 220.503906 149.183594 C 220.792969 149.09375 221.085938 149.015625 221.382812 148.960938 C 221.679688 148.90625 221.980469 148.871094 222.28125 148.855469 C 222.582031 148.839844 222.886719 148.84375 223.1875 148.867188 C 223.488281 148.886719 223.789062 148.929688 224.085938 148.992188 C 224.378906 149.054688 224.671875 149.136719 224.957031 149.238281 C 225.242188 149.339844 225.519531 149.457031 225.789062 149.59375 C 226.058594 149.730469 226.320312 149.882812 226.570312 150.054688 C 226.820312 150.226562 227.058594 150.410156 227.28125 150.613281 C 227.507812 150.816406 227.71875 151.03125 227.917969 151.261719 C 228.113281 151.488281 228.296875 151.730469 228.460938 151.984375 C 228.628906 152.238281 228.777344 152.5 228.910156 152.773438 C 229.039062 153.046875 229.152344 153.324219 229.246094 153.613281 C 229.386719 154.035156 229.484375 154.46875 229.542969 154.914062 C 229.597656 155.355469 229.613281 155.800781 229.582031 156.246094 C 229.554688 156.691406 229.484375 157.128906 229.371094 157.558594 C 229.257812 157.992188 229.101562 158.410156 228.910156 158.8125 C 228.714844 159.210938 228.484375 159.59375 228.21875 159.949219 C 227.949219 160.308594 227.652344 160.636719 227.320312 160.9375 C 226.992188 161.238281 226.636719 161.503906 226.253906 161.734375 C 225.871094 161.964844 225.472656 162.15625 225.054688 162.3125 L 215.140625 165.964844 Z M 200.875 177.847656 " fill-opacity="1" fill-rule="nonzero"/><path fill="#2f2e41" d="M 87.332031 122.371094 L 87.332031 159.558594 L 113.378906 159.558594 L 113.378906 122.371094 C 113.378906 122.097656 113.296875 121.847656 113.136719 121.625 C 112.972656 121.40625 112.761719 121.253906 112.496094 121.171875 C 112.375 121.132812 112.253906 121.113281 112.125 121.117188 L 88.589844 121.117188 C 88.425781 121.117188 88.265625 121.148438 88.109375 121.210938 C 87.957031 121.273438 87.820312 121.363281 87.703125 121.480469 C 87.585938 121.601562 87.492188 121.734375 87.429688 121.890625 C 87.367188 122.042969 87.332031 122.203125 87.332031 122.371094 Z M 97.496094 135.148438 C 97.5 134.78125 97.574219 134.429688 97.71875 134.09375 C 97.859375 133.753906 98.0625 133.457031 98.320312 133.199219 C 98.582031 132.941406 98.882812 132.742188 99.21875 132.601562 C 99.558594 132.460938 99.910156 132.390625 100.277344 132.390625 C 100.644531 132.390625 100.996094 132.460938 101.335938 132.601562 C 101.675781 132.742188 101.976562 132.941406 102.234375 133.199219 C 102.496094 133.457031 102.695312 133.753906 102.839844 134.09375 C 102.980469 134.429688 103.054688 134.78125 103.058594 135.148438 L 103.058594 139.464844 C 103.058594 139.832031 102.984375 140.183594 102.84375 140.523438 C 102.699219 140.863281 102.5 141.160156 102.238281 141.421875 C 101.980469 141.679688 101.679688 141.878906 101.339844 142.019531 C 101 142.160156 100.644531 142.230469 100.277344 142.230469 C 99.910156 142.230469 99.558594 142.160156 99.21875 142.019531 C 98.878906 141.878906 98.578125 141.679688 98.316406 141.421875 C 98.058594 141.160156 97.855469 140.863281 97.714844 140.523438 C 97.570312 140.183594 97.5 139.832031 97.496094 139.464844 Z M 97.496094 135.148438 " fill-opacity="1" fill-rule="nonzero"/><path fill="#3f3d56" d="M 87.253906 158.371094 L 87.253906 161.957031 C 87.253906 162.148438 87.324219 162.3125 87.460938 162.449219 C 87.59375 162.585938 87.761719 162.65625 87.953125 162.660156 L 112.757812 162.660156 C 112.953125 162.65625 113.117188 162.589844 113.253906 162.453125 C 113.390625 162.3125 113.457031 162.148438 113.457031 161.957031 L 113.457031 158.371094 Z M 87.253906 158.371094 " fill-opacity="1" fill-rule="nonzero"/><path fill="#3f3d56" d="M 46.359375 66.339844 L 46.359375 134.242188 C 46.359375 134.675781 46.445312 135.089844 46.609375 135.492188 C 46.777344 135.890625 47.011719 136.242188 47.316406 136.546875 C 47.621094 136.855469 47.976562 137.089844 48.375 137.257812 C 48.773438 137.421875 49.191406 137.503906 49.625 137.503906 L 150.214844 137.503906 C 150.648438 137.503906 151.0625 137.421875 151.464844 137.257812 C 151.863281 137.089844 152.214844 136.855469 152.523438 136.546875 C 152.828125 136.242188 153.0625 135.890625 153.230469 135.492188 C 153.394531 135.089844 153.476562 134.675781 153.476562 134.242188 L 153.476562 66.339844 C 153.476562 65.910156 153.394531 65.492188 153.226562 65.09375 C 153.0625 64.695312 152.824219 64.34375 152.519531 64.039062 C 152.214844 63.730469 151.863281 63.496094 151.460938 63.332031 C 151.0625 63.164062 150.648438 63.082031 150.214844 63.082031 L 49.625 63.082031 C 49.191406 63.082031 48.777344 63.164062 48.375 63.332031 C 47.976562 63.496094 47.625 63.730469 47.320312 64.039062 C 47.011719 64.34375 46.777344 64.695312 46.609375 65.09375 C 46.445312 65.492188 46.363281 65.910156 46.359375 66.339844 Z M 46.359375 66.339844 " fill-opacity="1" fill-rule="nonzero"/><path fill="#ffffff" d="M 48.71875 67.1875 L 48.71875 133.402344 C 48.722656 133.636719 48.765625 133.859375 48.855469 134.070312 C 48.941406 134.285156 49.070312 134.472656 49.230469 134.636719 C 49.394531 134.800781 49.585938 134.925781 49.796875 135.015625 C 50.011719 135.101562 50.234375 135.148438 50.464844 135.148438 L 149.378906 135.148438 C 149.609375 135.148438 149.832031 135.101562 150.046875 135.015625 C 150.257812 134.925781 150.445312 134.800781 150.609375 134.636719 C 150.773438 134.472656 150.898438 134.285156 150.988281 134.070312 C 151.078125 133.859375 151.121094 133.636719 151.121094 133.402344 L 151.121094 67.1875 C 151.121094 66.953125 151.078125 66.730469 150.988281 66.519531 C 150.902344 66.304688 150.773438 66.117188 150.613281 65.953125 C 150.449219 65.789062 150.257812 65.660156 150.046875 65.574219 C 149.832031 65.484375 149.609375 65.4375 149.378906 65.4375 L 50.464844 65.4375 C 50.234375 65.4375 50.011719 65.484375 49.796875 65.574219 C 49.582031 65.660156 49.394531 65.789062 49.230469 65.953125 C 49.066406 66.117188 48.941406 66.304688 48.851562 66.519531 C 48.765625 66.730469 48.71875 66.953125 48.71875 67.1875 Z M 48.71875 67.1875 " fill-opacity="1" fill-rule="nonzero"/><path fill="#2f2e41" d="M 67.078125 162.414062 C 67.292969 162.6875 67.574219 162.820312 67.917969 162.816406 L 126.765625 162.816406 C 126.929688 162.816406 127.082031 162.78125 127.230469 162.710938 C 127.378906 162.640625 127.503906 162.542969 127.605469 162.417969 C 127.707031 162.289062 127.777344 162.148438 127.816406 161.988281 C 127.855469 161.832031 127.859375 161.671875 127.824219 161.511719 L 126.910156 157.171875 C 126.828125 156.789062 126.605469 156.527344 126.238281 156.386719 C 126.113281 156.335938 125.984375 156.3125 125.851562 156.3125 L 68.828125 156.3125 C 68.695312 156.3125 68.566406 156.335938 68.445312 156.386719 C 68.078125 156.527344 67.851562 156.789062 67.769531 157.171875 L 66.855469 161.511719 C 66.785156 161.847656 66.859375 162.148438 67.078125 162.414062 Z M 67.078125 162.414062 " fill-opacity="1" fill-rule="nonzero"/><path fill="#3f3d56" d="M 146.167969 74.558594 L 53.613281 74.558594 C 53.515625 74.558594 53.429688 74.519531 53.359375 74.449219 C 53.289062 74.378906 53.253906 74.292969 53.253906 74.191406 C 53.253906 74.09375 53.289062 74.007812 53.359375 73.933594 C 53.429688 73.863281 53.515625 73.828125 53.613281 73.824219 L 146.167969 73.824219 C 146.269531 73.828125 146.351562 73.863281 146.421875 73.933594 C 146.492188 74.007812 146.527344 74.09375 146.527344 74.191406 C 146.527344 74.292969 146.492188 74.378906 146.421875 74.449219 C 146.351562 74.519531 146.269531 74.558594 146.167969 74.558594 Z M 146.167969 74.558594 " fill-opacity="1" fill-rule="nonzero"/><path fill="#3f3d56" d="M 62.070312 69.738281 C 62.070312 70.03125 62.015625 70.3125 61.90625 70.582031 C 61.796875 70.851562 61.640625 71.089844 61.441406 71.296875 C 61.238281 71.503906 61.003906 71.664062 60.738281 71.777344 C 60.476562 71.886719 60.199219 71.945312 59.914062 71.945312 C 59.628906 71.945312 59.355469 71.886719 59.089844 71.777344 C 58.824219 71.664062 58.59375 71.503906 58.390625 71.296875 C 58.1875 71.089844 58.03125 70.851562 57.921875 70.582031 C 57.8125 70.3125 57.757812 70.03125 57.757812 69.738281 C 57.757812 69.445312 57.8125 69.164062 57.921875 68.894531 C 58.03125 68.625 58.1875 68.386719 58.390625 68.179688 C 58.59375 67.972656 58.824219 67.8125 59.089844 67.699219 C 59.355469 67.589844 59.628906 67.53125 59.914062 67.53125 C 60.199219 67.53125 60.476562 67.589844 60.738281 67.699219 C 61.003906 67.8125 61.238281 67.972656 61.441406 68.179688 C 61.640625 68.386719 61.796875 68.625 61.90625 68.894531 C 62.015625 69.164062 62.070312 69.445312 62.070312 69.738281 Z M 62.070312 69.738281 " fill-opacity="1" fill-rule="nonzero"/><path fill="#3f3d56" d="M 69.523438 69.738281 C 69.523438 70.03125 69.46875 70.3125 69.359375 70.582031 C 69.25 70.851562 69.09375 71.089844 68.890625 71.296875 C 68.6875 71.503906 68.457031 71.664062 68.191406 71.777344 C 67.925781 71.886719 67.652344 71.945312 67.367188 71.945312 C 67.082031 71.945312 66.804688 71.886719 66.539062 71.777344 C 66.277344 71.664062 66.042969 71.503906 65.839844 71.296875 C 65.640625 71.089844 65.484375 70.851562 65.375 70.582031 C 65.265625 70.3125 65.210938 70.03125 65.210938 69.738281 C 65.210938 69.445312 65.265625 69.164062 65.375 68.894531 C 65.484375 68.625 65.640625 68.386719 65.839844 68.179688 C 66.042969 67.972656 66.277344 67.8125 66.539062 67.699219 C 66.804688 67.589844 67.082031 67.53125 67.367188 67.53125 C 67.652344 67.53125 67.925781 67.589844 68.191406 67.699219 C 68.457031 67.8125 68.6875 67.972656 68.890625 68.179688 C 69.09375 68.386719 69.25 68.625 69.359375 68.894531 C 69.46875 69.164062 69.523438 69.445312 69.523438 69.738281 Z M 69.523438 69.738281 " fill-opacity="1" fill-rule="nonzero"/><path fill="#3f3d56" d="M 76.972656 69.738281 C 76.972656 70.03125 76.917969 70.3125 76.808594 70.582031 C 76.699219 70.851562 76.546875 71.089844 76.34375 71.296875 C 76.140625 71.503906 75.90625 71.664062 75.644531 71.777344 C 75.378906 71.886719 75.105469 71.945312 74.816406 71.945312 C 74.53125 71.945312 74.257812 71.886719 73.992188 71.777344 C 73.726562 71.664062 73.496094 71.503906 73.292969 71.296875 C 73.089844 71.089844 72.933594 70.851562 72.824219 70.582031 C 72.714844 70.3125 72.660156 70.03125 72.660156 69.738281 C 72.660156 69.445312 72.714844 69.164062 72.824219 68.894531 C 72.933594 68.625 73.089844 68.386719 73.292969 68.179688 C 73.496094 67.972656 73.726562 67.8125 73.992188 67.699219 C 74.257812 67.589844 74.53125 67.53125 74.816406 67.53125 C 75.105469 67.53125 75.378906 67.589844 75.644531 67.699219 C 75.90625 67.8125 76.140625 67.972656 76.34375 68.179688 C 76.546875 68.386719 76.699219 68.625 76.808594 68.894531 C 76.917969 69.164062 76.972656 69.445312 76.972656 69.738281 Z M 76.972656 69.738281 " fill-opacity="1" fill-rule="nonzero"/><path fill="#3f3d56" d="M 141.679688 68.078125 L 136.390625 68.078125 C 136.28125 68.082031 136.1875 68.121094 136.113281 68.199219 C 136.035156 68.277344 135.996094 68.371094 135.996094 68.480469 C 135.996094 68.585938 136.035156 68.679688 136.113281 68.757812 C 136.1875 68.835938 136.28125 68.878906 136.390625 68.878906 L 141.679688 68.878906 C 141.789062 68.878906 141.882812 68.839844 141.960938 68.761719 C 142.039062 68.683594 142.074219 68.589844 142.074219 68.480469 C 142.074219 68.371094 142.039062 68.277344 141.960938 68.199219 C 141.882812 68.121094 141.789062 68.078125 141.679688 68.078125 Z M 141.679688 68.078125 " fill-opacity="1" fill-rule="nonzero"/><path fill="#3f3d56" d="M 141.679688 69.582031 L 136.390625 69.582031 C 136.28125 69.585938 136.1875 69.625 136.109375 69.703125 C 136.035156 69.78125 135.996094 69.875 135.996094 69.984375 C 135.996094 70.09375 136.035156 70.1875 136.109375 70.265625 C 136.1875 70.34375 136.28125 70.382812 136.390625 70.382812 L 141.679688 70.382812 C 141.789062 70.382812 141.882812 70.34375 141.960938 70.265625 C 142.039062 70.1875 142.078125 70.09375 142.078125 69.984375 C 142.078125 69.875 142.039062 69.78125 141.960938 69.703125 C 141.882812 69.625 141.789062 69.585938 141.679688 69.582031 Z M 141.679688 69.582031 " fill-opacity="1" fill-rule="nonzero"/><path fill="#3f3d56" d="M 141.679688 71.089844 L 136.390625 71.089844 C 136.28125 71.089844 136.1875 71.128906 136.113281 71.207031 C 136.035156 71.285156 135.996094 71.378906 135.996094 71.488281 C 135.996094 71.597656 136.035156 71.691406 136.113281 71.769531 C 136.1875 71.847656 136.28125 71.886719 136.390625 71.890625 L 141.679688 71.890625 C 141.789062 71.886719 141.882812 71.847656 141.960938 71.769531 C 142.039062 71.691406 142.074219 71.597656 142.074219 71.488281 C 142.074219 71.378906 142.039062 71.285156 141.960938 71.207031 C 141.882812 71.128906 141.789062 71.089844 141.679688 71.089844 Z M 141.679688 71.089844 " fill-opacity="1" fill-rule="nonzero"/><path fill="#2f2e41" d="M 269.273438 159.941406 C 269.4375 160.421875 269.722656 160.804688 270.136719 161.09375 C 270.550781 161.382812 271.007812 161.523438 271.511719 161.511719 L 281.117188 161.265625 C 281.625 161.257812 282.078125 161.09375 282.480469 160.78125 C 282.882812 160.46875 283.148438 160.066406 283.285156 159.578125 L 284.644531 145.042969 C 285.132812 145.261719 285.644531 145.367188 286.179688 145.359375 C 286.644531 145.347656 287.089844 145.246094 287.511719 145.058594 C 287.9375 144.867188 288.308594 144.605469 288.628906 144.269531 C 288.949219 143.933594 289.191406 143.546875 289.359375 143.113281 C 289.527344 142.679688 289.605469 142.230469 289.59375 141.769531 C 289.582031 141.304688 289.480469 140.859375 289.292969 140.433594 C 289.105469 140.007812 288.839844 139.636719 288.503906 139.316406 C 288.167969 138.996094 287.785156 138.753906 287.351562 138.585938 C 286.917969 138.417969 286.46875 138.34375 286.003906 138.355469 C 285.792969 138.351562 285.582031 138.375 285.375 138.417969 C 284.898438 137.902344 284.308594 137.648438 283.609375 137.65625 L 268.835938 138.039062 C 268.714844 138.042969 268.589844 138.058594 268.472656 138.082031 C 268.144531 138.144531 267.84375 138.269531 267.570312 138.460938 C 267.296875 138.652344 267.078125 138.890625 266.90625 139.179688 C 266.738281 139.46875 266.636719 139.777344 266.601562 140.109375 C 266.566406 140.441406 266.601562 140.761719 266.703125 141.078125 Z M 284.921875 144.054688 L 285.890625 140.589844 C 286 140.183594 286.003906 139.777344 285.898438 139.367188 C 285.945312 139.367188 285.984375 139.34375 286.03125 139.34375 C 286.363281 139.339844 286.683594 139.394531 286.992188 139.515625 C 287.300781 139.636719 287.574219 139.8125 287.816406 140.039062 C 288.054688 140.269531 288.242188 140.535156 288.375 140.839844 C 288.507812 141.144531 288.578125 141.460938 288.585938 141.792969 C 288.59375 142.125 288.539062 142.445312 288.417969 142.753906 C 288.300781 143.0625 288.125 143.335938 287.898438 143.578125 C 287.667969 143.816406 287.402344 144.003906 287.101562 144.140625 C 286.796875 144.273438 286.480469 144.347656 286.148438 144.355469 C 285.710938 144.367188 285.304688 144.269531 284.921875 144.054688 Z M 284.921875 144.054688 " fill-opacity="1" fill-rule="nonzero"/><path fill="#3f3d56" d="M 268.472656 138.082031 C 268.785156 139.882812 272.324219 141.148438 276.578125 140.929688 C 280.492188 140.75 283.691406 139.375 284.277344 137.746094 C 284.058594 137.679688 283.835938 137.652344 283.609375 137.65625 L 268.835938 138.039062 C 268.714844 138.042969 268.589844 138.058594 268.472656 138.082031 Z M 268.472656 138.082031 " fill-opacity="1" fill-rule="nonzero"/><path fill="#9e30ff" d="M 277.359375 151.957031 C 277.378906 151.949219 277.398438 151.941406 277.414062 151.929688 L 279.5 150.566406 C 279.554688 150.53125 279.582031 150.480469 279.582031 150.414062 C 279.582031 150.347656 279.554688 150.296875 279.5 150.261719 L 277.332031 148.84375 C 277.230469 148.773438 277.144531 148.792969 277.078125 148.894531 C 277.011719 148.996094 277.03125 149.078125 277.132812 149.144531 L 279.070312 150.414062 L 277.214844 151.628906 C 277.128906 151.683594 277.105469 151.757812 277.148438 151.851562 C 277.1875 151.945312 277.257812 151.980469 277.359375 151.957031 Z M 277.359375 151.957031 " fill-opacity="1" fill-rule="nonzero"/><path fill="#9e30ff" d="M 274.066406 152.109375 C 274.144531 152.085938 274.1875 152.039062 274.199219 151.957031 C 274.210938 151.875 274.179688 151.816406 274.109375 151.773438 L 272.1875 150.671875 L 274.046875 149.292969 C 274.144531 149.21875 274.15625 149.136719 274.085938 149.039062 C 274.011719 148.9375 273.925781 148.925781 273.832031 149 L 271.75 150.546875 C 271.699219 150.585938 271.671875 150.636719 271.675781 150.703125 C 271.679688 150.769531 271.710938 150.816406 271.769531 150.847656 L 273.929688 152.089844 C 273.972656 152.113281 274.015625 152.121094 274.066406 152.109375 Z M 274.066406 152.109375 " fill-opacity="1" fill-rule="nonzero"/><path fill="#9e30ff" d="M 277.152344 153.152344 C 277.167969 153.148438 277.183594 153.140625 277.199219 153.132812 C 277.304688 153.070312 277.324219 152.984375 277.261719 152.882812 L 274.304688 148.019531 C 274.242188 147.917969 274.160156 147.898438 274.054688 147.960938 C 273.953125 148.023438 273.933594 148.105469 273.996094 148.207031 L 276.953125 153.070312 C 277 153.148438 277.066406 153.175781 277.152344 153.152344 Z M 277.152344 153.152344 " fill-opacity="1" fill-rule="nonzero"/><path fill="#9e30ff" d="M 94.929688 94.574219 L 110.949219 94.574219 C 111.105469 94.574219 111.257812 94.605469 111.402344 94.664062 C 111.546875 94.726562 111.675781 94.8125 111.785156 94.921875 C 111.898438 95.035156 111.984375 95.160156 112.042969 95.304688 C 112.101562 95.453125 112.132812 95.601562 112.132812 95.757812 L 112.132812 97.324219 C 112.132812 97.480469 112.101562 97.632812 112.042969 97.777344 C 111.984375 97.921875 111.898438 98.050781 111.785156 98.160156 C 111.675781 98.273438 111.546875 98.359375 111.402344 98.417969 C 111.257812 98.476562 111.105469 98.507812 110.949219 98.507812 L 94.929688 98.507812 C 94.773438 98.507812 94.625 98.476562 94.476562 98.417969 C 94.332031 98.359375 94.207031 98.273438 94.09375 98.160156 C 93.984375 98.050781 93.898438 97.921875 93.839844 97.777344 C 93.777344 97.632812 93.746094 97.480469 93.746094 97.324219 L 93.746094 95.757812 C 93.746094 95.601562 93.777344 95.453125 93.839844 95.304688 C 93.898438 95.160156 93.984375 95.035156 94.09375 94.921875 C 94.207031 94.8125 94.332031 94.726562 94.476562 94.664062 C 94.625 94.605469 94.773438 94.574219 94.929688 94.574219 Z M 94.929688 94.574219 " fill-opacity="1" fill-rule="nonzero"/><path fill="#e6e6e6" d="M 85.59375 102.441406 L 120.289062 102.441406 C 120.445312 102.441406 120.59375 102.472656 120.738281 102.53125 C 120.886719 102.589844 121.011719 102.675781 121.125 102.789062 C 121.234375 102.898438 121.320312 103.027344 121.378906 103.171875 C 121.441406 103.316406 121.46875 103.46875 121.46875 103.625 L 121.46875 105.191406 C 121.46875 105.347656 121.441406 105.5 121.378906 105.644531 C 121.320312 105.789062 121.234375 105.917969 121.125 106.027344 C 121.011719 106.136719 120.886719 106.222656 120.738281 106.285156 C 120.59375 106.34375 120.445312 106.375 120.289062 106.375 L 85.59375 106.375 C 85.4375 106.375 85.285156 106.34375 85.140625 106.285156 C 84.996094 106.222656 84.867188 106.136719 84.757812 106.027344 C 84.644531 105.917969 84.558594 105.789062 84.5 105.644531 C 84.441406 105.5 84.410156 105.347656 84.410156 105.191406 L 84.410156 103.625 C 84.410156 103.46875 84.441406 103.316406 84.5 103.171875 C 84.558594 103.027344 84.644531 102.898438 84.757812 102.789062 C 84.867188 102.675781 84.996094 102.589844 85.140625 102.53125 C 85.285156 102.472656 85.4375 102.441406 85.59375 102.441406 Z M 85.59375 102.441406 " fill-opacity="1" fill-rule="nonzero"/><path fill="#e6e6e6" d="M 85.59375 110.304688 L 120.289062 110.304688 C 120.445312 110.304688 120.59375 110.335938 120.738281 110.394531 C 120.886719 110.457031 121.011719 110.542969 121.125 110.652344 C 121.234375 110.765625 121.320312 110.890625 121.378906 111.035156 C 121.441406 111.183594 121.46875 111.332031 121.46875 111.488281 L 121.46875 113.054688 C 121.46875 113.210938 121.441406 113.363281 121.378906 113.507812 C 121.320312 113.652344 121.234375 113.78125 121.125 113.890625 C 121.011719 114.003906 120.886719 114.089844 120.738281 114.148438 C 120.59375 114.210938 120.445312 114.238281 120.289062 114.238281 L 85.59375 114.238281 C 85.4375 114.238281 85.285156 114.210938 85.140625 114.148438 C 84.996094 114.089844 84.867188 114.003906 84.757812 113.890625 C 84.644531 113.78125 84.558594 113.652344 84.5 113.507812 C 84.441406 113.363281 84.410156 113.210938 84.410156 113.054688 L 84.410156 111.488281 C 84.410156 111.332031 84.441406 111.183594 84.5 111.035156 C 84.558594 110.890625 84.644531 110.765625 84.757812 110.652344 C 84.867188 110.542969 84.996094 110.457031 85.140625 110.394531 C 85.285156 110.335938 85.4375 110.304688 85.59375 110.304688 Z M 85.59375 110.304688 " fill-opacity="1" fill-rule="nonzero"/><g clip-path="url(#id2)"><path fill="#3f3d56" d="M 123.226562 136.644531 L 123.3125 136.902344 L 125.675781 144.09375 L 128.398438 152.382812 L 133.515625 167.960938 L 133.566406 170.378906 L 133.566406 170.390625 L 133.945312 189.855469 L 132.890625 192.492188 L 134.078125 196.820312 C 134.078125 196.820312 133.535156 190.28125 130.605469 194.035156 C 128.949219 196.171875 127.007812 198.355469 125.414062 200.402344 C 127.734375 201.339844 130.09375 202.191406 132.488281 202.949219 C 133.003906 203.117188 133.523438 203.273438 134.046875 203.429688 C 134.15625 203.464844 134.269531 203.496094 134.382812 203.527344 C 142.351562 205.886719 150.488281 207.195312 158.796875 207.453125 C 159.226562 207.46875 159.648438 207.476562 160.054688 207.484375 C 160.203125 207.488281 160.34375 207.492188 160.484375 207.492188 C 160.945312 207.496094 161.40625 207.5 161.867188 207.5 C 162.800781 207.5 163.734375 207.488281 164.660156 207.457031 C 171.535156 207.265625 178.3125 206.347656 184.992188 204.707031 C 184.945312 201.957031 184.824219 198.742188 184.644531 195.308594 C 184.5625 193.625 182.707031 191.800781 182.59375 190.039062 C 182.515625 188.714844 184.179688 187.472656 184.09375 186.128906 C 183.53125 177.851562 182.828125 181.027344 182.308594 175.167969 C 182.253906 174.589844 182.203125 174.042969 182.160156 173.515625 C 181.824219 169.75 181.59375 167.398438 181.59375 167.398438 L 183.816406 153.371094 L 187.3125 131.347656 L 187.042969 130.90625 L 186.742188 130.757812 L 168.308594 121.632812 L 167.308594 119.070312 C 167.164062 118.699219 166.96875 118.359375 166.71875 118.046875 C 166.472656 117.738281 166.183594 117.46875 165.855469 117.246094 C 165.53125 117.023438 165.175781 116.851562 164.796875 116.730469 C 164.417969 116.613281 164.03125 116.550781 163.632812 116.550781 L 151.492188 116.5 C 150.851562 116.496094 150.25 116.640625 149.679688 116.929688 C 149.109375 117.21875 148.636719 117.625 148.261719 118.140625 L 144.976562 122.695312 Z M 123.226562 136.644531 " fill-opacity="1" fill-rule="nonzero"/></g><path fill="#3f3d56" d="M 136.316406 164.496094 L 133.566406 170.378906 L 131.6875 174.402344 L 128.460938 191.316406 L 126.84375 193.03125 L 125.457031 186.953125 L 110.957031 190.175781 C 110.484375 187.53125 110.832031 190.265625 110.539062 187.363281 C 110.621094 187.28125 110.707031 187.199219 110.792969 187.117188 C 111.023438 186.902344 111.21875 186.699219 111.214844 186.503906 C 111.050781 176.503906 111.546875 159.480469 115.691406 149.167969 C 116.339844 147.480469 117.191406 145.894531 118.238281 144.417969 C 118.320312 144.304688 118.398438 144.191406 118.476562 144.082031 C 120.386719 141.40625 121.59375 138.769531 123.308594 136.894531 L 123.308594 136.890625 C 123.316406 136.882812 123.328125 136.875 123.335938 136.863281 C 123.34375 136.859375 123.347656 136.855469 123.351562 136.851562 L 135.113281 130.613281 L 135.617188 144.792969 L 135.976562 154.984375 Z M 136.316406 164.496094 " fill-opacity="1" fill-rule="nonzero"/><path fill="#3f3d56" d="M 178.722656 166.167969 L 182.15625 173.519531 L 183.355469 176.078125 L 186.585938 192.992188 L 188.195312 194.703125 L 189.585938 188.628906 L 190.238281 188.492188 L 202.003906 186.054688 L 205.433594 196.949219 C 205.820312 196.308594 206.085938 195.617188 206.234375 194.878906 C 206.382812 194.144531 206.402344 193.402344 206.296875 192.660156 C 206.1875 191.917969 205.957031 191.210938 205.609375 190.546875 C 205.257812 189.882812 204.804688 189.296875 204.25 188.789062 C 204.015625 188.578125 203.820312 188.371094 203.828125 188.175781 C 204.023438 176.414062 203.304688 154.933594 196.808594 146.089844 C 194.742188 143.285156 193.503906 140.492188 191.703125 138.539062 C 191.699219 138.535156 191.699219 138.527344 191.691406 138.527344 L 187.308594 131.347656 L 187.042969 130.910156 L 186.742188 130.757812 Z M 178.722656 166.167969 " fill-opacity="1" fill-rule="nonzero"/><path fill="#ffb6b6" d="M 174.066406 96.886719 C 174.066406 97.417969 174.039062 97.945312 173.988281 98.46875 C 173.9375 98.996094 173.859375 99.519531 173.753906 100.039062 C 173.652344 100.558594 173.523438 101.070312 173.371094 101.578125 C 173.21875 102.082031 173.039062 102.582031 172.835938 103.070312 C 172.632812 103.558594 172.40625 104.035156 172.160156 104.503906 C 171.910156 104.96875 171.636719 105.421875 171.34375 105.863281 C 171.050781 106.304688 170.734375 106.726562 170.398438 107.136719 C 170.0625 107.546875 169.710938 107.9375 169.335938 108.3125 C 168.960938 108.683594 168.570312 109.039062 168.160156 109.375 C 167.75 109.710938 167.328125 110.027344 166.886719 110.320312 C 166.449219 110.613281 165.996094 110.886719 165.527344 111.136719 C 165.0625 111.386719 164.582031 111.609375 164.09375 111.8125 C 163.605469 112.015625 163.109375 112.195312 162.601562 112.347656 C 162.097656 112.5 161.582031 112.628906 161.066406 112.734375 C 160.546875 112.835938 160.023438 112.914062 159.496094 112.964844 C 158.96875 113.019531 158.441406 113.042969 157.914062 113.042969 C 157.386719 113.042969 156.855469 113.019531 156.332031 112.964844 C 155.804688 112.914062 155.28125 112.835938 154.761719 112.734375 C 154.242188 112.628906 153.730469 112.5 153.226562 112.347656 C 152.71875 112.195312 152.222656 112.015625 151.734375 111.8125 C 151.242188 111.609375 150.765625 111.386719 150.300781 111.136719 C 149.832031 110.886719 149.378906 110.613281 148.941406 110.320312 C 148.5 110.027344 148.074219 109.710938 147.667969 109.375 C 147.257812 109.039062 146.867188 108.683594 146.492188 108.3125 C 146.117188 107.9375 145.765625 107.546875 145.429688 107.136719 C 145.09375 106.726562 144.777344 106.304688 144.484375 105.863281 C 144.191406 105.421875 143.917969 104.96875 143.667969 104.503906 C 143.417969 104.035156 143.195312 103.558594 142.992188 103.070312 C 142.789062 102.582031 142.609375 102.082031 142.457031 101.578125 C 142.304688 101.070312 142.175781 100.558594 142.070312 100.039062 C 141.96875 99.519531 141.890625 98.996094 141.839844 98.46875 C 141.789062 97.945312 141.761719 97.417969 141.761719 96.886719 C 141.761719 96.359375 141.789062 95.828125 141.839844 95.304688 C 141.890625 94.777344 141.96875 94.253906 142.070312 93.734375 C 142.175781 93.214844 142.304688 92.703125 142.457031 92.195312 C 142.609375 91.691406 142.789062 91.191406 142.992188 90.703125 C 143.195312 90.214844 143.417969 89.738281 143.667969 89.269531 C 143.917969 88.804688 144.191406 88.351562 144.484375 87.910156 C 144.777344 87.472656 145.09375 87.046875 145.429688 86.636719 C 145.765625 86.226562 146.117188 85.835938 146.492188 85.460938 C 146.867188 85.089844 147.257812 84.734375 147.667969 84.398438 C 148.074219 84.0625 148.5 83.746094 148.941406 83.453125 C 149.378906 83.160156 149.832031 82.886719 150.300781 82.636719 C 150.765625 82.386719 151.242188 82.164062 151.734375 81.960938 C 152.222656 81.757812 152.71875 81.578125 153.226562 81.425781 C 153.730469 81.273438 154.242188 81.144531 154.761719 81.039062 C 155.28125 80.9375 155.804688 80.859375 156.332031 80.808594 C 156.855469 80.757812 157.386719 80.730469 157.914062 80.730469 C 158.441406 80.730469 158.96875 80.757812 159.496094 80.808594 C 160.023438 80.859375 160.546875 80.9375 161.066406 81.039062 C 161.582031 81.144531 162.097656 81.273438 162.601562 81.425781 C 163.109375 81.578125 163.605469 81.757812 164.09375 81.960938 C 164.582031 82.164062 165.0625 82.386719 165.527344 82.636719 C 165.996094 82.886719 166.449219 83.160156 166.886719 83.453125 C 167.328125 83.746094 167.75 84.0625 168.160156 84.398438 C 168.570312 84.734375 168.960938 85.089844 169.335938 85.460938 C 169.710938 85.835938 170.0625 86.226562 170.398438 86.636719 C 170.734375 87.046875 171.050781 87.472656 171.34375 87.910156 C 171.636719 88.351562 171.910156 88.804688 172.160156 89.269531 C 172.40625 89.738281 172.632812 90.214844 172.835938 90.703125 C 173.039062 91.191406 173.21875 91.691406 173.371094 92.195312 C 173.523438 92.703125 173.652344 93.214844 173.753906 93.734375 C 173.859375 94.253906 173.9375 94.777344 173.988281 95.304688 C 174.039062 95.828125 174.066406 96.359375 174.066406 96.886719 Z M 174.066406 96.886719 " fill-opacity="1" fill-rule="nonzero"/><path fill="#2f2e41" d="M 179.746094 85.601562 C 179.480469 85.320312 179.15625 85.175781 178.769531 85.167969 L 179.011719 84.496094 C 179.1875 84.027344 179.113281 83.605469 178.792969 83.222656 C 178.472656 82.84375 178.066406 82.699219 177.578125 82.792969 L 176.691406 82.960938 L 176.777344 82.371094 C 176.792969 82.261719 176.792969 82.148438 176.78125 82.039062 C 176.769531 81.929688 176.742188 81.820312 176.703125 81.71875 C 176.660156 81.613281 176.609375 81.519531 176.542969 81.429688 C 176.476562 81.339844 176.398438 81.257812 176.3125 81.1875 C 176.226562 81.121094 176.132812 81.0625 176.03125 81.015625 C 175.929688 80.972656 175.824219 80.941406 175.714844 80.921875 C 175.605469 80.902344 175.496094 80.898438 175.382812 80.910156 C 175.273438 80.921875 175.167969 80.945312 175.0625 80.984375 C 174.65625 81.144531 174.265625 81.117188 173.886719 80.902344 C 173.507812 80.695312 173.277344 80.378906 173.191406 79.957031 L 172.882812 78.46875 L 172.851562 78.390625 C 171.351562 75.886719 168.464844 74.066406 164.933594 73.398438 C 161.789062 72.800781 158.566406 73.105469 155.460938 73.390625 C 154.230469 73.507812 152.835938 73.640625 151.675781 74.351562 C 150.691406 74.960938 149.859375 76.175781 150.027344 77.40625 C 146.964844 76.46875 143.679688 78.34375 142.054688 80.707031 C 140.125 83.519531 139.808594 87.042969 139.757812 89.800781 C 139.621094 96.320312 140.964844 101.652344 143.746094 105.65625 C 143.949219 105.945312 144 106.550781 144.402344 106.753906 L 144.320312 106.621094 C 144.769531 106.847656 145.226562 107.207031 145.054688 107.597656 C 144.566406 108.714844 147.816406 111.183594 150.109375 112 C 154.289062 113.488281 159.84375 113.363281 163.753906 112.824219 L 163.890625 111.902344 C 165.300781 111.707031 166.292969 111.34375 166.570312 110.769531 C 167.066406 110.347656 167.484375 109.972656 167.851562 109.625 L 167.855469 109.621094 C 167.863281 109.613281 167.878906 109.601562 167.882812 109.59375 C 169.648438 107.902344 170.058594 106.9375 170.246094 105.46875 C 170.421875 104.027344 170.105469 102.566406 169.785156 101.25 C 176.578125 102.300781 167.109375 94.011719 173.4375 92.410156 C 173.511719 92.386719 173.585938 92.371094 173.660156 92.355469 C 173.84375 92.3125 174.027344 92.269531 174.207031 92.21875 C 175.066406 91.984375 175.878906 91.636719 176.640625 91.179688 C 178.410156 90.101562 178.996094 88.671875 179.910156 87.0625 C 180.042969 86.828125 180.097656 86.574219 180.066406 86.304688 C 180.035156 86.035156 179.929688 85.800781 179.746094 85.601562 Z M 179.746094 85.601562 " fill-opacity="1" fill-rule="nonzero"/><g clip-path="url(#id3)"><path fill="#2f2e41" d="M 215.042969 167.316406 C 215.039062 167.953125 215.03125 168.839844 215 169.9375 C 214.996094 170.089844 214.996094 170.246094 214.992188 170.40625 C 214.945312 172.425781 214.894531 174.117188 214.820312 176 C 214.816406 176.132812 214.8125 176.257812 214.804688 176.390625 C 214.703125 179.015625 214.542969 182.070312 214.269531 186.910156 C 213.757812 195.851562 212.867188 188.140625 211.972656 191.277344 C 211.925781 191.433594 211.878906 191.617188 211.835938 191.835938 C 211.699219 192.628906 211.472656 193.394531 211.15625 194.128906 C 210.679688 194.414062 210.191406 194.6875 209.710938 194.957031 C 208.335938 195.722656 206.941406 196.457031 205.535156 197.160156 C 204.742188 197.550781 203.949219 197.933594 203.152344 198.304688 C 203.023438 198.363281 202.902344 198.421875 202.777344 198.476562 C 198.691406 200.367188 194.492188 201.96875 190.179688 203.28125 C 189.339844 203.535156 188.503906 203.785156 187.65625 204.011719 C 186.769531 204.257812 185.886719 204.492188 184.992188 204.707031 C 178.3125 206.347656 171.535156 207.265625 164.660156 207.460938 C 163.734375 207.488281 162.800781 207.5 161.867188 207.5 C 161.402344 207.5 160.945312 207.496094 160.480469 207.492188 C 160.339844 207.492188 160.199219 207.488281 160.058594 207.484375 C 159.648438 207.472656 159.222656 207.46875 158.796875 207.457031 C 150.488281 207.195312 142.351562 205.886719 134.382812 203.53125 L 134.046875 203.429688 C 133.523438 203.273438 133.003906 203.117188 132.488281 202.949219 C 130.09375 202.191406 127.738281 201.34375 125.414062 200.402344 C 123.640625 199.6875 121.890625 198.921875 120.160156 198.105469 C 120.140625 198.101562 120.128906 198.09375 120.113281 198.082031 C 119.753906 197.917969 119.386719 197.742188 119.023438 197.566406 C 118.976562 197.539062 118.925781 197.515625 118.875 197.488281 C 117.523438 196.828125 116.183594 196.136719 114.863281 195.414062 C 113.75 192.859375 112.183594 192.367188 111.210938 190.121094 C 110.929688 189.449219 110.726562 188.757812 110.601562 188.039062 C 110.601562 188.03125 110.597656 188.023438 110.597656 188.015625 C 110.699219 189.363281 110.167969 185.621094 110.597656 188 C 110.59375 187.957031 110.589844 187.910156 110.585938 187.855469 C 110.574219 187.722656 110.558594 187.5625 110.539062 187.363281 C 109.292969 175.222656 109.375 161.332031 108.835938 149.890625 C 108.796875 149.152344 108.761719 148.441406 108.722656 147.765625 C 108.710938 147.539062 108.695312 147.320312 108.683594 147.101562 C 108.707031 147.035156 108.734375 146.96875 108.769531 146.902344 C 108.777344 146.882812 108.785156 146.867188 108.792969 146.847656 C 108.804688 146.824219 108.816406 146.804688 108.832031 146.78125 C 108.835938 146.773438 108.847656 146.757812 108.855469 146.746094 C 108.859375 146.734375 108.867188 146.722656 108.875 146.710938 C 108.90625 146.660156 108.941406 146.605469 108.984375 146.554688 C 109 146.53125 109.015625 146.515625 109.035156 146.496094 C 109.046875 146.476562 109.058594 146.460938 109.078125 146.445312 C 109.089844 146.429688 109.101562 146.414062 109.117188 146.398438 C 109.132812 146.382812 109.144531 146.367188 109.164062 146.347656 C 109.171875 146.335938 109.179688 146.328125 109.191406 146.320312 C 109.222656 146.285156 109.253906 146.253906 109.289062 146.226562 C 109.417969 146.109375 109.554688 146 109.699219 145.902344 C 109.75 145.867188 109.804688 145.835938 109.855469 145.800781 C 110.222656 145.582031 110.605469 145.398438 111.003906 145.25 C 111.144531 145.199219 111.28125 145.152344 111.429688 145.101562 C 111.484375 145.085938 111.535156 145.066406 111.589844 145.050781 C 111.667969 145.023438 111.75 145 111.832031 144.980469 C 112.246094 144.855469 112.691406 144.753906 113.171875 144.652344 C 113.230469 144.644531 113.292969 144.632812 113.355469 144.617188 C 113.441406 144.601562 113.53125 144.585938 113.621094 144.570312 C 113.746094 144.550781 113.871094 144.527344 114 144.503906 C 115.078125 144.335938 116.296875 144.207031 117.644531 144.125 C 117.773438 144.117188 117.898438 144.109375 118.027344 144.101562 C 118.175781 144.097656 118.324219 144.089844 118.476562 144.082031 C 118.601562 144.074219 118.734375 144.070312 118.863281 144.066406 C 118.992188 144.058594 119.121094 144.054688 119.253906 144.050781 C 119.621094 144.042969 120 144.03125 120.382812 144.023438 C 121.476562 144 122.628906 144.007812 123.839844 144.035156 C 124.402344 144.046875 124.976562 144.0625 125.5625 144.089844 C 125.601562 144.089844 125.640625 144.09375 125.675781 144.09375 C 126.1875 144.109375 126.703125 144.132812 127.230469 144.160156 C 127.601562 144.179688 127.972656 144.199219 128.347656 144.21875 C 128.699219 144.242188 129.054688 144.261719 129.414062 144.289062 C 129.691406 144.300781 129.972656 144.324219 130.253906 144.34375 C 130.492188 144.359375 130.730469 144.378906 130.972656 144.394531 L 131.296875 144.414062 C 131.476562 144.429688 131.652344 144.441406 131.835938 144.457031 C 132.234375 144.492188 132.632812 144.523438 133.039062 144.554688 C 133.441406 144.59375 133.851562 144.628906 134.257812 144.664062 C 134.667969 144.703125 135.082031 144.742188 135.496094 144.78125 C 135.539062 144.785156 135.578125 144.789062 135.617188 144.792969 C 135.996094 144.832031 136.371094 144.867188 136.753906 144.90625 C 136.839844 144.914062 136.929688 144.921875 137.019531 144.933594 C 137.382812 144.96875 137.75 145.011719 138.117188 145.050781 C 138.230469 145.0625 138.339844 145.074219 138.453125 145.085938 C 138.742188 145.117188 139.023438 145.144531 139.3125 145.179688 C 139.691406 145.222656 140.082031 145.261719 140.457031 145.3125 C 140.75 145.347656 141.046875 145.378906 141.339844 145.414062 C 141.800781 145.46875 142.265625 145.527344 142.734375 145.589844 C 142.914062 145.613281 143.089844 145.632812 143.265625 145.660156 C 144.601562 145.824219 145.949219 146.011719 147.320312 146.203125 C 149.398438 146.496094 151.507812 146.816406 153.632812 147.160156 C 155.757812 147.503906 157.898438 147.867188 160.050781 148.25 C 160.59375 148.347656 161.136719 148.445312 161.6875 148.546875 C 161.933594 148.59375 162.179688 148.644531 162.425781 148.691406 C 162.84375 148.765625 163.265625 148.847656 163.6875 148.925781 C 164.105469 149.003906 164.527344 149.085938 164.949219 149.167969 C 165.449219 149.265625 165.953125 149.363281 166.453125 149.460938 C 169.746094 150.113281 173.023438 150.8125 176.222656 151.539062 C 176.746094 151.660156 177.273438 151.78125 177.796875 151.902344 C 178.839844 152.144531 179.875 152.390625 180.898438 152.640625 C 181.179688 152.707031 181.460938 152.777344 181.738281 152.84375 C 182.433594 153.019531 183.132812 153.195312 183.816406 153.371094 L 183.9375 153.402344 C 184.441406 153.527344 184.933594 153.652344 185.425781 153.785156 C 186.589844 154.089844 187.734375 154.398438 188.859375 154.710938 C 189.605469 154.914062 190.34375 155.125 191.074219 155.335938 C 192.164062 155.652344 193.234375 155.972656 194.273438 156.292969 C 194.53125 156.375 194.789062 156.453125 195.042969 156.53125 C 195.804688 156.765625 196.554688 157.003906 197.28125 157.242188 C 197.863281 157.433594 198.429688 157.625 198.988281 157.816406 C 199.542969 158.007812 200.09375 158.199219 200.628906 158.394531 C 200.972656 158.515625 201.3125 158.648438 201.65625 158.769531 C 202.144531 158.953125 202.625 159.132812 203.097656 159.3125 C 203.242188 159.367188 203.382812 159.425781 203.523438 159.480469 C 203.617188 159.519531 203.703125 159.554688 203.789062 159.589844 C 203.960938 159.660156 204.132812 159.722656 204.300781 159.792969 C 204.472656 159.859375 204.636719 159.925781 204.804688 160 C 204.96875 160.066406 205.132812 160.132812 205.292969 160.203125 C 205.457031 160.269531 205.617188 160.335938 205.777344 160.410156 C 205.910156 160.464844 206.039062 160.523438 206.167969 160.578125 C 206.425781 160.691406 206.683594 160.804688 206.933594 160.921875 C 207.054688 160.976562 207.179688 161.03125 207.300781 161.089844 L 207.585938 161.222656 C 207.625 161.242188 207.664062 161.261719 207.703125 161.28125 C 207.796875 161.324219 207.890625 161.371094 207.980469 161.414062 C 208.191406 161.511719 208.398438 161.617188 208.601562 161.714844 C 208.871094 161.851562 209.136719 161.988281 209.390625 162.125 C 209.648438 162.261719 209.898438 162.398438 210.136719 162.535156 C 210.175781 162.554688 210.214844 162.578125 210.253906 162.597656 C 210.308594 162.628906 210.363281 162.660156 210.414062 162.691406 C 210.601562 162.796875 210.777344 162.902344 210.957031 163.007812 C 211.304688 163.222656 211.632812 163.433594 211.941406 163.644531 C 212.011719 163.691406 212.078125 163.738281 212.144531 163.78125 C 212.375 163.945312 212.589844 164.105469 212.792969 164.265625 C 212.792969 164.269531 212.792969 164.269531 212.796875 164.269531 C 212.867188 164.320312 212.933594 164.375 212.996094 164.425781 C 213.050781 164.476562 213.109375 164.519531 213.164062 164.570312 C 213.351562 164.734375 213.527344 164.890625 213.6875 165.050781 C 213.738281 165.101562 213.789062 165.152344 213.839844 165.207031 C 213.859375 165.222656 213.878906 165.242188 213.894531 165.265625 C 213.96875 165.335938 214.035156 165.410156 214.09375 165.480469 C 214.105469 165.492188 214.113281 165.503906 214.121094 165.515625 C 214.207031 165.617188 214.289062 165.71875 214.363281 165.820312 C 214.398438 165.871094 214.441406 165.921875 214.472656 165.972656 C 214.515625 166.03125 214.558594 166.097656 214.59375 166.160156 C 214.628906 166.210938 214.65625 166.265625 214.6875 166.316406 C 214.761719 166.445312 214.828125 166.582031 214.882812 166.726562 C 214.921875 166.820312 214.957031 166.921875 214.980469 167.023438 C 215.007812 167.121094 215.027344 167.21875 215.042969 167.316406 Z M 215.042969 167.316406 " fill-opacity="1" fill-rule="nonzero"/></g><path fill="#000000" d="M 215.042969 167.316406 C 215.039062 167.953125 215.03125 168.839844 215 169.9375 C 214.996094 170.089844 214.992188 170.246094 214.988281 170.40625 C 214.949219 171.945312 214.894531 173.851562 214.820312 176 C 214.816406 176.132812 214.8125 176.257812 214.804688 176.390625 C 214.703125 179.015625 214.542969 182.070312 214.269531 186.910156 C 213.757812 195.851562 212.867188 188.140625 211.972656 191.277344 C 209.484375 189.746094 206.757812 188.144531 203.84375 186.5 C 203.320312 186.199219 202.789062 185.902344 202.253906 185.601562 C 196.421875 182.351562 189.914062 178.941406 183.117188 175.566406 C 182.847656 175.429688 182.578125 175.296875 182.308594 175.167969 C 166.738281 167.46875 149.746094 159.980469 135.976562 154.984375 C 133.320312 154.019531 130.78125 153.148438 128.398438 152.386719 C 123.375 150.777344 119.03125 149.65625 115.6875 149.167969 C 112.207031 148.660156 109.804688 148.84375 108.835938 149.890625 C 108.796875 149.152344 108.761719 148.441406 108.722656 147.765625 C 108.707031 147.539062 108.691406 147.320312 108.679688 147.101562 C 108.699219 147.042969 108.730469 146.984375 108.757812 146.925781 C 108.761719 146.917969 108.765625 146.910156 108.769531 146.902344 C 108.777344 146.882812 108.785156 146.867188 108.792969 146.847656 C 108.804688 146.824219 108.816406 146.804688 108.832031 146.78125 C 108.84375 146.757812 108.855469 146.734375 108.875 146.710938 C 108.90625 146.660156 108.941406 146.605469 108.984375 146.554688 C 109.011719 146.515625 109.042969 146.480469 109.078125 146.445312 C 109.089844 146.429688 109.101562 146.414062 109.117188 146.398438 C 109.132812 146.382812 109.144531 146.367188 109.164062 146.347656 C 109.171875 146.335938 109.179688 146.328125 109.191406 146.320312 C 109.222656 146.285156 109.253906 146.253906 109.289062 146.226562 C 109.417969 146.109375 109.554688 146 109.699219 145.902344 C 109.75 145.867188 109.804688 145.835938 109.855469 145.800781 C 110.222656 145.582031 110.605469 145.398438 111.003906 145.25 C 111.144531 145.199219 111.28125 145.152344 111.429688 145.101562 C 111.484375 145.085938 111.535156 145.066406 111.589844 145.050781 C 111.667969 145.023438 111.75 145 111.832031 144.980469 C 112.246094 144.855469 112.691406 144.753906 113.171875 144.652344 C 113.316406 144.625 113.46875 144.597656 113.621094 144.570312 C 113.746094 144.550781 113.871094 144.527344 114 144.503906 C 115.078125 144.335938 116.296875 144.207031 117.644531 144.125 C 117.773438 144.117188 117.898438 144.109375 118.027344 144.101562 C 118.175781 144.097656 118.324219 144.089844 118.476562 144.082031 C 118.601562 144.074219 118.734375 144.070312 118.863281 144.066406 C 118.992188 144.058594 119.121094 144.054688 119.253906 144.050781 C 119.621094 144.042969 120 144.03125 120.382812 144.023438 C 121.476562 144.003906 122.628906 144.011719 123.839844 144.039062 C 124.402344 144.046875 124.976562 144.066406 125.5625 144.09375 C 125.597656 144.09375 125.640625 144.097656 125.675781 144.097656 C 126.1875 144.109375 126.703125 144.136719 127.230469 144.160156 C 127.601562 144.179688 127.972656 144.199219 128.347656 144.21875 C 128.699219 144.242188 129.054688 144.261719 129.414062 144.289062 C 129.691406 144.300781 129.972656 144.324219 130.253906 144.34375 C 130.492188 144.359375 130.730469 144.378906 130.972656 144.394531 C 131.257812 144.414062 131.542969 144.4375 131.835938 144.457031 C 132.234375 144.492188 132.632812 144.523438 133.039062 144.554688 C 133.441406 144.59375 133.851562 144.628906 134.257812 144.664062 C 134.667969 144.703125 135.082031 144.742188 135.496094 144.78125 C 135.539062 144.785156 135.578125 144.789062 135.617188 144.792969 C 135.996094 144.832031 136.371094 144.867188 136.753906 144.90625 C 138.863281 145.121094 141.035156 145.371094 143.265625 145.660156 C 144.601562 145.828125 145.953125 146.011719 147.320312 146.207031 C 149.398438 146.5 151.507812 146.820312 153.632812 147.160156 C 155.757812 147.503906 157.898438 147.867188 160.050781 148.25 C 160.59375 148.347656 161.136719 148.445312 161.6875 148.546875 C 162.351562 148.671875 163.019531 148.796875 163.6875 148.925781 C 164.105469 149.003906 164.527344 149.085938 164.949219 149.167969 C 165.449219 149.265625 165.953125 149.363281 166.453125 149.460938 C 169.746094 150.113281 173.023438 150.8125 176.222656 151.539062 C 176.746094 151.660156 177.273438 151.78125 177.796875 151.902344 C 178.839844 152.144531 179.875 152.390625 180.898438 152.640625 C 181.179688 152.710938 181.460938 152.78125 181.738281 152.847656 C 182.4375 153.023438 183.132812 153.195312 183.816406 153.371094 L 183.816406 153.375 C 183.855469 153.382812 183.894531 153.394531 183.9375 153.402344 C 184.4375 153.53125 184.933594 153.65625 185.425781 153.789062 C 186.589844 154.09375 187.734375 154.398438 188.859375 154.710938 C 189.605469 154.917969 190.34375 155.125 191.074219 155.335938 C 192.164062 155.65625 193.234375 155.972656 194.273438 156.292969 C 194.53125 156.375 194.789062 156.453125 195.042969 156.53125 C 195.804688 156.769531 196.550781 157.007812 197.28125 157.242188 C 197.863281 157.433594 198.429688 157.625 198.988281 157.816406 C 199.542969 158.007812 200.09375 158.199219 200.628906 158.394531 C 200.976562 158.515625 201.316406 158.644531 201.65625 158.765625 C 202.148438 158.949219 202.625 159.128906 203.097656 159.3125 C 203.242188 159.367188 203.382812 159.425781 203.523438 159.480469 C 203.789062 159.582031 204.046875 159.6875 204.300781 159.792969 C 204.472656 159.859375 204.636719 159.925781 204.804688 160 C 204.96875 160.066406 205.132812 160.132812 205.292969 160.203125 C 205.457031 160.269531 205.617188 160.335938 205.777344 160.410156 C 205.910156 160.464844 206.039062 160.523438 206.167969 160.578125 C 206.425781 160.691406 206.683594 160.804688 206.933594 160.921875 C 207.054688 160.976562 207.179688 161.03125 207.300781 161.089844 L 207.585938 161.222656 C 207.625 161.242188 207.664062 161.261719 207.703125 161.28125 C 208.011719 161.425781 208.308594 161.570312 208.601562 161.714844 C 208.871094 161.851562 209.136719 161.988281 209.390625 162.125 C 209.691406 162.285156 209.976562 162.441406 210.253906 162.597656 C 210.308594 162.628906 210.363281 162.660156 210.417969 162.691406 C 210.601562 162.796875 210.777344 162.902344 210.957031 163.007812 C 211.304688 163.222656 211.632812 163.433594 211.941406 163.644531 C 212.246094 163.855469 212.53125 164.058594 212.792969 164.265625 C 212.792969 164.269531 212.792969 164.269531 212.796875 164.269531 C 212.925781 164.371094 213.046875 164.472656 213.164062 164.570312 C 213.351562 164.734375 213.527344 164.890625 213.6875 165.050781 C 213.738281 165.101562 213.789062 165.152344 213.839844 165.207031 C 213.859375 165.222656 213.878906 165.242188 213.894531 165.265625 C 213.972656 165.347656 214.046875 165.429688 214.121094 165.515625 C 214.207031 165.617188 214.289062 165.71875 214.363281 165.820312 C 214.398438 165.871094 214.441406 165.921875 214.472656 165.972656 C 214.515625 166.03125 214.558594 166.097656 214.59375 166.160156 C 214.628906 166.210938 214.65625 166.265625 214.6875 166.316406 C 214.761719 166.445312 214.828125 166.582031 214.882812 166.726562 C 214.921875 166.824219 214.953125 166.921875 214.980469 167.023438 C 215.007812 167.121094 215.027344 167.21875 215.042969 167.316406 Z M 215.042969 167.316406 " fill-opacity="0.2" fill-rule="nonzero"/></svg>