<svg xmlns="http://www.w3.org/2000/svg" xmlns:xlink="http://www.w3.org/1999/xlink" width="200" zoomAndPan="magnify" viewBox="0 0 150 149.999998" height="200" preserveAspectRatio="xMidYMid meet" version="1.0"><defs><clipPath id="id1"><path d="M 119 116 L 126 116 L 126 121.035156 L 119 121.035156 Z M 119 116 " clip-rule="nonzero"/></clipPath><clipPath id="id2"><path d="M 68 28.785156 L 150 28.785156 L 150 111 L 68 111 Z M 68 28.785156 " clip-rule="nonzero"/></clipPath></defs><g clip-path="url(#id1)"><path fill="#f0f0f0" d="M 119.691406 116.160156 L 125.203125 116.160156 L 125.203125 121.011719 L 119.691406 121.011719 Z M 119.691406 116.160156 " fill-opacity="1" fill-rule="nonzero"/></g><g clip-path="url(#id2)"><path fill="#f2f2f2" d="M 150 69.570312 C 150 71.390625 149.878906 73.203125 149.636719 75.011719 C 149.394531 76.816406 149.03125 78.59375 148.550781 80.351562 C 148.066406 82.109375 147.46875 83.824219 146.757812 85.5 C 146.042969 87.179688 145.222656 88.800781 144.292969 90.367188 C 143.363281 91.933594 142.332031 93.429688 141.199219 94.859375 C 140.066406 96.289062 138.847656 97.636719 137.535156 98.902344 C 136.222656 100.167969 134.828125 101.339844 133.359375 102.417969 C 131.890625 103.496094 130.355469 104.472656 128.753906 105.347656 C 128.390625 105.546875 128.019531 105.738281 127.648438 105.929688 C 126.269531 106.628906 124.855469 107.246094 123.40625 107.785156 C 122.828125 108 122.246094 108.203125 121.65625 108.390625 C 121.601562 108.410156 121.542969 108.429688 121.484375 108.445312 C 118.601562 109.359375 115.652344 109.945312 112.640625 110.203125 C 109.625 110.460938 106.617188 110.386719 103.621094 109.976562 C 100.625 109.566406 97.707031 108.832031 94.875 107.777344 C 92.039062 106.71875 89.359375 105.363281 86.824219 103.707031 C 86.148438 103.265625 85.480469 102.800781 84.832031 102.320312 C 84.464844 102.046875 84.101562 101.769531 83.742188 101.480469 C 82.730469 100.679688 81.757812 99.828125 80.824219 98.929688 C 78.84375 97.03125 77.074219 94.953125 75.511719 92.695312 C 73.953125 90.441406 72.636719 88.050781 71.5625 85.527344 C 70.484375 83.003906 69.675781 80.398438 69.128906 77.714844 C 68.582031 75.027344 68.308594 72.3125 68.3125 69.570312 C 68.3125 47.054688 86.597656 28.804688 109.15625 28.804688 C 131.714844 28.804688 150 47.054688 150 69.570312 Z M 150 69.570312 " fill-opacity="1" fill-rule="nonzero"/></g><path fill="#3f3d56" d="M 118.910156 88.59375 L 117.988281 92.070312 L 121.484375 108.445312 C 119.15625 109.175781 116.777344 109.699219 114.355469 110.007812 C 111.929688 110.316406 109.5 110.40625 107.058594 110.28125 C 104.617188 110.15625 102.207031 109.816406 99.828125 109.261719 C 97.449219 108.707031 95.140625 107.945312 92.894531 106.976562 L 95.625 95.554688 L 95.714844 89.359375 L 96.011719 68.929688 L 96.085938 68.890625 C 96.089844 68.886719 96.097656 68.886719 96.101562 68.882812 L 103.054688 65.320312 L 115.050781 65.023438 L 124.003906 69.375 L 123.933594 69.628906 Z M 118.910156 88.59375 " fill-opacity="1" fill-rule="nonzero"/><path fill="#9e616a" d="M 123.816406 118.449219 C 123.679688 118.285156 123.558594 118.105469 123.460938 117.917969 C 123.363281 117.726562 123.285156 117.53125 123.230469 117.324219 C 123.171875 117.117188 123.140625 116.90625 123.132812 116.695312 C 123.121094 116.480469 123.136719 116.269531 123.175781 116.058594 C 123.210938 115.847656 123.269531 115.644531 123.351562 115.445312 C 123.433594 115.25 123.539062 115.0625 123.660156 114.886719 C 123.785156 114.710938 123.925781 114.550781 124.082031 114.40625 C 124.242188 114.265625 124.414062 114.136719 124.597656 114.03125 L 122.652344 103.824219 L 127.644531 105.902344 L 128.726562 115.277344 C 128.886719 115.601562 128.984375 115.941406 129.015625 116.296875 C 129.050781 116.65625 129.019531 117.007812 128.921875 117.355469 C 128.824219 117.703125 128.671875 118.023438 128.457031 118.3125 C 128.242188 118.601562 127.984375 118.84375 127.683594 119.039062 C 127.378906 119.234375 127.050781 119.371094 126.699219 119.445312 C 126.347656 119.519531 125.992188 119.53125 125.636719 119.476562 C 125.28125 119.421875 124.945312 119.304688 124.632812 119.128906 C 124.316406 118.953125 124.046875 118.726562 123.816406 118.449219 Z M 123.816406 118.449219 " fill-opacity="1" fill-rule="nonzero"/><path fill="#3f3d56" d="M 122.199219 69.691406 L 123.480469 69.273438 C 123.480469 69.273438 127.546875 71.878906 127.15625 78.171875 C 127.15625 78.171875 127.308594 81.429688 127.164062 83.597656 C 127 86.085938 129.234375 110.796875 129.234375 110.796875 L 121.992188 110.796875 L 118.886719 88.417969 Z M 122.199219 69.691406 " fill-opacity="1" fill-rule="nonzero"/><path fill="#9e616a" d="M 117.996094 53.851562 C 117.996094 54.394531 117.945312 54.9375 117.835938 55.472656 C 117.730469 56.003906 117.574219 56.523438 117.363281 57.027344 C 117.15625 57.53125 116.898438 58.011719 116.59375 58.464844 C 116.292969 58.917969 115.949219 59.335938 115.5625 59.722656 C 115.175781 60.105469 114.753906 60.449219 114.300781 60.753906 C 113.847656 61.054688 113.367188 61.3125 112.863281 61.519531 C 112.359375 61.730469 111.839844 61.886719 111.304688 61.992188 C 110.765625 62.097656 110.226562 62.152344 109.679688 62.152344 C 109.132812 62.152344 108.59375 62.097656 108.058594 61.992188 C 107.523438 61.886719 107.003906 61.730469 106.5 61.519531 C 105.992188 61.3125 105.515625 61.054688 105.058594 60.753906 C 104.605469 60.449219 104.1875 60.105469 103.800781 59.722656 C 103.414062 59.335938 103.070312 58.917969 102.765625 58.464844 C 102.460938 58.011719 102.207031 57.53125 101.996094 57.027344 C 101.789062 56.523438 101.628906 56.003906 101.523438 55.472656 C 101.417969 54.9375 101.363281 54.394531 101.363281 53.851562 C 101.363281 53.304688 101.417969 52.765625 101.523438 52.230469 C 101.628906 51.699219 101.789062 51.179688 101.996094 50.675781 C 102.207031 50.171875 102.460938 49.691406 102.765625 49.238281 C 103.070312 48.785156 103.414062 48.367188 103.800781 47.980469 C 104.1875 47.597656 104.605469 47.253906 105.058594 46.949219 C 105.515625 46.648438 105.992188 46.390625 106.5 46.183594 C 107.003906 45.972656 107.523438 45.816406 108.058594 45.710938 C 108.59375 45.605469 109.132812 45.550781 109.679688 45.550781 C 110.226562 45.550781 110.765625 45.601562 111.300781 45.707031 C 111.832031 45.8125 112.351562 45.964844 112.855469 46.171875 C 113.359375 46.378906 113.839844 46.632812 114.292969 46.933594 C 114.746094 47.234375 115.167969 47.578125 115.550781 47.960938 C 115.9375 48.34375 116.285156 48.761719 116.585938 49.214844 C 116.890625 49.664062 117.148438 50.140625 117.359375 50.644531 C 117.566406 51.144531 117.726562 51.664062 117.832031 52.195312 C 117.941406 52.726562 117.996094 53.265625 117.996094 53.808594 C 117.996094 53.824219 117.996094 53.835938 117.996094 53.851562 Z M 117.996094 53.851562 " fill-opacity="1" fill-rule="nonzero"/><path fill="#2f2e41" d="M 101.390625 42.703125 C 102.367188 40.613281 104.25 41.023438 105.898438 41.734375 C 107.988281 41.269531 109.972656 39.886719 112.222656 40.707031 C 114.441406 43.921875 121.878906 42.976562 120.296875 48.214844 C 120.296875 49.46875 122.664062 48.738281 122.25 50.792969 C 123.503906 54.75 117.722656 62.238281 114.402344 60.664062 C 115.222656 59.160156 117.097656 55.75 114.253906 55.410156 C 108.136719 61.09375 113.621094 44.589844 105.933594 49.390625 C 103.390625 51.714844 99.902344 45.027344 101.390625 42.703125 Z M 101.390625 42.703125 " fill-opacity="1" fill-rule="nonzero"/><path fill="#e4e4e4" d="M 114.117188 109.285156 L 100.84375 106.660156 L 104.246094 89.507812 C 108.945312 91.28125 113.371094 92.15625 117.523438 92.132812 C 113.894531 97.445312 112.242188 103.148438 114.117188 109.285156 Z M 114.117188 109.285156 " fill-opacity="1" fill-rule="nonzero"/><path fill="#9e30ff" d="M 112.1875 110.292969 L 98.914062 107.667969 C 97.824219 99.898438 98.8125 94.046875 102.316406 90.515625 C 107.015625 92.289062 111.4375 93.164062 115.59375 93.140625 C 113.378906 98.644531 112.242188 104.363281 112.1875 110.292969 Z M 112.1875 110.292969 " fill-opacity="1" fill-rule="nonzero"/><path fill="#9e616a" d="M 103.390625 105.515625 C 103.367188 105.300781 103.316406 105.09375 103.246094 104.894531 C 103.171875 104.691406 103.082031 104.5 102.96875 104.320312 C 102.851562 104.140625 102.722656 103.972656 102.570312 103.820312 C 102.421875 103.667969 102.253906 103.535156 102.074219 103.417969 C 101.894531 103.300781 101.707031 103.207031 101.503906 103.132812 C 101.304688 103.058594 101.097656 103.007812 100.886719 102.976562 C 100.671875 102.949219 100.460938 102.941406 100.246094 102.960938 C 100.035156 102.976562 99.824219 103.015625 99.621094 103.078125 L 93.453125 94.707031 L 91.578125 99.769531 L 97.71875 106.945312 C 97.851562 107.28125 98.035156 107.585938 98.273438 107.851562 C 98.515625 108.121094 98.792969 108.339844 99.113281 108.503906 C 99.433594 108.671875 99.773438 108.773438 100.132812 108.816406 C 100.492188 108.855469 100.84375 108.832031 101.195312 108.746094 C 101.542969 108.65625 101.867188 108.507812 102.160156 108.304688 C 102.457031 108.097656 102.707031 107.84375 102.90625 107.546875 C 103.109375 107.25 103.253906 106.925781 103.335938 106.574219 C 103.421875 106.226562 103.4375 105.871094 103.390625 105.515625 Z M 103.390625 105.515625 " fill-opacity="1" fill-rule="nonzero"/><path fill="#3f3d56" d="M 97.863281 69.371094 L 96.746094 68.617188 C 96.746094 68.617188 90.101562 69.238281 88.734375 75.394531 C 88.734375 75.394531 87.734375 79.09375 87.277344 81.21875 C 87.039062 82.308594 83.890625 92.863281 83.890625 92.863281 L 94.570312 104.511719 L 97.488281 100.144531 L 94.570312 92.863281 Z M 97.863281 69.371094 " fill-opacity="1" fill-rule="nonzero"/><path fill="#9e30ff" d="M 0 49.273438 L 5.511719 49.273438 L 5.511719 54.125 L 0 54.125 Z M 0 49.273438 " fill-opacity="1" fill-rule="nonzero"/><path fill="#9e30ff" d="M 11.832031 68.683594 L 17.34375 68.683594 L 17.34375 73.535156 L 11.832031 73.535156 Z M 11.832031 68.683594 " fill-opacity="1" fill-rule="nonzero"/><path fill="#9e30ff" d="M 20.421875 101.847656 L 25.933594 101.847656 L 25.933594 106.699219 L 20.421875 106.699219 Z M 20.421875 101.847656 " fill-opacity="1" fill-rule="nonzero"/><path fill="#e4e4e4" d="M 20.460938 38.128906 C 20.292969 38.128906 20.144531 38.191406 20.027344 38.3125 C 19.90625 38.429688 19.847656 38.574219 19.847656 38.746094 C 19.847656 38.914062 19.90625 39.058594 20.027344 39.179688 C 20.144531 39.300781 20.292969 39.359375 20.460938 39.359375 L 65.429688 39.359375 C 65.601562 39.359375 65.746094 39.300781 65.863281 39.179688 C 65.984375 39.058594 66.042969 38.914062 66.042969 38.746094 C 66.042969 38.574219 65.984375 38.429688 65.863281 38.3125 C 65.746094 38.191406 65.601562 38.132812 65.429688 38.128906 Z M 20.460938 38.128906 " fill-opacity="1" fill-rule="nonzero"/><path fill="#e4e4e4" d="M 20.460938 41.820312 C 20.292969 41.820312 20.144531 41.878906 20.027344 42 C 19.90625 42.117188 19.84375 42.261719 19.84375 42.433594 C 19.84375 42.601562 19.902344 42.746094 20.023438 42.867188 C 20.144531 42.988281 20.289062 43.046875 20.460938 43.046875 L 48.886719 43.046875 C 49.058594 43.046875 49.203125 42.988281 49.324219 42.867188 C 49.445312 42.75 49.503906 42.605469 49.503906 42.433594 C 49.503906 42.265625 49.445312 42.121094 49.324219 42 C 49.203125 41.878906 49.058594 41.820312 48.886719 41.820312 Z M 20.460938 41.820312 " fill-opacity="1" fill-rule="nonzero"/><path fill="#e4e4e4" d="M 14.625 82.292969 C 14.457031 82.292969 14.3125 82.351562 14.191406 82.472656 C 14.070312 82.59375 14.011719 82.738281 14.011719 82.90625 C 14.011719 83.078125 14.070312 83.222656 14.191406 83.34375 C 14.3125 83.460938 14.457031 83.523438 14.625 83.523438 L 59.59375 83.523438 C 59.765625 83.523438 59.910156 83.460938 60.03125 83.34375 C 60.152344 83.222656 60.210938 83.078125 60.210938 82.90625 C 60.210938 82.738281 60.152344 82.59375 60.03125 82.472656 C 59.910156 82.351562 59.765625 82.292969 59.59375 82.292969 Z M 14.625 82.292969 " fill-opacity="1" fill-rule="nonzero"/><path fill="#e4e4e4" d="M 14.625 85.980469 C 14.457031 85.980469 14.3125 86.042969 14.191406 86.160156 C 14.070312 86.28125 14.011719 86.425781 14.007812 86.59375 C 14.007812 86.765625 14.070312 86.910156 14.1875 87.03125 C 14.308594 87.152344 14.453125 87.210938 14.625 87.210938 L 43.054688 87.210938 C 43.222656 87.210938 43.367188 87.152344 43.488281 87.03125 C 43.609375 86.910156 43.667969 86.765625 43.667969 86.597656 C 43.667969 86.425781 43.609375 86.28125 43.488281 86.160156 C 43.367188 86.042969 43.222656 85.980469 43.054688 85.980469 Z M 14.625 85.980469 " fill-opacity="1" fill-rule="nonzero"/><path fill="#e4e4e4" d="M 40.234375 113.839844 C 40.066406 113.839844 39.917969 113.898438 39.800781 114.019531 C 39.679688 114.136719 39.617188 114.28125 39.617188 114.453125 C 39.617188 114.621094 39.679688 114.765625 39.800781 114.886719 C 39.917969 115.007812 40.066406 115.066406 40.234375 115.066406 L 85.203125 115.066406 C 85.375 115.066406 85.519531 115.007812 85.640625 114.886719 C 85.757812 114.765625 85.820312 114.621094 85.820312 114.453125 C 85.820312 114.28125 85.757812 114.136719 85.640625 114.019531 C 85.519531 113.898438 85.375 113.839844 85.203125 113.839844 Z M 40.234375 113.839844 " fill-opacity="1" fill-rule="nonzero"/><path fill="#e4e4e4" d="M 40.234375 117.527344 C 40.066406 117.527344 39.917969 117.585938 39.800781 117.707031 C 39.679688 117.824219 39.617188 117.96875 39.617188 118.140625 C 39.617188 118.308594 39.675781 118.453125 39.796875 118.574219 C 39.917969 118.695312 40.0625 118.753906 40.230469 118.757812 L 68.660156 118.757812 C 68.832031 118.757812 68.976562 118.695312 69.097656 118.578125 C 69.21875 118.457031 69.28125 118.3125 69.28125 118.140625 C 69.28125 117.972656 69.21875 117.824219 69.097656 117.707031 C 68.976562 117.585938 68.832031 117.527344 68.660156 117.527344 Z M 40.234375 117.527344 " fill-opacity="1" fill-rule="nonzero"/><path fill="#3f3d56" d="M 2.589844 51.71875 C 3.925781 51.429688 5.148438 50.890625 6.265625 50.101562 C 7.378906 49.316406 8.296875 48.34375 9.019531 47.1875 C 9.429688 46.535156 9.753906 45.84375 9.996094 45.113281 C 10.039062 44.964844 9.988281 44.863281 9.839844 44.8125 C 9.691406 44.761719 9.589844 44.8125 9.535156 44.957031 C 9.117188 46.1875 8.476562 47.285156 7.609375 48.253906 C 6.746094 49.226562 5.726562 49.988281 4.554688 50.546875 C 3.898438 50.863281 3.214844 51.09375 2.5 51.242188 C 2.195312 51.308594 2.285156 51.785156 2.589844 51.71875 Z M 2.589844 51.71875 " fill-opacity="1" fill-rule="nonzero"/><path fill="#3f3d56" d="M 7.328125 46.042969 C 8.207031 45.550781 9.082031 45.058594 9.957031 44.566406 C 10 44.542969 10.113281 44.457031 10.15625 44.46875 C 10.121094 44.457031 10.152344 44.484375 10.152344 44.515625 C 10.152344 44.554688 10.160156 44.597656 10.160156 44.640625 C 10.171875 44.894531 10.175781 45.152344 10.183594 45.40625 L 10.222656 46.875 C 10.230469 47.183594 10.714844 47.222656 10.707031 46.910156 L 10.660156 45.183594 C 10.648438 44.789062 10.75 43.910156 10.105469 43.988281 C 9.875 44.015625 9.660156 44.175781 9.464844 44.289062 L 8.664062 44.738281 L 7.121094 45.605469 C 6.847656 45.757812 7.054688 46.195312 7.328125 46.042969 Z M 7.328125 46.042969 " fill-opacity="1" fill-rule="nonzero"/><path fill="#3f3d56" d="M 14.636719 71.09375 C 13.316406 71.4375 12.117188 72.027344 11.035156 72.855469 C 9.953125 73.6875 9.074219 74.695312 8.398438 75.878906 C 8.019531 76.546875 7.722656 77.25 7.507812 77.988281 C 7.472656 78.140625 7.53125 78.238281 7.679688 78.28125 C 7.832031 78.320312 7.929688 78.265625 7.976562 78.117188 C 8.347656 76.871094 8.945312 75.75 9.773438 74.746094 C 10.597656 73.742188 11.589844 72.9375 12.738281 72.335938 C 13.382812 71.996094 14.058594 71.738281 14.765625 71.5625 C 15.070312 71.484375 14.941406 71.015625 14.636719 71.09375 Z M 14.636719 71.09375 " fill-opacity="1" fill-rule="nonzero"/><path fill="#3f3d56" d="M 10.128906 76.957031 L 7.585938 78.519531 C 7.542969 78.546875 7.5 78.574219 7.457031 78.597656 C 7.410156 78.621094 7.363281 78.621094 7.394531 78.648438 C 7.355469 78.613281 7.363281 78.46875 7.363281 78.425781 L 7.3125 77.691406 L 7.214844 76.226562 C 7.191406 75.914062 6.707031 75.914062 6.726562 76.226562 L 6.84375 77.949219 C 6.871094 78.339844 6.796875 79.152344 7.398438 79.117188 C 7.664062 79.105469 7.921875 78.882812 8.140625 78.75 L 8.867188 78.300781 L 10.375 77.375 C 10.640625 77.210938 10.394531 76.792969 10.128906 76.957031 Z M 10.128906 76.957031 " fill-opacity="1" fill-rule="nonzero"/><path fill="#3f3d56" d="M 22.996094 104.078125 C 24.257812 104.40625 25.402344 104.964844 26.433594 105.757812 C 27.464844 106.546875 28.304688 107.507812 28.945312 108.636719 C 29.304688 109.269531 29.585938 109.933594 29.785156 110.632812 C 29.832031 110.78125 29.933594 110.835938 30.082031 110.792969 C 30.234375 110.753906 30.292969 110.65625 30.253906 110.503906 C 29.867188 109.199219 29.242188 108.019531 28.375 106.964844 C 27.511719 105.910156 26.476562 105.066406 25.269531 104.429688 C 24.585938 104.070312 23.875 103.796875 23.128906 103.609375 C 22.824219 103.53125 22.695312 104 22.996094 104.078125 Z M 22.996094 104.078125 " fill-opacity="1" fill-rule="nonzero"/><path fill="#3f3d56" d="M 27.390625 109.890625 L 28.898438 110.816406 L 29.625 111.265625 C 29.84375 111.398438 30.097656 111.617188 30.367188 111.632812 C 30.96875 111.667969 30.894531 110.855469 30.921875 110.460938 L 31.035156 108.742188 C 31.058594 108.429688 30.570312 108.429688 30.550781 108.742188 L 30.40625 110.910156 C 30.402344 110.964844 30.414062 111.121094 30.371094 111.164062 C 30.402344 111.132812 30.367188 111.148438 30.332031 111.128906 C 30.28125 111.097656 30.226562 111.066406 30.175781 111.035156 L 27.636719 109.472656 C 27.367188 109.304688 27.125 109.726562 27.390625 109.890625 Z M 27.390625 109.890625 " fill-opacity="1" fill-rule="nonzero"/><path fill="#9e30ff" d="M 13.289062 40.375 C 13.289062 40.675781 13.234375 40.964844 13.117188 41.242188 C 13.003906 41.519531 12.839844 41.761719 12.625 41.976562 C 12.414062 42.1875 12.167969 42.351562 11.890625 42.46875 C 11.613281 42.582031 11.320312 42.640625 11.019531 42.640625 C 10.71875 42.640625 10.429688 42.582031 10.152344 42.46875 C 9.875 42.351562 9.628906 42.1875 9.417969 41.976562 C 9.203125 41.761719 9.039062 41.519531 8.925781 41.242188 C 8.808594 40.964844 8.753906 40.675781 8.753906 40.375 C 8.753906 40.074219 8.808594 39.785156 8.925781 39.507812 C 9.039062 39.230469 9.203125 38.984375 9.417969 38.773438 C 9.628906 38.5625 9.875 38.398438 10.152344 38.28125 C 10.429688 38.167969 10.71875 38.109375 11.019531 38.109375 C 11.320312 38.109375 11.613281 38.167969 11.890625 38.28125 C 12.167969 38.398438 12.414062 38.5625 12.625 38.773438 C 12.839844 38.984375 13.003906 39.230469 13.117188 39.507812 C 13.234375 39.785156 13.289062 40.074219 13.289062 40.375 Z M 13.289062 40.375 " fill-opacity="1" fill-rule="nonzero"/><path fill="#9e30ff" d="M 9.402344 84.753906 C 9.402344 85.050781 9.34375 85.339844 9.226562 85.617188 C 9.113281 85.894531 8.949219 86.140625 8.734375 86.355469 C 8.523438 86.566406 8.277344 86.730469 8 86.84375 C 7.722656 86.960938 7.433594 87.015625 7.132812 87.015625 C 6.832031 87.015625 6.539062 86.960938 6.261719 86.84375 C 5.984375 86.730469 5.738281 86.566406 5.527344 86.355469 C 5.3125 86.140625 5.148438 85.894531 5.035156 85.617188 C 4.917969 85.339844 4.863281 85.050781 4.863281 84.753906 C 4.863281 84.453125 4.917969 84.164062 5.035156 83.886719 C 5.148438 83.609375 5.3125 83.363281 5.527344 83.152344 C 5.738281 82.9375 5.984375 82.773438 6.261719 82.660156 C 6.539062 82.542969 6.832031 82.488281 7.132812 82.488281 C 7.433594 82.488281 7.722656 82.542969 8 82.660156 C 8.277344 82.773438 8.523438 82.9375 8.734375 83.152344 C 8.949219 83.363281 9.113281 83.609375 9.226562 83.886719 C 9.34375 84.164062 9.402344 84.453125 9.402344 84.753906 Z M 9.402344 84.753906 " fill-opacity="1" fill-rule="nonzero"/><path fill="#9e30ff" d="M 33.875 116.242188 C 33.875 116.542969 33.816406 116.832031 33.699219 117.109375 C 33.585938 117.386719 33.421875 117.632812 33.210938 117.84375 C 32.996094 118.058594 32.75 118.222656 32.472656 118.335938 C 32.195312 118.449219 31.90625 118.507812 31.605469 118.507812 C 31.304688 118.507812 31.015625 118.449219 30.738281 118.335938 C 30.457031 118.222656 30.214844 118.058594 30 117.84375 C 29.789062 117.632812 29.625 117.386719 29.507812 117.109375 C 29.394531 116.832031 29.335938 116.542969 29.335938 116.242188 C 29.335938 115.941406 29.394531 115.652344 29.507812 115.375 C 29.625 115.097656 29.789062 114.855469 30 114.640625 C 30.214844 114.429688 30.457031 114.265625 30.738281 114.152344 C 31.015625 114.035156 31.304688 113.980469 31.605469 113.980469 C 31.90625 113.980469 32.195312 114.035156 32.472656 114.152344 C 32.75 114.265625 32.996094 114.429688 33.210938 114.640625 C 33.421875 114.855469 33.585938 115.097656 33.699219 115.375 C 33.816406 115.652344 33.875 115.941406 33.875 116.242188 Z M 33.875 116.242188 " fill-opacity="1" fill-rule="nonzero"/></svg>