<svg xmlns="http://www.w3.org/2000/svg" xmlns:xlink="http://www.w3.org/1999/xlink" width="220" zoomAndPan="magnify" viewBox="0 0 165 165.000002" height="220" preserveAspectRatio="xMidYMid meet" version="1.0"><defs><clipPath id="id1"><path d="M 24.351562 32 L 140.648438 32 L 140.648438 164 L 24.351562 164 Z M 24.351562 32 " clip-rule="nonzero"/></clipPath></defs><g clip-path="url(#id1)"><path fill="#264de4" d="M 82.449219 164 L 35 150.828125 L 24.429688 32.230469 L 140.613281 32.230469 L 130.03125 150.808594 L 82.453125 164 Z M 82.449219 164 " fill-opacity="1" fill-rule="nonzero"/></g><path fill="#2965f1" d="M 120.972656 143.261719 L 130.015625 41.929688 L 82.523438 41.925781 L 82.523438 153.917969 L 120.972656 143.257812 Z M 120.972656 143.261719 " fill-opacity="1" fill-rule="nonzero"/><path fill="#ebebeb" d="M 48.667969 85.914062 L 49.972656 100.457031 L 82.523438 100.457031 L 82.523438 85.914062 Z M 48.667969 85.914062 " fill-opacity="1" fill-rule="nonzero"/><path fill="#ebebeb" d="M 46.050781 56.472656 L 47.371094 71.019531 L 82.523438 71.019531 L 82.523438 56.472656 Z M 46.050781 56.472656 " fill-opacity="1" fill-rule="nonzero"/><path fill="#ebebeb" d="M 82.523438 123.691406 L 82.460938 123.707031 L 66.257812 119.332031 L 65.222656 107.730469 L 50.621094 107.730469 L 52.660156 130.570312 L 82.453125 138.84375 L 82.523438 138.824219 Z M 82.523438 123.691406 " fill-opacity="1" fill-rule="nonzero"/><path fill="#000000" d="M 51.773438 0 L 69.390625 0 L 69.390625 7.367188 L 59.140625 7.367188 L 59.140625 14.734375 L 69.390625 14.734375 L 69.390625 22.101562 L 51.773438 22.101562 Z M 51.773438 0 " fill-opacity="1" fill-rule="nonzero"/><path fill="#000000" d="M 72.914062 0 L 90.53125 0 L 90.53125 6.40625 L 80.28125 6.40625 L 80.28125 7.6875 L 90.53125 7.6875 L 90.53125 22.421875 L 72.914062 22.421875 L 72.914062 15.695312 L 83.164062 15.695312 L 83.164062 14.414062 L 72.914062 14.414062 Z M 72.914062 0 " fill-opacity="1" fill-rule="nonzero"/><path fill="#000000" d="M 94.054688 0 L 111.671875 0 L 111.671875 6.40625 L 101.417969 6.40625 L 101.417969 7.6875 L 111.671875 7.6875 L 111.671875 22.421875 L 94.054688 22.421875 L 94.054688 15.695312 L 104.300781 15.695312 L 104.300781 14.414062 L 94.054688 14.414062 Z M 94.054688 0 " fill-opacity="1" fill-rule="nonzero"/><path fill="#ffffff" d="M 116.285156 85.914062 L 118.910156 56.472656 L 82.472656 56.472656 L 82.472656 71.019531 L 102.96875 71.019531 L 101.648438 85.914062 L 82.472656 85.914062 L 82.472656 100.457031 L 100.386719 100.457031 L 98.695312 119.320312 L 82.472656 123.703125 L 82.472656 138.832031 L 112.289062 130.570312 L 112.507812 128.113281 L 115.929688 89.820312 Z M 116.285156 85.914062 " fill-opacity="1" fill-rule="nonzero"/></svg>