<svg xmlns="http://www.w3.org/2000/svg" xmlns:xlink="http://www.w3.org/1999/xlink" width="220" zoomAndPan="magnify" viewBox="0 0 165 165.000002" height="220" preserveAspectRatio="xMidYMid meet" version="1.0"><defs><clipPath id="id1"><path d="M 24.351562 32 L 140.648438 32 L 140.648438 164 L 24.351562 164 Z M 24.351562 32 " clip-rule="nonzero"/></clipPath></defs><g clip-path="url(#id1)"><path fill="#e44d26" d="M 140.613281 32.230469 L 130.03125 150.808594 L 82.449219 164 L 35 150.828125 L 24.429688 32.230469 L 140.613281 32.226562 L 140.617188 32.226562 Z M 140.613281 32.230469 " fill-opacity="1" fill-rule="nonzero"/></g><path fill="#f16529" d="M 82.523438 153.917969 L 120.972656 143.261719 L 130.015625 41.929688 L 82.523438 41.925781 Z M 82.523438 153.917969 " fill-opacity="1" fill-rule="nonzero"/><path fill="#ebebeb" d="M 61.945312 71.019531 L 82.523438 71.019531 L 82.523438 56.472656 L 46.050781 56.472656 L 46.398438 60.375 L 49.972656 100.457031 L 82.523438 100.457031 L 82.523438 85.914062 L 63.273438 85.914062 Z M 61.945312 71.019531 " fill-opacity="1" fill-rule="nonzero"/><path fill="#ebebeb" d="M 65.222656 107.730469 L 50.621094 107.730469 L 52.660156 130.570312 L 82.453125 138.84375 L 82.523438 138.824219 L 82.523438 123.691406 L 82.460938 123.707031 L 66.257812 119.332031 Z M 65.222656 107.730469 " fill-opacity="1" fill-rule="nonzero"/><path fill="#000000" d="M 35.238281 0 L 42.628906 0 L 42.628906 7.304688 L 49.390625 7.304688 L 49.390625 0 L 56.785156 0 L 56.785156 22.117188 L 49.394531 22.117188 L 49.394531 14.710938 L 42.628906 14.710938 L 42.628906 22.117188 L 35.238281 22.117188 Z M 35.238281 0 " fill-opacity="1" fill-rule="nonzero"/><path fill="#000000" d="M 66.503906 7.335938 L 59.996094 7.335938 L 59.996094 0 L 80.410156 0 L 80.410156 7.335938 L 73.898438 7.335938 L 73.898438 22.117188 L 66.503906 22.117188 Z M 66.503906 7.335938 " fill-opacity="1" fill-rule="nonzero"/><path fill="#000000" d="M 83.648438 0 L 91.355469 0 L 96.09375 7.769531 L 100.832031 0 L 108.542969 0 L 108.542969 22.117188 L 101.183594 22.117188 L 101.183594 11.152344 L 96.09375 19.015625 L 95.96875 19.015625 L 90.878906 11.152344 L 90.878906 22.117188 L 83.648438 22.117188 Z M 83.648438 0 " fill-opacity="1" fill-rule="nonzero"/><path fill="#000000" d="M 112.222656 0 L 119.613281 0 L 119.613281 14.804688 L 130.011719 14.804688 L 130.011719 22.117188 L 112.222656 22.117188 Z M 112.222656 0 " fill-opacity="1" fill-rule="nonzero"/><path fill="#ffffff" d="M 82.472656 100.457031 L 100.386719 100.457031 L 98.695312 119.320312 L 82.472656 123.703125 L 82.472656 138.832031 L 112.289062 130.570312 L 112.507812 128.113281 L 115.929688 89.820312 L 116.285156 85.914062 L 82.472656 85.914062 Z M 82.472656 100.457031 " fill-opacity="1" fill-rule="nonzero"/><path fill="#ffffff" d="M 82.472656 70.980469 L 82.472656 71.019531 L 117.605469 71.019531 L 117.898438 67.746094 L 118.5625 60.375 L 118.910156 56.472656 L 82.472656 56.472656 Z M 82.472656 70.980469 " fill-opacity="1" fill-rule="nonzero"/></svg>