<svg xmlns="http://www.w3.org/2000/svg" xmlns:xlink="http://www.w3.org/1999/xlink" width="220" zoomAndPan="magnify" viewBox="0 0 165 165.000002" height="220" preserveAspectRatio="xMidYMid meet" version="1.0"><defs><clipPath id="id1"><path d="M 6 120 L 108 120 L 108 156.804688 L 6 156.804688 Z M 6 120 " clip-rule="nonzero"/></clipPath><clipPath id="id2"><path d="M 5.640625 123 L 121 123 L 121 156.804688 L 5.640625 156.804688 Z M 5.640625 123 " clip-rule="nonzero"/></clipPath><clipPath id="id3"><path d="M 26 113 L 159.210938 113 L 159.210938 147 L 26 147 Z M 26 113 " clip-rule="nonzero"/></clipPath></defs><path fill="#0868ac" d="M 39.234375 30.03125 C 30.464844 42.863281 31.554688 59.558594 38.238281 73.179688 L 38.730469 74.148438 L 39.0625 74.761719 C 39.125 74.882812 39.195312 75 39.257812 75.117188 C 39.375 75.332031 39.492188 75.539062 39.589844 75.753906 L 40.230469 76.867188 L 40.597656 77.484375 L 41.339844 78.664062 L 41.671875 79.164062 C 42.003906 79.695312 42.378906 80.222656 42.746094 80.742188 C 42.753906 80.753906 42.765625 80.769531 42.777344 80.785156 C 42.835938 80.867188 42.898438 80.949219 42.941406 81.03125 C 43.261719 81.480469 43.605469 81.921875 43.9375 82.359375 L 44.308594 82.839844 L 45.210938 83.96875 L 45.558594 84.390625 C 45.96875 84.886719 46.390625 85.378906 46.820312 85.859375 L 46.847656 85.886719 C 46.863281 85.90625 46.878906 85.917969 46.898438 85.941406 C 47.3125 86.410156 47.738281 86.867188 48.179688 87.316406 L 48.589844 87.738281 L 49.613281 88.761719 L 50.035156 89.167969 C 50.492188 89.605469 50.960938 90.039062 51.4375 90.464844 L 51.703125 90.699219 L 52.976562 91.792969 L 53.503906 92.222656 L 54.566406 93.050781 L 55.136719 93.492188 L 56.757812 94.675781 C 56.800781 94.707031 56.835938 94.734375 56.878906 94.765625 C 57.261719 95.027344 57.648438 95.285156 58.035156 95.542969 L 58.539062 95.882812 L 60.351562 97.011719 L 60.851562 97.300781 L 62.214844 98.074219 C 62.464844 98.210938 62.71875 98.339844 62.964844 98.472656 L 63.9375 98.96875 L 64.164062 99.078125 L 64.5625 99.273438 L 66.105469 100 L 66.433594 100.167969 C 67.027344 100.433594 67.628906 100.6875 68.234375 100.929688 L 68.671875 101.105469 L 70.371094 101.746094 L 70.582031 101.820312 C 71.210938 102.042969 71.839844 102.253906 72.476562 102.453125 L 72.933594 102.589844 C 73.597656 102.789062 74.21875 103.027344 74.886719 103.15625 C 117.3125 111.046875 129.640625 77.222656 129.640625 77.222656 C 119.289062 90.949219 100.917969 94.566406 83.511719 90.539062 C 82.851562 90.371094 82.210938 90.179688 81.566406 89.984375 L 81.082031 89.816406 C 80.457031 89.621094 79.832031 89.414062 79.214844 89.199219 L 78.957031 89.105469 C 78.402344 88.90625 77.855469 88.699219 77.308594 88.480469 L 76.84375 88.296875 C 76.246094 88.054688 75.652344 87.804688 75.0625 87.542969 L 74.707031 87.382812 L 73.207031 86.671875 L 72.773438 86.457031 C 72.382812 86.261719 71.996094 86.0625 71.609375 85.855469 L 70.835938 85.441406 C 70.367188 85.183594 69.902344 84.917969 69.445312 84.644531 L 68.972656 84.378906 C 68.363281 84.015625 67.757812 83.632812 67.160156 83.25 C 66.996094 83.144531 66.835938 83.027344 66.671875 82.917969 L 65.378906 82.046875 L 64.964844 81.746094 L 63.746094 80.851562 L 63.203125 80.4375 L 62.101562 79.5625 L 61.609375 79.164062 L 60.242188 78 C 60.195312 77.960938 60.140625 77.917969 60.074219 77.871094 C 59.585938 77.4375 59.105469 76.988281 58.632812 76.539062 L 58.226562 76.140625 L 57.191406 75.109375 L 56.785156 74.691406 C 56.355469 74.246094 55.933594 73.789062 55.515625 73.324219 C 55.496094 73.300781 55.472656 73.28125 55.453125 73.257812 C 55.015625 72.769531 54.585938 72.273438 54.164062 71.765625 L 53.828125 71.359375 L 52.898438 70.191406 L 52.558594 69.757812 L 51.488281 68.308594 C 41.820312 54.890625 38.367188 36.386719 46.074219 21.1875 M 66.46875 19.214844 C 60.125 28.511719 60.46875 40.945312 65.417969 50.773438 C 66.246094 52.425781 67.183594 54.015625 68.226562 55.542969 C 69.175781 56.929688 70.230469 58.578125 71.492188 59.691406 C 71.949219 60.1875 72.425781 60.6875 72.914062 61.195312 C 73.039062 61.324219 73.164062 61.445312 73.289062 61.570312 C 73.765625 62.042969 74.25 62.5 74.746094 62.945312 C 74.765625 62.964844 74.78125 62.984375 74.804688 63 C 75.363281 63.496094 75.933594 63.976562 76.515625 64.445312 L 76.902344 64.75 C 77.484375 65.207031 78.074219 65.644531 78.679688 66.070312 C 78.695312 66.082031 78.710938 66.097656 78.730469 66.109375 C 78.996094 66.296875 79.269531 66.472656 79.539062 66.652344 C 79.667969 66.738281 79.792969 66.832031 79.921875 66.910156 C 80.355469 67.195312 80.792969 67.46875 81.238281 67.734375 L 81.421875 67.84375 L 82.585938 68.507812 C 82.722656 68.585938 82.863281 68.652344 83 68.726562 L 83.832031 69.152344 C 83.875 69.175781 83.914062 69.191406 83.953125 69.210938 C 84.515625 69.492188 85.078125 69.757812 85.652344 70.015625 C 85.777344 70.070312 85.902344 70.121094 86.027344 70.175781 C 86.488281 70.375 86.953125 70.566406 87.421875 70.75 L 88.019531 70.972656 C 88.445312 71.128906 88.871094 71.28125 89.300781 71.425781 L 89.878906 71.613281 C 90.488281 71.808594 91.089844 72.050781 91.726562 72.15625 C 124.480469 77.679688 132.046875 52.011719 132.046875 52.011719 C 125.230469 62 112.027344 66.769531 97.941406 63.050781 C 97.316406 62.882812 96.699219 62.703125 96.085938 62.503906 C 95.898438 62.445312 95.714844 62.382812 95.527344 62.335938 C 95.09375 62.191406 94.660156 62.042969 94.230469 61.882812 L 93.644531 61.660156 C 93.175781 61.492188 92.710938 61.285156 92.25 61.085938 C 92.125 61.03125 91.996094 60.980469 91.871094 60.925781 C 91.292969 60.671875 90.722656 60.402344 90.160156 60.117188 C 89.871094 59.972656 89.589844 59.820312 89.304688 59.671875 L 88.808594 59.414062 C 88.445312 59.210938 88.082031 59.003906 87.726562 58.789062 L 87.464844 58.625 C 87.023438 58.359375 86.585938 58.085938 86.15625 57.808594 C 86.023438 57.722656 85.890625 57.640625 85.757812 57.539062 L 84.910156 56.964844 C 84.308594 56.542969 83.71875 56.101562 83.140625 55.648438 L 82.742188 55.328125 C 76.574219 50.375 71.6875 43.605469 69.363281 35.925781 C 66.925781 27.960938 67.453125 19.023438 71.6875 11.769531 M 89.371094 11.136719 C 85.628906 16.742188 85.261719 23.699219 87.875 29.882812 C 90.613281 36.449219 96.21875 41.605469 102.765625 44.046875 C 103.035156 44.148438 103.304688 44.238281 103.59375 44.332031 L 103.953125 44.449219 C 104.339844 44.570312 104.722656 44.714844 105.117188 44.789062 C 123.207031 48.347656 128.113281 35.34375 129.417969 33.429688 C 125.121094 39.726562 117.898438 41.242188 109.035156 39.050781 C 108.339844 38.878906 107.566406 38.621094 106.878906 38.378906 C 106.011719 38.0625 105.160156 37.703125 104.332031 37.300781 C 102.75 36.527344 101.261719 35.601562 99.867188 34.527344 C 91.921875 28.402344 86.996094 16.722656 92.167969 7.210938 " fill-opacity="1" fill-rule="nonzero"/><path fill="#131b28" d="M 49.425781 130.066406 L 48.199219 134.410156 L 49.425781 130.070312 Z M 55.730469 139.488281 L 54.378906 139.480469 Z M 55.398438 145.972656 L 47.308594 146 Z M 57.089844 139.5 L 55.738281 139.492188 Z M 56.125 145.421875 L 57.535156 140.050781 Z M 85.898438 120.683594 L 83.273438 133.019531 Z M 79.148438 120.683594 L 77.15625 129.898438 Z M 79.148438 120.683594 " fill-opacity="1" fill-rule="nonzero"/><path fill="#131b28" d="M 85.433594 120.125 L 79.820312 120.125 C 79.507812 120.125 79.199219 120.375 79.132812 120.679688 L 75.148438 139.113281 C 75.082031 139.417969 74.773438 139.664062 74.460938 139.664062 L 70.488281 139.664062 C 66.554688 139.664062 67.011719 136.949219 67.832031 133.226562 L 67.855469 133.113281 L 68.332031 130.574219 L 68.539062 129.53125 L 70.351562 120.679688 C 70.414062 120.375 70.210938 120.125 69.898438 120.125 L 64.136719 120.125 C 63.972656 120.128906 63.828125 120.183594 63.703125 120.289062 C 63.574219 120.390625 63.492188 120.519531 63.453125 120.679688 L 60.855469 132.984375 C 59.429688 139.496094 59.808594 145.703125 67.566406 145.898438 L 67.789062 145.902344 L 79.964844 145.902344 C 80.277344 145.902344 80.585938 145.65625 80.652344 145.351562 L 85.902344 120.679688 C 85.96875 120.375 85.765625 120.125 85.453125 120.125 Z M 107.832031 139.730469 C 108.144531 139.730469 108.328125 139.980469 108.285156 140.285156 L 107.738281 142.949219 M 107.195312 145.613281 L 107.738281 142.949219 Z M 106.511719 146.175781 L 96.164062 146.222656 Z M 106.511719 146.175781 " fill-opacity="1" fill-rule="nonzero"/><path fill="#131b28" d="M 92.8125 136.300781 C 92.808594 136.011719 93.140625 135.507812 93.453125 135.507812 L 92.753906 135.496094 C 92.421875 138.671875 92.8125 136.300781 92.8125 136.300781 Z M 96.675781 146.222656 L 96.570312 146.222656 Z M 107.832031 139.730469 C 108.144531 139.730469 108.328125 139.980469 108.285156 140.285156 L 107.648438 143.382812 M 99.332031 146.230469 L 99.308594 146.230469 Z M 97.957031 146.222656 L 97.875 146.222656 Z M 97.535156 146.222656 L 97.402344 146.222656 Z M 97.125 146.222656 L 97.007812 146.222656 Z M 97.890625 146.222656 L 97.550781 146.222656 Z M 97.890625 146.222656 " fill-opacity="1" fill-rule="nonzero"/><g clip-path="url(#id1)"><path fill="#131b28" d="M 99.3125 146.230469 L 97.957031 146.234375 Z M 106.515625 146.1875 L 99.332031 146.234375 Z M 107.179688 145.613281 L 107.632812 143.382812 Z M 97.386719 146.222656 L 97.125 146.222656 L 97.421875 146.222656 Z M 96.566406 146.222656 L 96.167969 146.222656 Z M 96.992188 146.222656 L 96.660156 146.222656 Z M 14.859375 136.367188 L 15.730469 132.503906 L 14.734375 136.917969 L 14.617188 137.472656 L 14.859375 136.363281 Z M 25.296875 120.0625 L 19.132812 120.0625 C 18.96875 120.070312 18.820312 120.125 18.695312 120.226562 C 18.566406 120.328125 18.480469 120.457031 18.4375 120.617188 L 17.269531 125.761719 C 17.25 125.828125 17.246094 125.894531 17.261719 125.964844 C 17.273438 126.035156 17.300781 126.097656 17.347656 126.152344 C 17.390625 126.207031 17.445312 126.25 17.507812 126.277344 C 17.574219 126.304688 17.640625 126.316406 17.710938 126.3125 L 23.925781 126.3125 C 24.238281 126.3125 24.546875 126.0625 24.613281 125.761719 L 25.742188 120.605469 C 25.808594 120.300781 25.609375 120.050781 25.292969 120.050781 Z M 23.957031 128.640625 L 22.128906 137 Z M 6.042969 156.347656 L 11.128906 156.386719 C 9.628906 156.386719 7.148438 156.355469 6.042969 156.34375 Z M 6.042969 156.347656 " fill-opacity="1" fill-rule="nonzero"/></g><g clip-path="url(#id2)"><path fill="#131b28" d="M 16.585938 128.640625 L 15.710938 132.503906 Z M 23.511719 128.085938 L 17.292969 128.085938 C 17.132812 128.09375 16.984375 128.148438 16.859375 128.25 C 16.730469 128.351562 16.644531 128.480469 16.601562 128.640625 L 14.859375 136.367188 L 14.617188 137.476562 L 12.957031 145.363281 C 12.875 145.730469 12.773438 146.09375 12.65625 146.453125 C 12.65625 146.453125 11.492188 149.90625 9.542969 149.867188 L 7.609375 149.832031 C 7.445312 149.835938 7.300781 149.886719 7.171875 149.988281 C 7.042969 150.085938 6.957031 150.214844 6.914062 150.371094 L 5.625 155.785156 C 5.605469 155.855469 5.601562 155.921875 5.613281 155.992188 C 5.625 156.058594 5.652344 156.121094 5.699219 156.179688 C 5.742188 156.234375 5.792969 156.277344 5.859375 156.304688 C 5.921875 156.335938 5.988281 156.347656 6.058594 156.34375 L 11.144531 156.386719 C 16.019531 156.386719 18.589844 153.683594 20.238281 145.917969 L 23.976562 128.660156 C 24.042969 128.355469 23.839844 128.105469 23.527344 128.105469 Z M 111.792969 145.90625 C 111.480469 145.90625 111.292969 145.660156 111.34375 145.351562 L 116.015625 123.46875 M 118.289062 145.351562 L 120.179688 136.011719 Z M 118.289062 145.351562 " fill-opacity="1" fill-rule="nonzero"/></g><path fill="#131b28" d="M 111.410156 145.628906 C 111.371094 145.476562 111.394531 145.105469 111.460938 144.800781 L 113.679688 134.410156 L 111.339844 145.351562 C 111.273438 145.660156 111.476562 145.90625 111.789062 145.90625 L 112.359375 145.90625 C 112.046875 145.90625 111.449219 145.78125 111.410156 145.628906 Z M 117.921875 145.78125 C 117.75 145.847656 117.355469 145.90625 117.042969 145.90625 L 117.613281 145.90625 C 117.773438 145.902344 117.917969 145.847656 118.046875 145.742188 C 118.171875 145.640625 118.253906 145.507812 118.292969 145.351562 L 118.40625 144.796875 C 118.34375 145.101562 118.074219 145.714844 117.90625 145.78125 Z M 119.230469 140.679688 L 120.066406 136.558594 Z M 137.679688 124.9375 L 137.9375 125.996094 C 138.007812 126.300781 137.808594 126.546875 137.5 126.550781 " fill-opacity="1" fill-rule="nonzero"/><path fill="#131b28" d="M 118.402344 144.796875 L 119.230469 140.679688 Z M 137.425781 123.828125 L 137.679688 124.914062 Z M 120.066406 136.558594 L 120.296875 135.457031 L 121.1875 131.285156 L 120.179688 136.011719 Z M 116.09375 123.109375 L 115.898438 124.023438 L 113.679688 134.410156 L 116.019531 123.46875 L 116.09375 123.113281 Z M 116.09375 123.109375 " fill-opacity="1" fill-rule="nonzero"/><g clip-path="url(#id3)"><path fill="#131b28" d="M 137.9375 125.996094 L 137.679688 124.9375 L 137.296875 123.277344 C 136.792969 121.316406 135.3125 120.183594 132.09375 120.183594 L 117.28125 120.175781 C 117.117188 120.179688 116.972656 120.234375 116.847656 120.335938 C 116.71875 120.441406 116.636719 120.570312 116.597656 120.730469 L 116.367188 121.8125 L 116.035156 123.449219 L 111.480469 144.78125 C 111.414062 145.085938 111.390625 145.445312 111.429688 145.609375 C 111.46875 145.777344 112.066406 145.886719 112.375 145.886719 L 117.058594 145.886719 C 117.371094 145.886719 117.765625 145.832031 117.933594 145.761719 C 118.105469 145.695312 118.355469 145.097656 118.433594 144.777344 L 120.210938 135.992188 L 122.113281 127.089844 C 122.179688 126.785156 122.484375 126.539062 122.796875 126.539062 L 137.53125 126.53125 C 137.839844 126.53125 138.039062 126.28125 137.96875 125.976562 Z M 156.90625 116.382812 L 155.773438 116.390625 L 151.054688 116.390625 C 150.691406 116.410156 150.394531 116.566406 150.167969 116.855469 L 139.742188 132.125 C 139.566406 132.382812 139.363281 132.34375 139.292969 132.042969 L 138.523438 128.679688 C 138.484375 128.519531 138.398438 128.390625 138.269531 128.289062 C 138.140625 128.1875 137.996094 128.132812 137.832031 128.125 L 131.128906 128.125 C 130.816406 128.125 130.628906 128.371094 130.71875 128.667969 L 133.707031 139.1875 C 133.792969 139.488281 133.796875 139.980469 133.722656 140.28125 L 132.394531 145.371094 C 132.371094 145.4375 132.367188 145.507812 132.378906 145.578125 C 132.386719 145.644531 132.414062 145.707031 132.457031 145.761719 C 132.5 145.820312 132.554688 145.859375 132.621094 145.886719 C 132.683594 145.917969 132.75 145.929688 132.820312 145.921875 L 139.464844 145.921875 C 139.777344 145.921875 140.09375 145.671875 140.171875 145.375 L 141.5 140.285156 C 141.605469 139.925781 141.765625 139.589844 141.980469 139.28125 L 158.929688 116.824219 C 159.117188 116.574219 159.015625 116.371094 158.703125 116.375 L 156.925781 116.386719 Z M 103.640625 129.554688 C 103.601562 129.886719 103.289062 130.136719 102.976562 130.136719 L 94.472656 130.136719 C 94.179688 130.136719 94.03125 129.9375 94.074219 129.6875 L 94.082031 129.644531 L 94.121094 129.5 C 94.949219 127.34375 96.585938 125.925781 99.695312 125.925781 C 103.191406 125.925781 103.875 127.636719 103.636719 129.554688 Z M 101.148438 119.75 C 90.238281 119.75 87.652344 126.371094 86.203125 133.050781 C 84.75 139.859375 84.875 146.226562 96.164062 146.226562 L 97.957031 146.226562 L 99.332031 146.222656 L 106.515625 146.179688 C 106.679688 146.171875 106.824219 146.113281 106.949219 146.011719 C 107.074219 145.910156 107.15625 145.777344 107.191406 145.621094 L 108.285156 140.292969 C 108.347656 139.984375 108.144531 139.738281 107.832031 139.738281 L 97.679688 139.738281 C 93.644531 139.738281 92.445312 138.664062 92.886719 135.511719 L 109.109375 135.511719 C 109.375 135.507812 109.617188 135.347656 109.710938 135.09375 C 109.730469 135.050781 109.746094 135.003906 109.753906 134.953125 C 112.160156 125.875 111.46875 119.757812 101.148438 119.757812 Z M 49.578125 129.519531 L 49.425781 130.0625 C 49.425781 130.0625 48.199219 134.402344 48.199219 134.402344 L 46.972656 138.742188 C 46.921875 138.898438 46.832031 139.027344 46.699219 139.125 C 46.566406 139.226562 46.417969 139.277344 46.253906 139.285156 L 39.765625 139.285156 C 34.847656 139.285156 33.652344 135.441406 34.847656 129.769531 C 36.042969 123.96875 38.394531 120.363281 43.234375 120 C 49.851562 119.5 51.171875 124.152344 49.578125 129.519531 Z M 54.027344 138.953125 C 54.027344 138.953125 57.082031 131.535156 57.777344 127.25 C 58.726562 121.511719 55.851562 113.191406 44.75 113.191406 C 33.714844 113.191406 28.921875 121.136719 27.09375 129.789062 C 25.265625 138.484375 27.660156 146.113281 38.632812 146.050781 L 55.382812 145.988281 C 55.546875 145.980469 55.695312 145.929688 55.824219 145.828125 C 55.953125 145.726562 56.042969 145.597656 56.089844 145.4375 L 57.503906 140.066406 C 57.527344 140 57.53125 139.933594 57.519531 139.863281 C 57.511719 139.792969 57.484375 139.730469 57.441406 139.675781 C 57.398438 139.621094 57.34375 139.578125 57.28125 139.550781 C 57.214844 139.519531 57.148438 139.507812 57.078125 139.515625 L 54.378906 139.5 C 54.113281 139.496094 53.960938 139.324219 53.992188 139.101562 C 54 139.058594 54.007812 139.015625 54.027344 138.972656 Z M 54.027344 138.953125 " fill-opacity="1" fill-rule="nonzero"/></g><path fill="#131b28" d="M 108.664062 133.988281 C 108.664062 134.195312 108.5 134.363281 108.292969 134.363281 C 108.089844 134.363281 107.921875 134.195312 107.921875 133.988281 C 107.921875 133.785156 108.089844 133.617188 108.292969 133.617188 C 108.5 133.617188 108.664062 133.785156 108.664062 133.988281 Z M 108.664062 133.988281 " fill-opacity="1" fill-rule="nonzero"/></svg>