<svg xmlns="http://www.w3.org/2000/svg" xmlns:xlink="http://www.w3.org/1999/xlink" width="220" zoomAndPan="magnify" viewBox="0 0 165 165.000002" height="220" preserveAspectRatio="xMidYMid meet" version="1.0"><defs><clipPath id="id1"><path d="M 16.898438 23.691406 L 155.558594 23.691406 L 155.558594 162.351562 L 16.898438 162.351562 Z M 16.898438 23.691406 " clip-rule="nonzero"/></clipPath></defs><g clip-path="url(#id1)"><path fill="#563d7c" d="M 16.898438 144.472656 C 16.898438 154.34375 24.902344 162.351562 34.777344 162.351562 L 137.675781 162.351562 C 147.550781 162.351562 155.558594 154.34375 155.558594 144.472656 L 155.558594 41.570312 C 155.558594 31.695312 147.550781 23.691406 137.675781 23.691406 L 34.777344 23.691406 C 24.902344 23.691406 16.898438 31.695312 16.898438 41.570312 Z M 16.898438 144.472656 " fill-opacity="1" fill-rule="nonzero"/></g><path fill="#ffffff" d="M 74.398438 85.027344 L 74.398438 65.390625 L 91.683594 65.390625 C 93.328125 65.390625 94.914062 65.527344 96.441406 65.800781 C 97.96875 66.074219 99.324219 66.566406 100.5 67.269531 C 101.675781 67.976562 102.617188 68.957031 103.320312 70.210938 C 104.027344 71.464844 104.378906 73.070312 104.378906 75.03125 C 104.378906 78.558594 103.320312 81.105469 101.203125 82.675781 C 99.089844 84.242188 96.382812 85.027344 93.089844 85.027344 Z M 55.9375 51.042969 L 55.9375 134.996094 L 96.621094 134.996094 C 100.378906 134.996094 104.046875 134.527344 107.609375 133.585938 C 111.179688 132.648438 114.355469 131.195312 117.140625 129.234375 C 119.921875 127.273438 122.132812 124.75 123.777344 121.652344 C 125.425781 118.554688 126.25 114.890625 126.25 110.65625 C 126.25 105.40625 124.976562 100.917969 122.429688 97.195312 C 119.878906 93.46875 116.023438 90.863281 110.84375 89.375 C 114.609375 87.570312 117.453125 85.257812 119.371094 82.4375 C 121.292969 79.617188 122.25 76.089844 122.25 71.855469 C 122.25 67.9375 121.605469 64.644531 120.3125 61.980469 C 119.019531 59.3125 117.199219 57.179688 114.847656 55.570312 C 112.492188 53.964844 109.667969 52.808594 106.382812 52.101562 C 103.089844 51.394531 99.445312 51.042969 95.445312 51.042969 Z M 74.398438 120.65625 L 74.398438 97.609375 L 94.503906 97.609375 C 98.5 97.609375 101.710938 98.53125 104.144531 100.371094 C 106.578125 102.210938 107.789062 105.289062 107.789062 109.601562 C 107.789062 111.792969 107.417969 113.597656 106.675781 115.011719 C 105.925781 116.417969 104.929688 117.535156 103.671875 118.359375 C 102.421875 119.183594 100.972656 119.773438 99.324219 120.125 C 97.675781 120.476562 95.957031 120.65625 94.152344 120.65625 Z M 74.398438 120.65625 " fill-opacity="1" fill-rule="nonzero"/></svg>