<svg xmlns="http://www.w3.org/2000/svg" xmlns:xlink="http://www.w3.org/1999/xlink" width="220" zoomAndPan="magnify" viewBox="0 0 165 165.000002" height="220" preserveAspectRatio="xMidYMid meet" version="1.0"><defs><clipPath id="id1"><path d="M 23.421875 4 L 141.207031 4 L 141.207031 159 L 23.421875 159 Z M 23.421875 4 " clip-rule="nonzero"/></clipPath><clipPath id="id2"><path d="M 23.421875 111 L 141.207031 111 L 141.207031 159 L 23.421875 159 Z M 23.421875 111 " clip-rule="nonzero"/></clipPath></defs><g clip-path="url(#id1)"><path fill="#e9e9e0" d="M 106.921875 4.324219 L 27.433594 4.324219 C 25.214844 4.324219 23.421875 6.125 23.421875 9.621094 L 23.421875 155.746094 C 23.421875 156.699219 25.214844 158.5 27.433594 158.5 L 137.203125 158.5 C 139.410156 158.5 141.203125 156.699219 141.203125 155.746094 L 141.203125 40.054688 C 141.203125 38.132812 140.949219 37.515625 140.507812 37.070312 L 108.632812 5.035156 C 108.179688 4.578125 107.566406 4.324219 106.921875 4.324219 Z M 106.921875 4.324219 " fill-opacity="1" fill-rule="nonzero"/></g><path fill="#d9d7ca" d="M 108.339844 4.738281 L 108.339844 37.367188 L 140.789062 37.367188 Z M 108.339844 4.738281 " fill-opacity="1" fill-rule="nonzero"/><g clip-path="url(#id2)"><path fill="#9777a8" d="M 137.203125 158.5 L 27.433594 158.5 C 25.214844 158.5 23.421875 156.699219 23.421875 154.46875 L 23.421875 111.691406 L 141.203125 111.691406 L 141.203125 154.46875 C 141.203125 156.699219 139.410156 158.5 137.203125 158.5 Z M 137.203125 158.5 " fill-opacity="1" fill-rule="nonzero"/></g><path fill="#ffffff" d="M 52.246094 121.9375 L 52.246094 143.539062 C 52.246094 144.84375 52.003906 145.945312 51.523438 146.832031 C 51.054688 147.71875 50.425781 148.433594 49.625 148.984375 C 48.820312 149.523438 47.898438 149.898438 46.867188 150.113281 C 45.824219 150.316406 44.769531 150.421875 43.660156 150.421875 C 43.125 150.421875 42.46875 150.367188 41.734375 150.261719 C 40.996094 150.140625 40.234375 149.964844 39.445312 149.738281 C 38.667969 149.496094 37.90625 149.226562 37.183594 148.917969 C 36.460938 148.621094 35.847656 148.285156 35.351562 147.910156 L 37.265625 144.855469 C 37.507812 145.03125 37.867188 145.21875 38.335938 145.40625 C 38.789062 145.582031 39.296875 145.769531 39.847656 145.933594 C 40.394531 146.09375 40.96875 146.226562 41.570312 146.363281 C 42.175781 146.484375 42.734375 146.550781 43.257812 146.550781 C 44.582031 146.550781 45.636719 146.296875 46.414062 145.769531 C 47.203125 145.261719 47.617188 144.386719 47.671875 143.164062 L 47.671875 121.9375 Z M 52.246094 121.9375 " fill-opacity="1" fill-rule="nonzero"/><path fill="#ffffff" d="M 74.59375 142.636719 C 74.59375 143.632812 74.394531 144.613281 73.980469 145.554688 C 73.566406 146.496094 72.988281 147.332031 72.242188 148.042969 C 71.492188 148.753906 70.570312 149.320312 69.472656 149.75 C 68.363281 150.179688 67.117188 150.382812 65.726562 150.382812 C 65.125 150.382812 64.511719 150.355469 63.867188 150.289062 C 63.226562 150.234375 62.585938 150.125 61.941406 149.980469 C 61.285156 149.816406 60.671875 149.617188 60.082031 149.347656 C 59.496094 149.089844 59 148.769531 58.570312 148.390625 L 59.359375 145.152344 C 59.707031 145.355469 60.148438 145.554688 60.683594 145.742188 C 61.21875 145.917969 61.769531 146.105469 62.34375 146.269531 C 62.917969 146.429688 63.492188 146.5625 64.070312 146.65625 C 64.644531 146.765625 65.179688 146.804688 65.6875 146.804688 C 67.210938 146.804688 68.375 146.457031 69.179688 145.742188 C 69.992188 145.019531 70.394531 143.957031 70.394531 142.558594 C 70.394531 141.710938 70.113281 140.972656 69.539062 140.378906 C 68.964844 139.773438 68.242188 139.222656 67.386719 138.738281 C 66.53125 138.242188 65.59375 137.757812 64.589844 137.273438 C 63.601562 136.777344 62.664062 136.199219 61.78125 135.539062 C 60.914062 134.867188 60.191406 134.089844 59.613281 133.1875 C 59.039062 132.289062 58.757812 131.160156 58.757812 129.800781 C 58.757812 128.578125 58.988281 127.476562 59.425781 126.519531 C 59.882812 125.578125 60.484375 124.757812 61.246094 124.101562 C 62.007812 123.429688 62.890625 122.929688 63.910156 122.566406 C 64.910156 122.21875 65.980469 122.042969 67.105469 122.042969 C 68.253906 122.042969 69.417969 122.152344 70.582031 122.367188 C 71.757812 122.582031 72.710938 122.929688 73.429688 123.402344 C 73.285156 123.722656 73.109375 124.085938 72.910156 124.476562 C 72.710938 124.867188 72.523438 125.230469 72.347656 125.566406 C 72.175781 125.902344 72.027344 126.183594 71.90625 126.414062 C 71.773438 126.640625 71.707031 126.761719 71.679688 126.789062 C 71.519531 126.722656 71.359375 126.613281 71.171875 126.492188 C 70.984375 126.359375 70.714844 126.238281 70.367188 126.117188 C 70.007812 125.984375 69.550781 125.902344 68.976562 125.847656 C 68.402344 125.792969 67.667969 125.808594 66.769531 125.886719 C 66.261719 125.941406 65.792969 126.078125 65.339844 126.320312 C 64.882812 126.5625 64.496094 126.855469 64.148438 127.207031 C 63.789062 127.554688 63.519531 127.945312 63.320312 128.390625 C 63.121094 128.832031 63.027344 129.25 63.027344 129.652344 C 63.027344 130.648438 63.304688 131.46875 63.882812 132.085938 C 64.457031 132.691406 65.164062 133.230469 66.007812 133.699219 C 66.863281 134.167969 67.789062 134.613281 68.789062 135.058594 C 69.78125 135.488281 70.714844 136.023438 71.574219 136.65625 C 72.441406 137.273438 73.152344 138.066406 73.726562 139.007812 C 74.300781 139.9375 74.59375 141.160156 74.59375 142.636719 Z M 74.59375 142.636719 " fill-opacity="1" fill-rule="nonzero"/><path fill="#ffffff" d="M 101.71875 136.238281 C 101.71875 138.566406 101.425781 140.621094 100.835938 142.410156 C 100.25 144.183594 99.433594 145.675781 98.402344 146.847656 C 97.359375 148.03125 96.15625 148.917969 94.765625 149.523438 C 93.386719 150.125 91.863281 150.421875 90.21875 150.421875 C 88.570312 150.421875 87.0625 150.125 85.667969 149.523438 C 84.277344 148.917969 83.074219 148.03125 82.03125 146.847656 C 81 145.664062 80.1875 144.183594 79.597656 142.410156 C 79.007812 140.621094 78.726562 138.566406 78.726562 136.238281 C 78.726562 133.902344 79.007812 131.855469 79.597656 130.082031 C 80.1875 128.320312 81 126.84375 82.03125 125.660156 C 83.074219 124.476562 84.277344 123.589844 85.667969 122.972656 C 87.0625 122.351562 88.570312 122.042969 90.21875 122.042969 C 91.863281 122.042969 93.386719 122.351562 94.765625 122.972656 C 96.15625 123.589844 97.359375 124.476562 98.402344 125.660156 C 99.433594 126.84375 100.25 128.320312 100.835938 130.082031 C 101.425781 131.855469 101.71875 133.902344 101.71875 136.238281 Z M 90.109375 146.738281 C 91.03125 146.738281 91.902344 146.5625 92.746094 146.199219 C 93.585938 145.839844 94.335938 145.234375 94.992188 144.414062 C 95.648438 143.578125 96.167969 142.492188 96.542969 141.148438 C 96.917969 139.800781 97.117188 138.175781 97.144531 136.238281 C 97.117188 134.359375 96.929688 132.757812 96.570312 131.441406 C 96.210938 130.125 95.699219 129.035156 95.070312 128.1875 C 94.429688 127.328125 93.707031 126.722656 92.890625 126.34375 C 92.089844 125.957031 91.234375 125.78125 90.324219 125.78125 C 89.402344 125.78125 88.519531 125.941406 87.6875 126.304688 C 86.847656 126.65625 86.097656 127.246094 85.441406 128.09375 C 84.785156 128.925781 84.265625 130.015625 83.890625 131.347656 C 83.515625 132.675781 83.316406 134.304688 83.289062 136.238281 C 83.316406 138.121094 83.503906 139.722656 83.863281 141.050781 C 84.226562 142.382812 84.734375 143.472656 85.363281 144.304688 C 86.003906 145.152344 86.726562 145.769531 87.542969 146.160156 C 88.34375 146.550781 89.199219 146.738281 90.109375 146.738281 Z M 90.109375 146.738281 " fill-opacity="1" fill-rule="nonzero"/><path fill="#ffffff" d="M 128 122.5 L 128 150.234375 L 123.441406 150.234375 L 112.605469 131.117188 L 112.605469 150.234375 L 108.046875 150.234375 L 108.046875 122.5 L 112.605469 122.5 L 123.441406 141.617188 L 123.441406 122.5 Z M 128 122.5 " fill-opacity="1" fill-rule="nonzero"/><path fill="#9777a8" d="M 59.027344 56.628906 L 59.027344 45.621094 C 59.027344 44.101562 60.257812 42.863281 61.769531 42.863281 C 63.28125 42.863281 64.511719 41.628906 64.511719 40.109375 C 64.511719 38.589844 63.28125 37.367188 61.769531 37.367188 C 57.234375 37.367188 53.554688 41.0625 53.554688 45.621094 L 53.554688 56.628906 C 53.554688 59.667969 51.09375 62.140625 48.074219 62.140625 C 46.5625 62.140625 45.332031 63.378906 45.332031 64.898438 C 45.332031 66.417969 46.5625 67.640625 48.074219 67.640625 C 51.09375 67.640625 53.554688 70.113281 53.554688 73.152344 L 53.554688 84.160156 C 53.554688 88.71875 57.234375 92.429688 61.769531 92.429688 C 63.28125 92.429688 64.511719 91.191406 64.511719 89.671875 C 64.511719 88.152344 63.28125 86.917969 61.769531 86.917969 C 60.257812 86.917969 59.027344 85.679688 59.027344 84.160156 L 59.027344 73.152344 C 59.027344 69.84375 57.542969 66.914062 55.242188 64.898438 C 57.542969 62.867188 59.027344 59.9375 59.027344 56.628906 Z M 59.027344 56.628906 " fill-opacity="1" fill-rule="nonzero"/><path fill="#9777a8" d="M 85.054688 55.257812 C 85.054688 57.53125 83.207031 59.386719 80.949219 59.386719 C 78.675781 59.386719 76.84375 57.53125 76.84375 55.257812 C 76.84375 52.972656 78.675781 51.132812 80.949219 51.132812 C 83.207031 51.132812 85.054688 52.972656 85.054688 55.257812 Z M 85.054688 55.257812 " fill-opacity="1" fill-rule="nonzero"/><path fill="#9777a8" d="M 113.8125 62.140625 C 110.800781 62.140625 108.339844 59.667969 108.339844 56.628906 L 108.339844 45.621094 C 108.339844 41.0625 104.648438 37.367188 100.113281 37.367188 C 98.601562 37.367188 97.386719 38.589844 97.386719 40.109375 C 97.386719 41.628906 98.601562 42.863281 100.113281 42.863281 C 101.625 42.863281 102.855469 44.101562 102.855469 45.621094 L 102.855469 56.628906 C 102.855469 59.9375 104.339844 62.867188 106.640625 64.898438 C 104.339844 66.914062 102.855469 69.84375 102.855469 73.152344 L 102.855469 84.160156 C 102.855469 85.679688 101.625 86.917969 100.113281 86.917969 C 98.601562 86.917969 97.386719 88.152344 97.386719 89.671875 C 97.386719 91.191406 98.601562 92.429688 100.113281 92.429688 C 104.648438 92.429688 108.339844 88.71875 108.339844 84.160156 L 108.339844 73.152344 C 108.339844 70.113281 110.800781 67.640625 113.8125 67.640625 C 115.335938 67.640625 116.550781 66.417969 116.550781 64.898438 C 116.550781 63.378906 115.335938 62.140625 113.8125 62.140625 Z M 113.8125 62.140625 " fill-opacity="1" fill-rule="nonzero"/><path fill="#9777a8" d="M 80.949219 70.394531 C 79.4375 70.394531 78.207031 71.632812 78.207031 73.152344 L 78.207031 81.40625 C 78.207031 82.925781 79.4375 84.160156 80.949219 84.160156 C 82.460938 84.160156 83.691406 82.925781 83.691406 81.40625 L 83.691406 73.152344 C 83.691406 71.632812 82.460938 70.394531 80.949219 70.394531 Z M 80.949219 70.394531 " fill-opacity="1" fill-rule="nonzero"/></svg>