<svg xmlns="http://www.w3.org/2000/svg" xmlns:xlink="http://www.w3.org/1999/xlink" width="220" zoomAndPan="magnify" viewBox="0 0 165 165.000002" height="220" preserveAspectRatio="xMidYMid meet" version="1.0"><defs><clipPath id="id1"><path d="M 14.679688 26.875 L 150.359375 26.875 L 150.359375 162.554688 L 14.679688 162.554688 Z M 14.679688 26.875 " clip-rule="nonzero"/></clipPath></defs><g clip-path="url(#id1)"><path fill="#f7df1e" d="M 14.679688 26.875 L 150.359375 26.875 L 150.359375 162.554688 L 14.679688 162.554688 Z M 14.679688 26.875 " fill-opacity="1" fill-rule="nonzero"/></g><path fill="#000000" d="M 50.355469 140.257812 L 60.738281 133.976562 C 62.742188 137.527344 64.5625 140.53125 68.9375 140.53125 C 73.121094 140.53125 75.765625 138.890625 75.765625 132.519531 L 75.765625 89.167969 L 88.515625 89.167969 L 88.515625 132.699219 C 88.515625 145.902344 80.777344 151.917969 69.480469 151.917969 C 59.28125 151.917969 53.359375 146.632812 50.355469 140.257812 " fill-opacity="1" fill-rule="nonzero"/><path fill="#000000" d="M 95.441406 138.890625 L 105.824219 132.878906 C 108.558594 137.34375 112.109375 140.625 118.390625 140.625 C 123.671875 140.625 127.042969 137.984375 127.042969 134.335938 C 127.042969 129.964844 123.582031 128.417969 117.753906 125.867188 L 114.566406 124.5 C 105.367188 120.585938 99.265625 115.671875 99.265625 105.285156 C 99.265625 95.722656 106.550781 88.433594 117.9375 88.433594 C 126.042969 88.433594 131.871094 91.261719 136.058594 98.636719 L 126.132812 105.011719 C 123.949219 101.097656 121.578125 99.550781 117.9375 99.550781 C 114.203125 99.550781 111.832031 101.917969 111.832031 105.011719 C 111.832031 108.839844 114.203125 110.386719 119.667969 112.757812 L 122.851562 114.117188 C 133.691406 118.765625 139.796875 123.5 139.796875 134.15625 C 139.796875 145.632812 130.78125 151.917969 118.664062 151.917969 C 106.824219 151.917969 99.175781 146.269531 95.441406 138.890625 " fill-opacity="1" fill-rule="nonzero"/></svg>